<svg width="160" height="34" viewBox="0 0 160 34" fill="none" xmlns="http://www.w3.org/2000/svg">
<path d="M32.3805 8.2959L32.3815 8.29688L32.3824 8.29883C32.3835 8.30056 32.3856 8.3037 32.3873 8.30664C32.3909 8.31264 32.3958 8.32141 32.402 8.33203C32.4148 8.35397 32.4339 8.38538 32.4567 8.42578C32.5025 8.50696 32.566 8.62496 32.6412 8.77148C32.7915 9.06413 32.9882 9.47705 33.1715 9.95996C33.5321 10.9099 33.8711 12.2003 33.6461 13.3857L33.3356 13.7314L33.3209 13.7363C33.3105 13.7396 33.2944 13.7444 33.274 13.751C33.2319 13.7646 33.1684 13.7854 33.0885 13.8125C32.928 13.8669 32.6973 13.9485 32.4205 14.0537C31.8651 14.265 31.1275 14.5721 30.3942 14.958C29.6569 15.3459 28.9438 15.8024 28.4215 16.3057C28.0561 16.6579 27.8134 17.0083 27.6969 17.3496H31.4596L31.9088 17.7998V22.3066L31.4596 22.7568H26.6031C26.8577 23.1535 27.2451 23.6943 27.7799 24.2695C28.7931 25.3592 30.3252 26.5673 32.4684 27.1807L32.9059 27.2949L33.2506 27.7129V27.7168C33.2507 27.7189 33.2515 27.7221 33.2516 27.7256C33.2518 27.7327 33.2513 27.7431 33.2516 27.7559C33.2522 27.7815 33.2533 27.8187 33.2535 27.8652C33.2541 27.9583 33.2533 28.0914 33.2467 28.2559C33.2335 28.5853 33.1987 29.0446 33.111 29.5645C32.9374 30.5932 32.5481 31.9143 31.6647 32.9326L31.1481 33.0508L31.3248 32.6377L31.1471 33.0508L31.1451 33.0498C31.1434 33.0491 31.1402 33.0481 31.1373 33.0469C31.1309 33.0441 31.1209 33.0394 31.109 33.0342C31.0848 33.0236 31.0491 33.0076 31.0035 32.9873C30.9111 32.9461 30.7758 32.8851 30.6051 32.8057C30.263 32.6463 29.7744 32.4121 29.1901 32.1113C28.022 31.5101 26.4612 30.6396 24.8981 29.5664C23.3376 28.4951 21.7571 27.2096 20.5631 25.7744C19.3809 24.3533 18.5451 22.7431 18.5328 21.0195C18.5325 21.0168 18.5312 21.0138 18.5309 21.0107C18.5289 20.9929 18.5272 20.9685 18.525 20.9385C18.5208 20.8782 18.5163 20.794 18.5172 20.6875C18.519 20.4738 18.539 20.1699 18.609 19.792C18.7493 19.0348 19.0891 17.9829 19.8746 16.75C21.4461 14.2838 24.7832 11.121 31.8102 8.11523L31.9869 8.0791H31.9957L32.3805 8.2959ZM133.793 8.2959L133.794 8.29688L133.795 8.29883C133.796 8.30055 133.798 8.30367 133.799 8.30664C133.803 8.31264 133.808 8.32139 133.814 8.33203C133.827 8.35397 133.846 8.38536 133.869 8.42578C133.915 8.50696 133.978 8.62494 134.053 8.77148C134.204 9.06413 134.4 9.47704 134.584 9.95996C134.944 10.9099 135.283 12.2002 135.058 13.3857L134.748 13.7314L134.733 13.7363C134.723 13.7396 134.707 13.7444 134.686 13.751C134.644 13.7646 134.581 13.7854 134.501 13.8125C134.34 13.8669 134.109 13.9485 133.833 14.0537C133.277 14.265 132.54 14.5721 131.806 14.958C131.069 15.3459 130.356 15.8024 129.834 16.3057C129.468 16.6579 129.226 17.0083 129.109 17.3496H132.872L133.321 17.7998V22.3066L132.872 22.7568H128.015C128.27 23.1535 128.657 23.6943 129.192 24.2695C130.205 25.3592 131.737 26.5673 133.88 27.1807L134.318 27.2949L134.663 27.7129V27.7168C134.663 27.7189 134.664 27.7221 134.664 27.7256C134.664 27.7327 134.663 27.7431 134.664 27.7559C134.664 27.7815 134.665 27.8187 134.666 27.8652C134.666 27.9583 134.665 28.0914 134.659 28.2559C134.646 28.5853 134.611 29.0446 134.523 29.5645C134.349 30.5932 133.96 31.9143 133.077 32.9326L132.56 33.0508L132.737 32.6377L132.559 33.0508L132.557 33.0498C132.556 33.0491 132.552 33.0481 132.549 33.0469C132.543 33.0441 132.533 33.0394 132.521 33.0342C132.497 33.0236 132.461 33.0076 132.416 32.9873C132.323 32.9461 132.188 32.8852 132.017 32.8057C131.675 32.6463 131.187 32.4121 130.602 32.1113C129.434 31.5101 127.873 30.6396 126.31 29.5664C124.75 28.495 123.169 27.2096 121.975 25.7744C120.793 24.3532 119.957 22.7431 119.945 21.0195C119.945 21.0168 119.943 21.0138 119.943 21.0107C119.941 20.9929 119.939 20.9685 119.937 20.9385C119.933 20.8781 119.928 20.7932 119.929 20.6865C119.931 20.4729 119.951 20.1696 120.021 19.792C120.162 19.0348 120.502 17.9829 121.288 16.75C122.86 14.2838 126.199 11.1211 133.231 8.11523L133.793 8.2959ZM76.9274 7.60156C76.9274 7.60156 82.5634 23.2253 87.528 27.8652L81.0875 32.373C81.0872 32.3644 80.9506 28.3937 78.9401 26.8047H70.8893C70.8714 26.8284 69.2626 28.969 69.4049 31.8516L61.3629 29.0586C61.3629 29.0586 75.0488 15.944 69.5475 10.6504L76.9274 7.60156ZM113.217 7.82617C113.538 8.17133 114.059 8.53294 114.693 8.88574C115.32 9.23475 116.03 9.559 116.7 9.83691C117.369 10.1142 117.993 10.3434 118.451 10.5029C118.679 10.5825 118.866 10.6453 118.995 10.6875C119.059 10.7085 119.11 10.7246 119.143 10.7354C119.16 10.7406 119.173 10.7444 119.181 10.7471C119.185 10.7483 119.189 10.7494 119.191 10.75L119.193 10.751L119.346 11.5283C117.78 12.8179 116.262 14.6689 115.129 16.2148C114.564 16.9844 114.1 17.6729 113.776 18.168C113.624 18.4005 113.503 18.5901 113.418 18.7256C114.623 20.6237 116.707 22.9294 118.543 24.8047C119.493 25.776 120.37 26.6242 121.008 27.2295C121.327 27.5318 121.588 27.7736 121.767 27.9395C121.857 28.0222 121.927 28.0868 121.974 28.1299C121.998 28.1512 122.016 28.1679 122.028 28.1787C122.033 28.1837 122.038 28.1878 122.041 28.1904C122.042 28.1916 122.044 28.1927 122.045 28.1934V28.1943H122.046L121.868 28.9609C120.313 29.409 118.708 30.2476 117.48 30.9854C116.869 31.3525 116.356 31.691 115.998 31.9375C115.819 32.0604 115.678 32.1607 115.583 32.2295C115.535 32.2637 115.498 32.2908 115.474 32.3086C115.462 32.3174 115.453 32.3248 115.447 32.3291C115.444 32.3311 115.441 32.333 115.44 32.334L115.439 32.335L114.766 32.1758C113.465 29.5742 112.388 27.811 111.509 26.6289C110.628 25.4424 109.964 24.8654 109.498 24.6035C109.047 24.3505 108.807 24.4045 108.712 24.4424C108.654 24.4654 108.613 24.4968 108.589 24.5205C108.577 24.5319 108.569 24.5411 108.566 24.5449L108.565 24.5459C108.566 24.5452 108.567 24.5436 108.568 24.542L108.57 24.5361L108.487 24.6348C108.42 24.6933 108.341 24.8097 108.272 25.0176C108.204 25.2219 108.157 25.4828 108.13 25.791C108.077 26.4077 108.112 27.1541 108.186 27.8877C108.26 28.6176 108.371 29.318 108.464 29.8369C108.511 30.0959 108.553 30.3093 108.583 30.457C108.598 30.5306 108.61 30.5883 108.618 30.627C108.622 30.6462 108.625 30.6612 108.628 30.6709C108.629 30.6755 108.629 30.6794 108.63 30.6816L108.63 30.6836V30.6846L108.164 31.2314C105.912 31.0916 103.984 31.1591 102.622 31.2617C101.941 31.313 101.401 31.3731 101.034 31.4199C100.85 31.4433 100.709 31.4634 100.615 31.4775C100.568 31.4846 100.533 31.4904 100.509 31.4941C100.498 31.496 100.488 31.4971 100.483 31.498C100.481 31.4984 100.478 31.4988 100.477 31.499H100.476L99.9557 30.9834C101.152 23.6827 100.983 18.1606 100.52 14.4736C100.289 12.6299 99.9837 11.2437 99.7379 10.3232C99.6151 9.86318 99.5067 9.51882 99.4303 9.29199C99.3922 9.17885 99.3618 9.09473 99.3414 9.04004C99.3313 9.01275 99.3239 8.99215 99.319 8.97949C99.3167 8.97359 99.3142 8.96943 99.3131 8.9668L99.3121 8.96387L99.7291 8.34473H108.451L108.788 9.09277C108.05 9.92611 107.958 11.3027 108.11 12.5947C108.184 13.2221 108.312 13.7932 108.421 14.208C108.437 14.2702 108.455 14.3282 108.47 14.3828C108.83 14.1568 109.21 13.7954 109.594 13.3213C110.123 12.6693 110.619 11.8607 111.048 11.0625C111.477 10.2665 111.832 9.49246 112.081 8.91699C112.204 8.63016 112.301 8.39314 112.367 8.22852C112.4 8.14629 112.425 8.08139 112.442 8.03809C112.45 8.01674 112.456 8.00005 112.461 7.98926C112.462 7.98427 112.464 7.98011 112.464 7.97754C112.465 7.97642 112.466 7.97523 112.466 7.97461V7.97363L113.217 7.82617ZM22.0631 8.50977L22.0748 8.52051L22.3912 8.84082C21.6744 9.54926 21.3326 10.4794 21.1744 11.2607C21.096 11.6481 21.0641 11.9901 21.0524 12.2334C21.0465 12.3546 21.046 12.4512 21.0465 12.5156C21.0467 12.5475 21.047 12.5716 21.0475 12.5869C21.0477 12.5945 21.0483 12.6003 21.0485 12.6035V12.6055L20.8854 12.9775C19.5529 14.0743 17.9416 14.2432 16.7096 14.1562C16.0898 14.1124 15.5505 14.0024 15.1666 13.9043C15.1333 13.8957 15.101 13.8843 15.0699 13.876C14.3635 19.1346 14.6589 23.1489 15.1383 25.8613C15.3858 27.2616 15.6823 28.3165 15.9147 29.0166C16.0308 29.3664 16.1316 29.6288 16.2018 29.8008C16.2367 29.8864 16.2645 29.9502 16.2828 29.9912C16.2918 30.0114 16.2981 30.0269 16.3024 30.0361C16.3044 30.0404 16.3063 30.044 16.3073 30.0459L16.3082 30.0469L15.8092 30.6826C15.4243 30.6015 14.7563 30.6302 13.9147 30.748C13.0909 30.8635 12.1574 31.0552 11.275 31.2607C10.394 31.466 9.56944 31.6839 8.96545 31.8506C8.66423 31.9337 8.41737 32.0043 8.2467 32.0537C8.16173 32.0783 8.09425 32.0981 8.04944 32.1113L7.98596 32.1309C7.98501 32.1312 7.98355 32.1317 7.98303 32.1318H7.98206L7.40198 31.7012V13.5967C4.29106 14.3385 2.74661 14.4734 1.96545 14.3857C1.56394 14.3406 1.24003 14.2252 1.06604 13.9736C0.974627 13.8412 0.948783 13.7022 0.952759 13.5898C0.954688 13.5361 0.962804 13.4896 0.97229 13.4541C0.977029 13.4364 0.982099 13.4206 0.986938 13.4072C0.989357 13.4006 0.99245 13.3943 0.994751 13.3887C0.995808 13.3861 0.996684 13.3832 0.997681 13.3809L1.00061 13.375C1.0032 13.3752 1.03356 13.3875 1.41174 13.5576L1.00159 13.373L1.02502 13.3281L1.19104 13.0283C1.57953 12.2824 1.96767 11.2359 2.276 10.3086C2.45009 9.78498 2.59521 9.30915 2.6969 8.96484C2.74759 8.79322 2.78798 8.65437 2.81506 8.55859C2.82855 8.51088 2.83842 8.47319 2.84534 8.44824C2.84877 8.43588 2.85143 8.42617 2.85315 8.41992C2.85396 8.41697 2.85469 8.41459 2.8551 8.41309L2.85608 8.41113L3.37756 8.08789L4.06897 8.21387C7.58372 8.80511 11.8908 8.79745 15.4205 8.62695C17.2976 8.53626 18.9467 8.39951 20.1256 8.28613C20.7145 8.22949 21.1874 8.17836 21.5114 8.1416C21.6726 8.12331 21.7983 8.10881 21.8824 8.09863C21.9237 8.09365 21.9559 8.08956 21.9772 8.08691C21.9873 8.08566 21.9963 8.08464 22.0016 8.08398C22.0037 8.08372 22.0061 8.08323 22.0074 8.08301H22.0094C22.0096 8.08436 22.0117 8.10801 22.0631 8.50977ZM60.319 8.91309C58.3894 15.4674 58.5291 20.5627 59.1412 24.0059C59.4475 25.7282 59.8726 27.0405 60.2184 27.917C60.3912 28.3549 60.5445 28.6848 60.653 28.9023C60.707 29.0108 60.7502 29.0922 60.7789 29.1445C60.7931 29.1703 60.8043 29.1902 60.8112 29.2021C60.8143 29.2076 60.8166 29.2125 60.818 29.2148L60.819 29.2168L60.692 29.8164C58.0555 31.667 55.7672 31.9934 54.1168 31.834C53.2971 31.7547 52.6425 31.5569 52.1901 31.376C51.9642 31.2856 51.7868 31.1981 51.6647 31.1328C51.6044 31.1006 51.5565 31.0727 51.5231 31.0527C51.5067 31.043 51.4927 31.0344 51.483 31.0283C51.4785 31.0255 51.4734 31.0224 51.4703 31.0205C51.4692 31.0198 51.4673 31.019 51.4664 31.0186L51.4645 31.0166L51.2858 30.4941C52.333 27.4549 52.468 24.2404 52.3356 21.7715C52.2695 20.54 52.1375 19.4999 52.0221 18.7695C52.002 18.6425 51.9811 18.5246 51.9625 18.417C50.1196 20.2443 49.1019 22.1271 48.5426 23.5947C48.2346 24.4031 48.0654 25.0858 47.9733 25.5625C47.9272 25.8007 47.9004 25.9883 47.8854 26.1133C47.8779 26.1754 47.8734 26.2227 47.8707 26.2529C47.8694 26.2675 47.8683 26.2785 47.8678 26.2852C47.8675 26.2881 47.8669 26.2908 47.8668 26.292V26.293C47.8658 26.2928 47.8625 26.2924 47.8561 26.292L46.9713 26.3232C46.7181 24.3221 45.4027 22.0488 44.1002 20.2363C43.4562 19.3401 42.8274 18.573 42.36 18.0303C42.2838 17.9419 42.2091 17.8602 42.1422 17.7842C41.9992 18.5569 41.9638 19.4926 42.0094 20.5146C42.0711 21.8966 42.2774 23.3944 42.527 24.7822C42.7763 26.1688 43.0675 27.4388 43.2965 28.3613C43.4108 28.8218 43.5097 29.196 43.5797 29.4541C43.6146 29.5827 43.6428 29.6835 43.6617 29.751C43.6711 29.7845 43.6784 29.8111 43.6832 29.8281C43.6855 29.8361 43.6879 29.8426 43.6891 29.8467C43.6895 29.8484 43.6898 29.8506 43.6901 29.8516V29.8525H43.691L43.6676 30.166C43.5217 30.4828 43.2321 30.6967 42.9391 30.8447C42.6379 30.9967 42.2699 31.1109 41.8776 31.1992C41.0903 31.3763 40.123 31.4658 39.1989 31.5088C38.2707 31.5519 37.3652 31.5489 36.694 31.5352C36.3583 31.5283 36.0792 31.5186 35.8844 31.5107C35.7875 31.5068 35.7102 31.5035 35.6578 31.501C35.6325 31.4997 35.6119 31.4988 35.5983 31.498C35.5918 31.4977 35.5853 31.4973 35.5817 31.4971H35.5768C35.5767 31.4962 35.5773 31.4773 35.6012 31.0479L35.5758 31.4971L35.1676 30.9277C36.3473 26.6469 36.1874 21.2169 35.7203 16.8223C35.4875 14.6324 35.1797 12.7125 34.9303 11.3408C34.8057 10.6555 34.6965 10.1067 34.6178 9.73047C34.5786 9.5429 34.5466 9.39748 34.525 9.2998C34.5144 9.25165 34.5062 9.21405 34.5006 9.18945C34.4979 9.17752 34.4952 9.1672 34.4938 9.16113C34.4933 9.15895 34.493 9.15659 34.4928 9.15527L34.4918 9.15332L34.9303 8.60156H42.5875L42.9039 8.73145L47.6334 13.4033L51.3444 8.51367L51.7028 8.33594H59.8873L60.319 8.91309ZM97.9664 9.03027C96.9399 10.7045 96.371 12.8987 96.11 15.2822C95.8496 17.6605 95.8989 20.1943 96.0826 22.5215C96.2663 24.847 96.5836 26.9576 96.8551 28.4863C96.9907 29.2499 97.1147 29.8687 97.2047 30.2949C97.2496 30.5075 97.2861 30.6729 97.3112 30.7842C97.3236 30.8394 97.3339 30.8821 97.3405 30.9102C97.3436 30.9239 97.3457 30.9355 97.3473 30.9424C97.348 30.9454 97.3489 30.9486 97.3492 30.9502V30.9521L96.9117 31.5059H89.2633L88.8239 30.9609C90.7551 22.0717 90.4474 16.5765 89.6823 13.3281C89.2999 11.7054 88.8029 10.6409 88.4127 9.99219C88.2178 9.66816 88.048 9.44623 87.9323 9.30957C87.8747 9.2417 87.8294 9.19428 87.8014 9.16602C87.7879 9.15242 87.7784 9.1418 87.7731 9.13672C87.7724 9.13595 87.7715 9.13443 87.7711 9.13379C87.7715 9.13338 87.7723 9.13265 87.7731 9.13184L88.0651 8.34473H97.5826L97.9664 9.03027ZM145.898 8.76855C146.019 10.8041 147.414 13.0592 148.853 14.8555C149.564 15.7418 150.267 16.4956 150.794 17.0273C150.892 17.1268 150.985 17.2186 151.07 17.3018C151.104 16.8695 151.094 16.347 151.042 15.7617C150.955 14.7939 150.765 13.7124 150.547 12.6953C150.331 11.68 150.089 10.7365 149.901 10.0469C149.807 9.7027 149.726 9.42178 149.67 9.22754C149.641 9.13098 149.619 9.05485 149.604 9.00391C149.597 8.97905 149.59 8.95915 149.587 8.94629C149.585 8.94024 149.583 8.9348 149.582 8.93164C149.581 8.93034 149.581 8.92854 149.581 8.92773V8.92676L150.01 8.34473H158.598L159.02 8.95215C157.649 12.6246 157.638 18.1016 157.99 22.7217C158.165 25.0191 158.428 27.0835 158.647 28.5732C158.757 29.3177 158.855 29.9191 158.926 30.333C158.962 30.5397 158.991 30.7005 159.01 30.8086C159.02 30.8621 159.028 30.9034 159.033 30.9307C159.035 30.9441 159.037 30.9552 159.039 30.9619C159.039 30.965 159.039 30.9682 159.04 30.9697V30.9717L158.357 31.4365C157.562 30.9317 156.364 30.9078 155.275 31.0547C154.746 31.1261 154.27 31.2334 153.927 31.3232C153.756 31.3681 153.619 31.4088 153.525 31.4375C153.478 31.4518 153.442 31.463 153.419 31.4707L153.386 31.4814H153.385L153.384 31.4805L152.829 31.2383C150.287 25.512 148.237 22.7542 146.858 21.4326C146.171 20.7744 145.656 20.4788 145.338 20.3467C145.267 20.3174 145.205 20.2968 145.153 20.2812C145.093 20.4137 145.036 20.5923 144.996 20.8262C144.931 21.2003 144.909 21.667 144.924 22.2002C144.955 23.2659 145.131 24.5442 145.356 25.7852C145.58 27.0229 145.85 28.2098 146.065 29.0879C146.172 29.5263 146.265 29.8878 146.332 30.1387C146.365 30.2639 146.391 30.3625 146.409 30.4287C146.418 30.4615 146.425 30.4871 146.429 30.5039C146.432 30.5119 146.434 30.5184 146.435 30.5225C146.436 30.5242 146.436 30.5264 146.436 30.5273V30.5283H146.437L145.891 31.0859C144.167 30.6434 142.256 30.7362 140.754 30.9502C140.007 31.0566 139.369 31.1918 138.921 31.2998C138.696 31.3537 138.519 31.4012 138.399 31.4346C138.34 31.4511 138.293 31.4638 138.263 31.4727C138.248 31.4771 138.236 31.4812 138.229 31.4834C138.226 31.4843 138.223 31.4849 138.221 31.4854L138.22 31.4863H138.219C138.219 31.4861 138.219 31.4853 138.218 31.4844L137.665 30.8984L137.832 30.4355C139.498 25.6311 139.427 20.3563 138.912 16.2129C138.647 14.0792 138.265 12.2556 137.95 10.9668C137.793 10.3232 137.652 9.81279 137.551 9.46484C137.501 9.29118 137.46 9.15673 137.432 9.06738C137.419 9.02332 137.408 8.9889 137.401 8.9668C137.398 8.95629 137.395 8.94762 137.393 8.94238C137.392 8.94017 137.392 8.93772 137.391 8.93652V8.93555C137.395 8.93438 137.431 8.9212 137.8 8.7998V8.34473H145.449L145.898 8.76855ZM75.4518 19.1162C75.4283 19.1409 73.3003 21.381 72.4996 23.3584H76.6598L75.4518 19.1162ZM87.7711 9.13379L87.7701 9.13477L87.7692 9.13379H87.7682V9.13281C87.7687 9.13286 87.7703 9.13322 87.7711 9.13379ZM130.457 1.17773L130.459 1.17676V1.17773L130.481 1.22266C130.496 1.25383 130.519 1.30099 130.549 1.36035C130.61 1.47987 130.7 1.65234 130.814 1.85938C131.042 2.27448 131.365 2.82738 131.748 3.38184C132.132 3.93904 132.568 4.48437 133.016 4.89355C133.475 5.31165 133.893 5.53663 134.244 5.56152L134.418 6.41113L130.795 8.2666L130.222 8.12793V8.12695L130.221 8.125C130.22 8.12291 130.216 8.11933 130.214 8.11523C130.207 8.10658 130.198 8.09296 130.186 8.07617C130.161 8.04165 130.122 7.9909 130.074 7.92578C129.976 7.79504 129.834 7.60739 129.657 7.38281C129.302 6.93262 128.808 6.335 128.25 5.74414C127.689 5.1509 127.075 4.57556 126.482 4.16016C125.948 3.78644 125.488 3.58401 125.13 3.55469L124.981 3.55273L124.504 3.10352V3.09473L124.809 2.66797L129.909 0.944336L130.457 1.17773Z" fill="white" fill-opacity="0.8"/>
</svg>
