<svg width="133" height="33" viewBox="0 0 133 33" fill="none" xmlns="http://www.w3.org/2000/svg">
<g clip-path="url(#clip0_2143_228)">
<path d="M31.6359 17.9495C32.1789 16.6308 31.55 15.1215 30.2313 14.5785C28.9126 14.0355 27.4034 14.6644 26.8604 15.9831C26.3174 17.3018 26.9462 18.811 28.2649 19.354C29.5837 19.897 31.0929 19.2682 31.6359 17.9495Z" fill="white" fill-opacity="0.8"/>
<path d="M52.9505 17.7422C51.7117 16.5364 49.702 15.8096 47.6318 15.5619V15.4848C49.2836 15.0498 50.638 14.2735 51.7006 13.1503C52.7633 12.0326 53.2918 10.7277 53.2918 9.23563C53.2918 7.18195 52.4219 5.58525 50.6766 4.45655C49.256 3.53707 47.329 2.9975 44.9119 2.82682V0.585938H41.6084V2.76625H39.5547V0.585938H36.2512V2.76625H32.9642V30.4056H36.2512V32.5859H39.5547V30.4056H41.6084V32.5859H44.9119V30.3726C47.7529 30.2184 50.2636 29.4917 51.9484 28.1758C53.8534 26.6892 54.8114 24.685 54.8114 22.1524C54.8114 20.418 54.1948 18.9479 52.956 17.7367L52.9505 17.7422ZM39.5492 7.35263H41.9663C45.1597 7.35263 46.7509 8.3657 46.7509 10.3974C46.7509 11.4875 46.36 12.3464 45.5836 12.9686C44.8073 13.5908 43.7392 13.9046 42.3902 13.9046H39.5492V7.35813V7.35263ZM46.6187 24.8117C45.7598 25.4779 44.5706 25.8137 43.0565 25.8137H39.5437V18.5295H43.095C44.6091 18.5295 45.7874 18.8433 46.6353 19.4765C47.4777 20.1042 47.9016 20.9741 47.9016 22.0808C47.9016 23.1875 47.4721 24.151 46.6132 24.8172L46.6187 24.8117Z" fill="white" fill-opacity="0.8"/>
<path d="M19.0895 2.76611H14.5306L0.859619 30.4055H7.47215L13.4735 18.2761H19.0895V30.4055H25.702V2.76611H19.0895ZM19.0895 12.9134H16.1273L19.0895 6.91752V12.9134Z" fill="white" fill-opacity="0.8"/>
<path d="M58.8693 19.2342V17.9679H59.7942V13.0016H58.8693V11.7352H62.2939C63.0537 11.7352 63.6153 11.7793 63.9897 11.8674C64.3586 11.9555 64.6779 12.1702 64.9477 12.5116C65.2175 12.8529 65.3552 13.2493 65.3552 13.7063C65.3552 14.4386 65.0028 14.9506 64.298 15.2535C65.1955 15.5893 65.647 16.184 65.647 17.0484C65.647 17.5439 65.5093 17.9679 65.2285 18.3257C64.9477 18.6781 64.5898 18.9204 64.1494 19.047C63.7089 19.1736 63.0922 19.2397 62.2994 19.2397H58.8748L58.8693 19.2342ZM61.7433 14.6919H62.2939C62.6738 14.6919 62.9546 14.6258 63.1363 14.4992C63.318 14.3725 63.4061 14.1413 63.4061 13.8164C63.4061 13.5191 63.318 13.3099 63.1473 13.1833C62.9711 13.0621 62.6683 13.0016 62.2333 13.0016H61.7488V14.6974L61.7433 14.6919ZM61.7433 17.9679H62.2939C62.7949 17.9679 63.1418 17.8963 63.34 17.7531C63.5382 17.61 63.6373 17.3567 63.6373 16.9933C63.6373 16.6134 63.5327 16.3436 63.318 16.195C63.1033 16.0408 62.7619 15.9637 62.2939 15.9637H61.7433V17.9679Z" fill="white" fill-opacity="0.8"/>
<path d="M66.4563 19.2342V17.9679H67.596V13.0016H66.4563V11.7352H70.6958V13.0016H69.5451V17.9679H70.6958V19.2342H66.4563Z" fill="white" fill-opacity="0.8"/>
<path d="M72.5513 19.2342V17.9679H73.68V13.0016H72.5513V14.7469H71.2629V11.7352H78.0627V14.7469H76.7908V13.0016H75.6291V17.9679H76.7578V19.2342H72.5513Z" fill="white" fill-opacity="0.8"/>
<path d="M85.1431 11.7298H86.4094V14.3726H85.1431C84.7852 13.4256 84.1575 12.9466 83.2711 12.9466C82.5388 12.9466 81.9827 13.1943 81.6083 13.6954C81.2339 14.1964 81.0467 14.7965 81.0467 15.4903C81.0467 16.184 81.2449 16.8117 81.6414 17.2632C82.0378 17.7146 82.5443 17.9404 83.161 17.9404C83.662 17.9404 84.1025 17.7697 84.4824 17.4283C84.8623 17.087 85.1156 16.6135 85.2477 16.0023L86.7233 16.7071C86.1617 18.4469 84.9284 19.3223 83.0178 19.3223C81.6689 19.3223 80.6558 18.959 79.9676 18.2322C79.2849 17.5054 78.938 16.5859 78.938 15.4737C78.938 14.6809 79.1142 13.9927 79.4721 13.398C79.8299 12.8034 80.3089 12.3574 80.9091 12.0601C81.5092 11.7573 82.1699 11.6086 82.8912 11.6086C83.7886 11.6086 84.5374 11.8399 85.1431 12.3079V11.7243V11.7298Z" fill="white" fill-opacity="0.8"/>
<path d="M91.7336 11.6141C93.0275 11.6141 94.0461 11.9885 94.7894 12.7373C95.5326 13.4861 95.9015 14.3946 95.9015 15.4737C95.9015 16.5529 95.5271 17.4669 94.7838 18.2101C94.0406 18.9534 93.022 19.3278 91.7336 19.3278C90.4452 19.3278 89.3606 18.9424 88.6448 18.1771C87.9236 17.4118 87.5657 16.5088 87.5657 15.4737C87.5657 14.4386 87.9346 13.4916 88.6724 12.7428C89.4101 11.994 90.4287 11.6196 91.7336 11.6196V11.6141ZM91.7336 12.9851C91.161 12.9851 90.671 13.1998 90.269 13.6348C89.8671 14.0642 89.6689 14.6974 89.6689 15.5343C89.6689 16.2721 89.8671 16.8612 90.2635 17.3017C90.66 17.7421 91.15 17.9679 91.7336 17.9679C92.3172 17.9679 92.7962 17.7532 93.1982 17.3182C93.6001 16.8832 93.8038 16.2611 93.8038 15.4462C93.8038 14.7139 93.6111 14.1248 93.2257 13.6733C92.8403 13.2218 92.3448 12.9961 91.7336 12.9961V12.9851Z" fill="white" fill-opacity="0.8"/>
<path d="M96.6945 19.2342V17.9679H97.8342V13.0016H96.6945V11.7352H100.934V13.0016H99.7832V17.9679H100.934V19.2342H96.6945Z" fill="white" fill-opacity="0.8"/>
<path d="M101.462 19.2342V17.9679H102.464V13.0016H101.462V11.7352H104.612L107.37 16.4097V13.0016H106.396V11.7352H109.76V13.0016H108.708V19.2893H107.034L103.797 13.7283V17.9679H104.738V19.2342H101.451H101.462Z" fill="white" fill-opacity="0.8"/>
<path d="M60.967 7.5893C60.3338 7.5893 59.8218 7.37457 59.4419 6.93961C59.062 6.50464 58.8693 5.94305 58.8693 5.24931C58.8693 4.50051 59.062 3.90588 59.4529 3.45991C59.8438 3.01393 60.3724 2.7937 61.0441 2.7937C61.6607 2.7937 62.1618 3.00843 62.5362 3.44339C62.9161 3.87285 63.1033 4.43995 63.1033 5.13369C63.1033 5.89349 62.9106 6.48813 62.5196 6.92859C62.1342 7.36906 61.6112 7.5893 60.9615 7.5893H60.967ZM61.0055 3.28372C60.5375 3.28372 60.1521 3.45991 59.8603 3.81228C59.5685 4.16466 59.4198 4.62715 59.4198 5.19976C59.4198 5.77237 59.563 6.22935 59.8493 6.58173C60.1356 6.92859 60.51 7.10478 60.967 7.10478C61.457 7.10478 61.8479 6.93961 62.1287 6.60375C62.4095 6.2734 62.5527 5.8054 62.5527 5.21077C62.5527 4.61614 62.415 4.12612 62.1397 3.79026C61.8644 3.4544 61.4845 3.28923 61 3.28923L61.0055 3.28372Z" fill="white" fill-opacity="0.8"/>
<path d="M67.5961 7.51228H66.9519L64.6449 3.81235C64.5844 3.71875 64.5403 3.62515 64.5018 3.52054H64.4853C64.5018 3.61965 64.5128 3.83437 64.5128 4.15922V7.51228H63.9897V2.87085H64.6725L66.9134 6.51572C67.007 6.66438 67.0675 6.76899 67.095 6.82405H67.1061C67.084 6.69191 67.073 6.46066 67.073 6.14132V2.87085H67.5961V7.51228Z" fill="white" fill-opacity="0.8"/>
<path d="M72.1163 7.19288C71.6648 7.45716 71.1638 7.5893 70.6187 7.5893C69.98 7.5893 69.4625 7.37457 69.0661 6.95062C68.6696 6.52116 68.4714 5.95956 68.4714 5.25482C68.4714 4.55007 68.6917 3.94442 69.1266 3.48744C69.5671 3.02495 70.1232 2.7937 70.7949 2.7937C71.2794 2.7937 71.6924 2.87629 72.0227 3.04146V3.6416C71.6593 3.40485 71.2299 3.28372 70.7343 3.28372C70.2388 3.28372 69.8204 3.46541 69.501 3.8233C69.1817 4.18118 69.022 4.64367 69.022 5.21628C69.022 5.78888 69.1707 6.26239 69.468 6.59824C69.7653 6.9341 70.1727 7.09928 70.6793 7.09928C71.0317 7.09928 71.3345 7.0277 71.5877 6.88455V5.58517H70.6077V5.09515H72.1163V7.19838V7.19288Z" fill="white" fill-opacity="0.8"/>
<path d="M66.6158 29.1998V30.4661H62.9269V29.1998H63.8849L63.527 27.9114H61.5779L61.176 29.1998H62.1781V30.4661H58.858V29.1998H59.783L61.2421 24.2335H60.2455V22.9672H65.1402V24.2335H64.1326L65.7073 29.1998H66.6048H66.6158ZM63.2242 26.8102L62.5965 24.5528L61.9248 26.8102H63.2242Z" fill="white" fill-opacity="0.8"/>
<path d="M75.2325 29.1997V30.466H72.9476L71.2518 27.179H70.3929V29.1942H71.3289V30.4605H67.4087V29.1942H68.4383V24.2279H67.4087V22.9615H71.9345C72.7879 22.9615 73.3991 23.1763 73.779 23.6057C74.1534 24.0352 74.3406 24.5197 74.3406 25.0648C74.3406 25.9182 73.9056 26.5404 73.0412 26.9313L74.258 29.1942H75.227L75.2325 29.1997ZM70.3929 25.9843H71.0591C71.8849 25.9843 72.2979 25.6869 72.2979 25.0978C72.2979 24.806 72.2043 24.5913 72.0171 24.4426C71.8299 24.2995 71.5711 24.2279 71.2353 24.2279H70.3874V25.9788L70.3929 25.9843Z" fill="white" fill-opacity="0.8"/>
<path d="M81.0576 27.95V26.6836H84.5759C84.5759 27.5921 84.4107 28.3134 84.0804 28.8474C83.75 29.3815 83.271 29.7999 82.6433 30.1028C82.0157 30.4056 81.3109 30.5598 80.5346 30.5598C79.1802 30.5598 78.1395 30.1964 77.4128 29.4696C76.686 28.7428 76.3281 27.8233 76.3281 26.7057C76.3281 25.9293 76.5098 25.2411 76.8677 24.6465C77.2256 24.0518 77.7101 23.6004 78.3212 23.303C78.9269 23.0002 79.5876 22.8516 80.2978 22.8516C81.3054 22.8516 82.0872 23.0938 82.6488 23.5838V22.9672H83.9207V25.632H82.6488C82.5167 25.1805 82.2524 24.8282 81.856 24.5694C81.4596 24.3106 81.0356 24.1785 80.5841 24.1785C79.9895 24.1785 79.4775 24.3877 79.059 24.8116C78.6406 25.2356 78.4259 25.8192 78.4259 26.568C78.4259 27.4214 78.6406 28.0766 79.07 28.5226C79.4995 28.9686 80.017 29.1943 80.6337 29.1943C81.0852 29.1943 81.4596 29.0842 81.7624 28.864C82.0597 28.6437 82.2689 28.3409 82.3846 27.9445H81.0632L81.0576 27.95Z" fill="white" fill-opacity="0.8"/>
<path d="M86.002 30.4661V29.1998H86.9049V24.2335H86.002V22.9672H92.6145V25.3457H91.1774V24.2335H88.854V25.9623H90.7315V27.2287H88.854V29.1943H91.1774V28.0711H92.6145V30.4606H86.002V30.4661Z" fill="white" fill-opacity="0.8"/>
<path d="M93.8533 30.4661V29.1998H94.8553V24.2335H93.8533V22.9672H97.0026L99.7611 27.6416V24.2335H98.7865V22.9672H102.151V24.2335H101.099V30.5212H99.4252L96.1878 24.9603V29.1998H97.1293V30.4661H93.8478H93.8533Z" fill="white" fill-opacity="0.8"/>
<path d="M104.485 30.4661V29.1998H105.614V24.2335H104.485V25.9789H103.197V22.9672H109.997V25.9789H108.725V24.2335H107.563V29.1998H108.692V30.4661H104.485Z" fill="white" fill-opacity="0.8"/>
<path d="M111.125 30.4661V29.1998H112.265V24.2335H111.125V22.9672H115.365V24.2335H114.214V29.1998H115.365V30.4661H111.125Z" fill="white" fill-opacity="0.8"/>
<path d="M116.444 30.4661V29.1998H117.446V24.2335H116.444V22.9672H119.593L122.352 27.6416V24.2335H121.377V22.9672H124.741V24.2335H123.689V30.5212H122.016L118.778 24.9603V29.1998H119.72V30.4661H116.438H116.444Z" fill="white" fill-opacity="0.8"/>
<path d="M133 29.1998V30.4661H129.311V29.1998H130.269L129.911 27.9114H127.962L127.56 29.1998H128.562V30.4661H125.242V29.1998H126.167L127.626 24.2335H126.63V22.9672H131.524V24.2335H130.517L132.091 29.1998H132.989H133ZM129.608 26.8102L128.981 24.5528L128.309 26.8102H129.608Z" fill="white" fill-opacity="0.8"/>
</g>
<defs>
<clipPath id="clip0_2143_228">
<rect width="132.14" height="32" fill="white" transform="translate(0.859619 0.585938)"/>
</clipPath>
</defs>
</svg>
