<svg width="99" height="33" viewBox="0 0 99 33" fill="none" xmlns="http://www.w3.org/2000/svg">
<path d="M66.6982 30.1199C64.9516 29.9237 63.5867 28.469 63.389 26.5928C63.3506 26.2284 63.3741 25.6443 63.4413 25.2916C63.6406 24.2452 64.2194 23.3241 65.0339 22.7572C65.7549 22.2553 66.6239 22.0319 67.5198 22.118C68.0449 22.1685 68.4361 22.2754 68.8641 22.4854C69.22 22.66 69.4605 22.8322 69.7534 23.1221C70.0291 23.3949 70.231 23.6739 70.4114 24.0312C70.514 24.2342 70.6588 24.596 70.6588 24.6492C70.6588 24.6606 70.3335 24.6684 69.8627 24.6684H69.0667L68.9909 24.5378C68.7044 24.0441 68.248 23.682 67.7213 23.5306C66.4435 23.1633 65.196 24.0584 64.8934 25.5597C64.8412 25.8189 64.8415 26.4236 64.8941 26.6841C65.0479 27.4477 65.4506 28.09 66.005 28.4558C66.2139 28.5936 66.3566 28.6599 66.6112 28.7371C66.7757 28.787 66.8256 28.7923 67.1303 28.7921C67.4072 28.7919 67.4961 28.7841 67.6284 28.748C68.1988 28.5925 68.6798 28.2235 68.9834 27.7087L69.0635 27.5729H69.86H70.6565L70.6054 27.7218C70.4882 28.0638 70.2476 28.5017 70.0135 28.7996C69.3262 29.6738 68.2862 30.1532 67.1048 30.1403C66.9682 30.1389 66.7853 30.1296 66.6984 30.1199H66.6982ZM75.7078 30.1214C75.2072 30.0436 74.7909 29.8352 74.4708 29.5019C74.1234 29.1404 73.9147 28.6933 73.8304 28.1304C73.8029 27.9464 73.7978 27.6294 73.7978 26.1023V24.2923H74.5351H75.2725L75.2731 26.0318C75.2738 27.881 75.274 27.8912 75.376 28.158C75.5176 28.5285 75.8674 28.7441 76.3295 28.7458C76.8774 28.7477 77.2921 28.4408 77.4219 27.9374C77.462 27.7819 77.4637 27.7025 77.4637 26.0337V24.2923H78.2011H78.9384V27.155V30.0177H78.2327H77.5269V29.7637V29.5098L77.404 29.6261C77.1679 29.8495 76.8565 30.016 76.5342 30.0912C76.3542 30.1332 75.8925 30.1501 75.7081 30.1214H75.7078ZM81.9191 30.0927C81.5449 30.0219 81.1452 29.8475 80.8303 29.6175C79.658 28.7614 79.2928 27.04 79.9935 25.6728C80.3377 25.0011 80.9237 24.4977 81.6103 24.2838C81.904 24.1923 82.1538 24.1611 82.4879 24.1741C83.0621 24.1966 83.5242 24.3674 83.9573 24.7173L84.0784 24.8152V23.2791V21.743H84.8158H85.5531V25.8804V30.0177H84.8579H84.1627V29.7127V29.4078L84.0561 29.4986C83.7382 29.7693 83.3866 29.9596 83.0322 30.0527C82.8529 30.0999 82.7737 30.1081 82.4457 30.1139C82.1904 30.1184 82.0184 30.1115 81.9191 30.0927ZM82.9303 28.7311C83.1679 28.6746 83.3945 28.5456 83.584 28.3588C83.7871 28.1586 83.9031 27.9727 83.9961 27.6983C84.0524 27.5321 84.065 27.4587 84.0736 27.2476C84.0891 26.866 84.0156 26.5648 83.8296 26.2471C83.7206 26.0609 83.4274 25.7807 83.2421 25.6855C82.8316 25.4746 82.3761 25.4746 81.9654 25.6855C81.7553 25.7933 81.4622 26.0844 81.353 26.2937C80.9688 27.0297 81.0908 27.8752 81.6559 28.3942C82.0118 28.721 82.4667 28.8412 82.9303 28.7311ZM88.5446 30.0911C87.8292 29.9564 87.1836 29.5148 86.7673 28.8752C86.1767 27.968 86.11 26.7031 86.601 25.7236C87.0196 24.8885 87.7481 24.3389 88.6256 24.1959C88.8692 24.1562 89.3165 24.1663 89.55 24.2168C89.9724 24.3081 90.3597 24.5026 90.6586 24.7736L90.7777 24.8816V24.5869V24.2923H91.4835H92.1892V27.155V30.0177H91.4835H90.7777V29.7224V29.4272L90.6882 29.5035C90.3817 29.7648 90.0157 29.9617 89.6683 30.0523C89.4904 30.0988 89.4073 30.1075 89.0818 30.1136C88.8144 30.1187 88.6561 30.1121 88.5446 30.0911ZM89.5664 28.7311C90.0121 28.6252 90.4059 28.269 90.5939 27.8017C90.6862 27.5722 90.7216 27.3466 90.7081 27.0726C90.6935 26.7763 90.6585 26.6431 90.5212 26.3618C90.4273 26.1695 90.3914 26.1204 90.2222 25.9537C90.0859 25.8193 89.9857 25.7413 89.8782 25.6858C89.0458 25.2562 88.09 25.7262 87.8256 26.695C87.6983 27.1615 87.7821 27.7143 88.0389 28.1029C88.3839 28.6251 88.9802 28.8703 89.5664 28.7311ZM95.134 30.082C94.8679 30.0246 94.7556 29.9853 94.496 29.8589C93.7091 29.4758 93.1463 28.7132 92.9547 27.7706C92.8964 27.4838 92.9016 26.7822 92.9642 26.4954C93.0298 26.1943 93.1017 25.9861 93.2308 25.7236C93.6222 24.9273 94.3337 24.3707 95.1702 24.2063C95.39 24.1631 95.9463 24.1685 96.1709 24.2159C96.5391 24.2937 96.8934 24.4597 97.1874 24.6922L97.3401 24.8128L97.3455 23.2779L97.3509 21.743H98.0881H98.8253V25.8803V30.0177H98.1195H97.4138V29.7134V29.4091L97.2769 29.5306C97.0021 29.7743 96.6479 29.9594 96.2558 30.0641C96.0191 30.1272 95.3901 30.1373 95.134 30.082ZM96.2025 28.7305C96.9393 28.552 97.4501 27.7342 97.3307 26.9242C97.2727 26.5307 97.1106 26.2029 96.8457 25.943C96.6641 25.765 96.5165 25.6714 96.2938 25.5934C96.0753 25.5169 95.708 25.5127 95.4756 25.5841C94.949 25.7459 94.5524 26.2068 94.4321 26.797C94.3885 27.0104 94.3987 27.4329 94.4521 27.6251C94.5297 27.9051 94.6858 28.1699 94.8914 28.3708C95.2419 28.713 95.7261 28.8459 96.2025 28.7305ZM71.3119 27.155V24.2923H72.0597H72.8076V27.155V30.0177H72.0597H71.3119V27.155ZM71.3119 22.9863V22.3072H72.0597H72.8076V22.9863V23.6654H72.0597H71.3119V22.9863ZM78.3588 20.6245C77.726 20.509 77.1107 20.1643 76.6864 19.6876C76.3378 19.2959 76.0968 18.823 75.9848 18.3109C75.9228 18.0271 75.917 17.4026 75.9739 17.1213C76.1717 16.1436 76.8415 15.3209 77.7595 14.9284C78.6631 14.542 79.7947 14.6706 80.6024 15.2515C80.9071 15.4706 81.2651 15.9107 81.4345 16.2745C81.5896 16.6074 81.6952 16.9858 81.7391 17.3663C81.763 17.573 81.768 18.0525 81.7475 18.1751L81.7345 18.2535H79.5779C78.0435 18.2535 77.4213 18.26 77.4213 18.2761C77.4213 18.2886 77.4501 18.3701 77.4853 18.4574C77.6551 18.878 77.969 19.1762 78.3839 19.3111C78.5499 19.365 78.5983 19.3714 78.8433 19.3714C79.0715 19.3714 79.1435 19.3632 79.2752 19.3225C79.6032 19.2209 79.8542 19.0444 80.0029 18.8111L80.0652 18.7133L80.8499 18.7132C81.2815 18.7132 81.6347 18.7173 81.6347 18.7224C81.6347 18.7581 81.5081 19.0684 81.4338 19.2147C81.1814 19.7118 80.7597 20.1241 80.2487 20.3735C80.032 20.4793 79.8536 20.5395 79.5865 20.5972C79.3227 20.6541 78.6083 20.67 78.3588 20.6245ZM80.2573 16.9964C80.2356 16.8889 80.1058 16.6429 80.0028 16.5141C79.8135 16.2774 79.5536 16.1157 79.2348 16.0362C79.0856 15.999 79.0156 15.9936 78.7924 16.0022C78.3838 16.0178 78.1544 16.1117 77.8694 16.3801C77.7026 16.5373 77.579 16.7153 77.4961 16.9176C77.4665 16.9897 77.4423 17.0518 77.4423 17.0556C77.4423 17.0593 78.0787 17.0624 78.8565 17.0624H80.2706L80.2573 16.9964ZM84.4576 20.6442C84.4287 20.6391 84.3149 20.6198 84.2048 20.6014C83.4139 20.4689 82.7475 20.0247 82.4067 19.4027C82.3179 19.2408 82.2116 18.9338 82.1915 18.7811L82.177 18.6714H82.914H83.6511L83.729 18.7965C83.865 19.0152 84.1512 19.2043 84.4787 19.292C84.6653 19.342 85.1649 19.3416 85.374 19.2912C85.5807 19.2415 85.7729 19.1438 85.8427 19.0531C85.8942 18.9861 85.9007 18.9599 85.9007 18.8193C85.9007 18.6875 85.8926 18.6496 85.8523 18.5936C85.7464 18.4464 85.4071 18.3387 84.6811 18.2221C83.8931 18.0955 83.5601 18.0073 83.2042 17.8307C82.7347 17.5979 82.4311 17.2543 82.3496 16.8639C82.3094 16.6707 82.3187 16.3284 82.3695 16.1373C82.5597 15.4216 83.2242 14.9049 84.1522 14.7511C84.447 14.7023 85.0533 14.7018 85.3214 14.7502C86.1113 14.8929 86.6847 15.2624 87.0189 15.844C87.11 16.0025 87.202 16.2454 87.2293 16.399L87.2432 16.4773H86.486H85.7287L85.6623 16.3756C85.5841 16.2559 85.4242 16.141 85.2476 16.0776C85.0524 16.0076 84.5499 15.9968 84.3076 16.0575C84.0035 16.1337 83.8151 16.2905 83.8151 16.4673C83.8151 16.709 84.036 16.8033 85.0148 16.9797C86.1748 17.1888 86.6745 17.3753 87.0091 17.7239C87.2978 18.0248 87.4006 18.3272 87.3804 18.8161C87.3646 19.2 87.2582 19.4892 87.0201 19.7961C86.7935 20.0882 86.3884 20.358 85.9639 20.4997C85.6382 20.6085 85.4303 20.6389 84.9632 20.6463C84.7141 20.6502 84.4866 20.6493 84.4576 20.6442ZM59.8936 20.5217C59.8936 20.5165 60.4682 18.878 61.1706 16.8806C61.8729 14.8832 62.4758 13.1667 62.5102 13.0661L62.5729 12.8833H63.5062C64.3755 12.8833 64.4405 12.8858 64.454 12.9199C64.502 13.0409 67.1195 20.4965 67.1195 20.5121C67.1195 20.5232 66.7958 20.5311 66.3433 20.5311H65.5671L65.3087 19.7684L65.0502 19.0057H63.5086H61.9671L61.8966 19.2199C61.8579 19.3377 61.741 19.6809 61.6369 19.9826L61.4476 20.5311H60.6706C60.2432 20.5311 59.8936 20.5269 59.8936 20.5217ZM64.5705 17.6318C64.5705 17.6102 63.5079 14.5154 63.5023 14.5209C63.4911 14.532 62.4427 17.6013 62.4427 17.623C62.4427 17.6414 62.7073 17.6475 63.5066 17.6475C64.0917 17.6475 64.5705 17.6404 64.5705 17.6318ZM67.7305 17.6893V14.8475H68.4678H69.2052V17.6893V20.5311H68.4678H67.7305V17.6893ZM70.3639 17.6893V14.8475H71.0696H71.7753V15.112V15.3765L71.907 15.2524C72.1444 15.0286 72.437 14.8528 72.6981 14.777C73.1216 14.6542 73.7044 14.6979 74.1579 14.8866C74.9957 15.2352 75.4831 16.112 75.4831 17.2706V17.5012H74.7487H74.0143L74.0022 17.2139C73.9842 16.7882 73.9039 16.5594 73.7024 16.3593C73.5095 16.1677 73.2917 16.091 72.9446 16.0923C72.7134 16.0932 72.5496 16.1308 72.3798 16.222C72.2477 16.2929 72.0273 16.5259 71.9579 16.6681C71.8362 16.9171 71.8385 16.8758 71.8385 18.7803V20.5311H71.1012H70.3639V17.6893ZM67.7305 13.5624V12.8833H68.4678H69.2052V13.5624V14.2415H68.4678H67.7305V13.5624ZM63.3696 11.7205C63.0521 11.6732 62.8641 11.6185 62.6428 11.5089C62.0326 11.2067 61.6448 10.6848 61.4671 9.92659C61.4244 9.74437 61.4228 9.67931 61.4159 7.83181L61.4087 5.92508H62.1364H62.864V7.58477C62.864 9.25082 62.8716 9.45551 62.9411 9.67584C63.0352 9.97374 63.263 10.2058 63.5592 10.3055C63.6495 10.3359 63.7332 10.3441 63.9384 10.3427C64.2204 10.3407 64.3481 10.3102 64.5393 10.1991C64.6673 10.1246 64.8629 9.9052 64.9323 9.75801C65.0541 9.49992 65.0542 9.498 65.0546 7.6333L65.0553 5.92508H65.7821H66.5089V8.76688V11.6087H65.8137H65.1185V11.3548V11.1008L64.9956 11.2171C64.7309 11.4675 64.3863 11.6411 64.0325 11.7023C63.8672 11.7309 63.5062 11.7408 63.3699 11.7205H63.3696ZM69.8506 11.7118C69.2302 11.6266 68.6544 11.3371 68.1933 10.8785C67.7616 10.4491 67.4767 9.9238 67.3581 9.33815C67.3009 9.05601 67.3065 8.43243 67.3687 8.14558C67.6215 6.98077 68.5249 6.07924 69.6906 5.82862C69.9642 5.76978 70.5722 5.77494 70.8689 5.83862C71.1477 5.89848 71.2946 5.9472 71.5349 6.05954C72.4003 6.46417 72.9725 7.29933 73.1131 8.3628C73.145 8.60424 73.1552 9.10825 73.1312 9.2527L73.1181 9.33106H70.9601H68.8021L68.8162 9.37808C68.962 9.8619 69.3194 10.2433 69.7529 10.3776C69.975 10.4464 70.2129 10.4692 70.4156 10.441C70.6189 10.4128 70.8549 10.3378 70.9936 10.2573C71.1222 10.1826 71.2987 10.0153 71.3798 9.89106L71.4454 9.79077H72.2308H73.0163L72.9884 9.87957C72.8467 10.3313 72.5642 10.7605 72.2065 11.0676C71.8361 11.3857 71.4415 11.5739 70.939 11.6722C70.6781 11.7232 70.0895 11.7446 69.8506 11.7118ZM71.6411 8.0721C71.6339 8.03475 71.5888 7.92488 71.5407 7.82794C71.4167 7.57761 71.1815 7.34384 70.9327 7.2237C70.6737 7.09868 70.5268 7.06616 70.2269 7.06745C70.0137 7.06836 69.9477 7.07705 69.8056 7.12293C69.5166 7.21622 69.263 7.39286 69.0896 7.62172C69.0005 7.73917 68.8704 7.9822 68.8372 8.093L68.8231 8.14001H70.2387H71.6542L71.6411 8.0721ZM82.2772 11.7115C81.0934 11.5506 80.1354 10.6473 79.8615 9.43384C79.8183 9.24238 79.8124 9.16198 79.8127 8.76688C79.8127 8.40941 79.8209 8.28134 79.8518 8.14001C79.9873 7.51991 80.2595 7.01526 80.6858 6.59353C81.2553 6.0302 81.9601 5.75718 82.7723 5.78529C83.3495 5.80527 83.7816 5.94156 84.2562 6.2533C84.5092 6.41955 84.8602 6.75958 85.0233 6.99657C85.2664 7.34987 85.4481 7.79247 85.5228 8.21315C85.573 8.49625 85.5732 9.03551 85.5235 9.32061C85.3166 10.4995 84.4094 11.4406 83.2465 11.6823C83.0461 11.724 82.492 11.7407 82.2774 11.7115H82.2772ZM83.0883 10.3339C83.3034 10.2626 83.4436 10.1732 83.626 9.99098C83.8209 9.79619 83.9372 9.59598 84.0279 9.29869C84.079 9.13133 84.0851 9.0776 84.0864 8.78778C84.0876 8.51404 84.0804 8.4364 84.04 8.28628C83.8819 7.69964 83.4975 7.28577 82.9915 7.15741C82.5043 7.03384 81.997 7.20393 81.6597 7.60393C81.5511 7.73273 81.3757 8.08028 81.3311 8.25494C81.2336 8.6374 81.2471 9.04128 81.3693 9.39803C81.4625 9.66997 81.5496 9.80995 81.7505 10.0102C81.9376 10.1967 82.0925 10.2852 82.3547 10.3557C82.558 10.4104 82.887 10.4006 83.0883 10.3339ZM88.2286 11.7111C87.4404 11.6239 86.7357 11.2464 86.3436 10.7015C86.2156 10.5235 86.0717 10.2165 86.0181 10.0067C85.9441 9.71736 85.8582 9.74897 86.7184 9.74897H87.4624L87.4981 9.8232C87.5877 10.0096 87.8479 10.2147 88.1196 10.3131C88.6274 10.4969 89.4201 10.3969 89.6385 10.1214C89.7203 10.0183 89.7325 9.81752 89.6646 9.69236C89.5748 9.52674 89.2394 9.41512 88.4553 9.28988C87.3584 9.11469 86.8739 8.93157 86.4901 8.54721C86.2255 8.28219 86.1228 8.01916 86.1222 7.6053C86.1212 6.83715 86.5951 6.24858 87.4639 5.93901C87.7779 5.82709 88.0472 5.79014 88.5446 5.79072C88.9322 5.79118 89.0287 5.79793 89.2132 5.8376C90.1255 6.03372 90.7794 6.58204 90.9869 7.32492C91.0587 7.58179 91.1421 7.55494 90.2725 7.55494H89.5146L89.4727 7.4736C89.3927 7.318 89.1747 7.17525 88.9238 7.11409C88.7561 7.07321 88.2759 7.079 88.1022 7.12399C87.7608 7.21243 87.5542 7.41649 87.6165 7.60373C87.6838 7.80577 87.8809 7.87995 88.7941 8.04686C89.6565 8.20446 90.0384 8.31062 90.3727 8.48561C90.8009 8.70977 91.0607 9.0259 91.1464 9.42692C91.1854 9.60947 91.1862 9.98959 91.148 10.1669C90.9729 10.9788 90.216 11.564 89.1608 11.7033C88.9163 11.7356 88.4825 11.7392 88.2286 11.7111ZM54.5847 7.77421V3.9375L56.5703 3.94533C58.71 3.95378 58.7122 3.95388 59.1036 4.06831C59.7966 4.27094 60.2535 4.76116 60.4054 5.46517C60.4578 5.70848 60.4675 6.23992 60.4231 6.43703C60.3333 6.83522 60.0798 7.24099 59.7777 7.47012C59.7182 7.51529 59.7168 7.51943 59.7543 7.54173C60.132 7.76622 60.345 7.97908 60.524 8.31086C60.6826 8.60489 60.7573 8.9424 60.7568 9.36241C60.7559 10.0391 60.5493 10.5676 60.1312 10.9628C59.7962 11.2794 59.4396 11.4526 58.9034 11.559C58.744 11.5906 58.4972 11.5954 56.6545 11.6027L54.5847 11.6109V7.77421ZM58.4319 10.2393C58.9064 10.1578 59.1816 9.89514 59.2447 9.46335C59.2736 9.26598 59.2498 9.05799 59.1762 8.8628C59.1153 8.70131 58.9391 8.51507 58.7698 8.43327C58.4876 8.29686 58.4862 8.29673 57.2076 8.29673H56.0489L56.0434 9.25793C56.0404 9.78659 56.0424 10.2309 56.048 10.2452C56.0643 10.2875 58.1816 10.2822 58.4319 10.2393ZM58.4466 6.90684C58.8061 6.79671 59.0298 6.48822 59.0298 6.1027C59.0298 5.73621 58.8529 5.46604 58.5275 5.33552C58.409 5.28802 58.402 5.28774 57.2234 5.28173L56.0383 5.27568V6.11232V6.94896H57.1737C58.2527 6.94896 58.316 6.94687 58.4466 6.90684ZM73.9452 8.76688V5.92508H74.6404H75.3357V6.18824V6.45139L75.486 6.3133C75.7525 6.06863 75.9958 5.9297 76.3225 5.83568C76.4628 5.79532 76.5305 5.78953 76.8419 5.79128C77.1555 5.79304 77.2253 5.79995 77.4027 5.84684C78.2278 6.06487 78.7611 6.65101 78.9856 7.58628C79.0297 7.77014 79.0309 7.81721 79.0379 9.69151L79.0451 11.6087H78.3175H77.5898V9.93181C77.5898 8.14637 77.5834 8.01428 77.4866 7.76169C77.3258 7.34181 76.9513 7.12959 76.4325 7.16432C76.1195 7.18528 75.9027 7.28352 75.7071 7.49309C75.5801 7.62913 75.5122 7.74449 75.4492 7.93106C75.4129 8.03847 75.4099 8.16244 75.4039 9.82733L75.3975 11.6087H74.6714H73.9454V8.76688H73.9452Z" fill="white" fill-opacity="0.8"/>
<path d="M29.989 32.5736C28.9353 32.4828 27.9428 32.0256 27.191 31.2846C26.9862 31.0828 26.8061 30.8668 26.6398 30.6237C26.5729 30.526 26.5118 30.4435 26.5039 30.4404C26.496 30.4373 26.2646 30.5435 25.9896 30.6763C24.5372 31.3776 22.7715 31.9013 21.0251 32.1487C20.6256 32.2052 20.3424 32.2364 19.6557 32.2993C19.2855 32.3332 5.33302 32.3496 4.94046 32.3166C3.89407 32.2286 2.94881 31.8008 2.19424 31.0736C1.79096 30.685 1.51069 30.3029 1.27403 29.8192C1.0745 29.4113 0.973545 29.1019 0.87863 28.6072C0.84688 28.4606 0.830528 28.2969 0.834374 28.1399L0.827264 16.8535C0.822135 8.71789 0.826671 5.25891 0.842736 5.08926C0.926071 4.20833 1.26895 3.37148 1.82729 2.68627C2.00252 2.47122 2.39505 2.09689 2.61961 1.93069C3.2053 1.4972 3.82874 1.23385 4.60339 1.09272L4.85619 1.04666L11.25 1.03987C17.5317 1.03321 18.1568 1.03812 18.8552 1.09959C20.5634 1.24993 22.2745 1.68546 23.8164 2.36244C24.1711 2.51818 24.8562 2.85819 25.1236 3.01117C27.0385 4.1071 28.4189 6.02823 28.8304 8.17004C28.9223 8.64855 28.9487 8.90889 28.9609 9.45722C28.9735 10.0228 28.9548 10.3487 28.8823 10.8218C28.6801 12.1429 28.1207 13.4038 27.2681 14.4609C26.9257 14.8855 26.2724 15.5121 25.8859 15.7867C25.8306 15.826 25.7927 15.8649 25.8016 15.8731C25.8105 15.8814 25.9573 15.9494 26.1277 16.0243C27.5932 16.6679 28.8764 17.7898 29.7122 19.1581C29.8458 19.377 29.8508 19.3822 29.8796 19.3357C29.896 19.3094 31.7456 15.7683 33.9899 11.4667C36.2342 7.16511 38.1285 3.55042 38.1994 3.43407C38.4687 2.99186 38.883 2.49152 39.2619 2.1509C40.2021 1.30566 41.263 0.812554 42.5449 0.625044C42.9012 0.572928 43.7893 0.572896 44.146 0.624984C44.8624 0.729599 45.4216 0.900779 46.0324 1.20239C47.139 1.74886 48.0301 2.59851 48.6296 3.67881C48.7517 3.89875 60.1452 25.7238 60.3714 26.1711C60.5929 26.6088 60.7372 27.1083 60.8007 27.6563C60.8325 27.9308 60.8153 28.5733 60.7687 28.8475C60.5939 29.8777 60.0613 30.8209 59.2752 31.4929C57.5717 32.949 55.0761 32.9504 53.3733 31.4963C52.8892 31.0829 52.5737 30.6681 52.2406 30.0071C52.1421 29.8116 52.005 29.5766 51.9359 29.4847C51.5743 29.0043 51.0619 28.6841 50.4661 28.5664C50.3135 28.5362 49.6315 28.5336 43.2717 28.5389L36.2459 28.5447L36.0465 28.6029C35.8083 28.6724 35.5117 28.8084 35.327 28.9328C35.12 29.0723 34.8347 29.3579 34.6938 29.5668C34.6243 29.6698 34.5131 29.8675 34.4467 30.0061C33.7501 31.4591 32.3805 32.4179 30.7896 32.5662C30.5726 32.5864 30.1804 32.59 29.989 32.5736Z" fill="white" fill-opacity="0.8"/>
</svg>
