<svg width="48" height="48" viewBox="0 0 48 48" fill="none" xmlns="http://www.w3.org/2000/svg">
<rect x="0.5" y="0.5" width="47" height="47" rx="15.5" fill="url(#paint0_linear_2056_322)"/>
<rect x="0.5" y="0.5" width="47" height="47" rx="15.5" stroke="#713A07"/>
<path d="M19 35C18.45 35 17.9792 34.8042 17.5875 34.4125C17.1958 34.0208 17 33.55 17 33V15C17 14.45 17.1958 13.9792 17.5875 13.5875C17.9792 13.1958 18.45 13 19 13H29C29.55 13 30.0208 13.1958 30.4125 13.5875C30.8042 13.9792 31 14.45 31 15V18.1C31.3 18.2167 31.5417 18.4 31.725 18.65C31.9083 18.9 32 19.1833 32 19.5V21.5C32 21.8167 31.9083 22.1 31.725 22.35C31.5417 22.6 31.3 22.7833 31 22.9V33C31 33.55 30.8042 34.0208 30.4125 34.4125C30.0208 34.8042 29.55 35 29 35H19ZM19 33H29V15H19V33ZM22 32H26C26.2833 32 26.5208 31.9042 26.7125 31.7125C26.9042 31.5208 27 31.2833 27 31C27 30.7167 26.9042 30.4792 26.7125 30.2875C26.5208 30.0958 26.2833 30 26 30H22C21.7167 30 21.4792 30.0958 21.2875 30.2875C21.0958 30.4792 21 30.7167 21 31C21 31.2833 21.0958 31.5208 21.2875 31.7125C21.4792 31.9042 21.7167 32 22 32Z" fill="white"/>
<defs>
<linearGradient id="paint0_linear_2056_322" x1="24" y1="0" x2="24" y2="48" gradientUnits="userSpaceOnUse">
<stop stop-color="#D46F11"/>
<stop offset="1" stop-color="#A0540D"/>
</linearGradient>
</defs>
</svg>
