<svg width="48" height="48" viewBox="0 0 48 48" fill="none" xmlns="http://www.w3.org/2000/svg">
<rect x="0.5" y="0.5" width="47" height="47" rx="15.5" fill="url(#paint0_linear_2056_329)"/>
<rect x="0.5" y="0.5" width="47" height="47" rx="15.5" stroke="#533213"/>
<path d="M19 30C17.3333 30 15.9167 29.4167 14.75 28.25C13.5833 27.0833 13 25.6667 13 24C13 22.3333 13.5833 20.9167 14.75 19.75C15.9167 18.5833 17.3333 18 19 18H29C30.6667 18 32.0833 18.5833 33.25 19.75C34.4167 20.9167 35 22.3333 35 24C35 25.6667 34.4167 27.0833 33.25 28.25C32.0833 29.4167 30.6667 30 29 30H19ZM19 28H29C30.1 28 31.0417 27.6083 31.825 26.825C32.6083 26.0417 33 25.1 33 24C33 22.9 32.6083 21.9583 31.825 21.175C31.0417 20.3917 30.1 20 29 20H19C17.9 20 16.9583 20.3917 16.175 21.175C15.3917 21.9583 15 22.9 15 24C15 25.1 15.3917 26.0417 16.175 26.825C16.9583 27.6083 17.9 28 19 28ZM29 27C29.8333 27 30.5417 26.7083 31.125 26.125C31.7083 25.5417 32 24.8333 32 24C32 23.1667 31.7083 22.4583 31.125 21.875C30.5417 21.2917 29.8333 21 29 21C28.1667 21 27.4583 21.2917 26.875 21.875C26.2917 22.4583 26 23.1667 26 24C26 24.8333 26.2917 25.5417 26.875 26.125C27.4583 26.7083 28.1667 27 29 27Z" fill="white"/>
<defs>
<linearGradient id="paint0_linear_2056_329" x1="24" y1="0" x2="24" y2="48" gradientUnits="userSpaceOnUse">
<stop stop-color="#BE7735"/>
<stop offset="1" stop-color="#865426"/>
</linearGradient>
</defs>
</svg>
