<svg viewBox="0 0 300 200" fill="none" xmlns="http://www.w3.org/2000/svg">
<g clip-path="url(#clip0_2320_4991)">
<ellipse cx="150" cy="58.5" rx="150" ry="64.5" fill="url(#paint0_radial_2320_4991)"/>
<mask id="path-2-inside-1_2320_4991" fill="white">
<path d="M34 36.8431C34 33.6161 36.6161 31 39.8431 31H261.157C264.384 31 267 33.6161 267 36.8431V313H34V36.8431Z"/>
</mask>
<path d="M34 36.8431C34 33.6161 36.6161 31 39.8431 31H261.157C264.384 31 267 33.6161 267 36.8431V313H34V36.8431Z" fill="#303030"/>
<path d="M32.5392 36.8431C32.5392 32.8093 35.8093 29.5392 39.8431 29.5392H261.157C265.191 29.5392 268.461 32.8093 268.461 36.8431H265.539C265.539 34.4228 263.577 32.4608 261.157 32.4608H39.8431C37.4228 32.4608 35.4608 34.4228 35.4608 36.8431H32.5392ZM35.4608 36.8431M267 313H34H267M32.5392 313V36.8431C32.5392 32.8093 35.8093 29.5392 39.8431 29.5392V32.4608C37.4228 32.4608 35.4608 34.4228 35.4608 36.8431V313H32.5392ZM261.157 29.5392C265.191 29.5392 268.461 32.8093 268.461 36.8431V313H265.539V36.8431C265.539 34.4228 263.577 32.4608 261.157 32.4608V29.5392Z" fill="url(#paint1_linear_2320_4991)" fill-opacity="0.15" mask="url(#path-2-inside-1_2320_4991)"/>
<rect x="59.2009" y="57.2939" width="113.941" height="11.6863" rx="5.84314" fill="#BCBCBC"/>
<rect x="59.2009" y="74.8237" width="73.0392" height="5.84314" rx="2.92157" fill="#BCBCBC"/>
<rect x="135.162" y="74.8237" width="5.84314" height="5.84314" rx="2.92157" fill="#BCBCBC"/>
<rect x="143.927" y="74.8237" width="5.84314" height="5.84314" rx="2.92157" fill="#BCBCBC"/>
<rect x="59.2009" y="114.265" width="64.2745" height="2.92157" rx="1.46078" fill="#505050"/>
<rect x="59.2009" y="105.5" width="113.941" height="2.92157" rx="1.46078" fill="#BCBCBC"/>
<rect x="176.064" y="105.5" width="14.6078" height="2.92157" rx="1.46078" fill="#BCBCBC"/>
<rect x="59.2009" y="123.029" width="73.0392" height="2.92157" rx="1.46078" fill="#505050"/>
<rect x="59.2009" y="184" width="113.941" height="2.92157" rx="1.46078" fill="#BCBCBC" fill-opacity="0.35"/>
<rect x="59.2009" y="192.765" width="64.2745" height="2.92157" rx="1.46078" fill="#505050" fill-opacity="0.35"/>
<rect x="176.064" y="184" width="14.6078" height="2.92157" rx="1.46078" fill="#BCBCBC" fill-opacity="0.35"/>
<rect x="59.2009" y="149.324" width="81.8039" height="2.92157" rx="1.46078" fill="#505050"/>
<rect x="151.23" y="140.559" width="11.6863" height="2.92157" rx="1.46078" fill="#BCBCBC"/>
<rect x="59.2009" y="140.559" width="89.1078" height="2.92157" rx="1.46078" fill="#BCBCBC"/>
<rect x="59.2009" y="158.088" width="73.0392" height="2.92157" rx="1.46078" fill="#505050"/>
<rect x="59.2009" y="166.853" width="73.0392" height="2.92157" rx="1.46078" fill="#505050"/>
</g>
<defs>
<radialGradient id="paint0_radial_2320_4991" cx="0" cy="0" r="1" gradientTransform="matrix(0 63.9189 -191 -4.84051 150 59.0811)" gradientUnits="userSpaceOnUse">
<stop stop-color="#EF801A"/>
<stop offset="0.855769" stop-color="#161616" stop-opacity="0"/>
</radialGradient>
<linearGradient id="paint1_linear_2320_4991" x1="150.5" y1="31" x2="150.5" y2="313" gradientUnits="userSpaceOnUse">
<stop stop-color="#EBAA6F"/>
<stop offset="0.798077" stop-color="#181818"/>
</linearGradient>
<clipPath id="clip0_2320_4991">
<rect width="300" height="200" fill="white"/>
</clipPath>
</defs>
</svg>
