<svg viewBox="0 0 300 200" fill="none" xmlns="http://www.w3.org/2000/svg">
<ellipse cx="150" cy="100" rx="128.571" ry="55.2857" fill="url(#paint0_radial_2330_1575)"/>
<g filter="url(#filter0_d_2330_1575)">
<rect x="56.5715" y="75.5713" width="187.714" height="48" rx="10.2857" fill="#EF801A" shape-rendering="crispEdges"/>
<rect x="56.5715" y="75.5713" width="187.714" height="48" rx="10.2857" fill="url(#paint1_linear_2330_1575)" fill-opacity="0.2" shape-rendering="crispEdges"/>
<rect x="57.0001" y="75.9999" width="186.857" height="47.1429" rx="9.85714" stroke="#934B0A" stroke-width="0.857143" shape-rendering="crispEdges"/>
<path d="M122 104.714C121.529 104.714 121.125 104.547 120.79 104.211C120.454 103.876 120.286 103.472 120.286 103V101.929C119.471 101.371 118.839 100.657 118.39 99.7857C117.94 98.9143 117.715 97.9857 117.714 97C117.714 95.3286 118.297 93.9109 119.461 92.7469C120.626 91.5829 122.043 91.0006 123.714 91C125.385 90.9994 126.803 91.5817 127.968 92.7469C129.133 93.912 129.715 95.3297 129.714 97C129.714 97.9857 129.489 98.9109 129.039 99.7754C128.589 100.64 127.957 101.358 127.143 101.929V103C127.143 103.471 126.975 103.875 126.64 104.211C126.304 104.547 125.901 104.715 125.429 104.714H122ZM122 108.143C121.757 108.143 121.554 108.061 121.39 107.896C121.226 107.731 121.143 107.528 121.143 107.286C121.142 107.043 121.225 106.84 121.39 106.675C121.555 106.511 121.758 106.429 122 106.429H125.429C125.671 106.429 125.875 106.511 126.04 106.675C126.204 106.84 126.286 107.043 126.286 107.286C126.285 107.528 126.203 107.732 126.039 107.897C125.875 108.062 125.671 108.144 125.429 108.143H122Z" fill="url(#paint2_linear_2330_1575)"/>
<path d="M147.981 97.4995H146.272C146.206 97.1342 146.084 96.8128 145.905 96.5352C145.726 96.2576 145.506 96.022 145.247 95.8284C144.988 95.6348 144.697 95.4887 144.376 95.3901C144.058 95.2915 143.72 95.2421 143.362 95.2421C142.716 95.2421 142.137 95.4047 141.626 95.7298C141.118 96.0549 140.716 96.5315 140.42 97.1598C140.128 97.788 139.982 98.5551 139.982 99.4609C139.982 100.374 140.128 101.145 140.42 101.773C140.716 102.401 141.12 102.876 141.631 103.198C142.142 103.519 142.718 103.68 143.357 103.68C143.711 103.68 144.047 103.632 144.365 103.537C144.686 103.439 144.977 103.294 145.236 103.104C145.495 102.914 145.715 102.682 145.894 102.409C146.076 102.131 146.202 101.813 146.272 101.455L147.981 101.461C147.89 102.012 147.713 102.52 147.45 102.984C147.19 103.444 146.856 103.842 146.447 104.178C146.042 104.511 145.578 104.768 145.055 104.951C144.533 105.133 143.963 105.225 143.346 105.225C142.374 105.225 141.509 104.995 140.749 104.534C139.989 104.07 139.39 103.408 138.952 102.546C138.517 101.684 138.3 100.655 138.3 99.4609C138.3 98.2628 138.519 97.2346 138.957 96.3763C139.396 95.5143 139.995 94.8531 140.754 94.3929C141.514 93.929 142.378 93.6971 143.346 93.6971C143.941 93.6971 144.496 93.7829 145.012 93.9546C145.53 94.1226 145.996 94.371 146.409 94.6997C146.821 95.0248 147.163 95.423 147.433 95.8941C147.703 96.3617 147.886 96.8968 147.981 97.4995ZM149.875 105.071V96.6557H151.459V97.9926H151.546C151.7 97.5396 151.97 97.1835 152.357 96.9242C152.748 96.6612 153.19 96.5297 153.683 96.5297C153.785 96.5297 153.906 96.5333 154.045 96.5406C154.187 96.548 154.299 96.5571 154.379 96.568V98.135C154.313 98.1167 154.196 98.0967 154.028 98.0747C153.86 98.0492 153.692 98.0364 153.524 98.0364C153.137 98.0364 152.792 98.1186 152.489 98.2829C152.189 98.4437 151.952 98.6683 151.777 98.9568C151.601 99.2417 151.514 99.5668 151.514 99.9321V105.071H149.875ZM159.122 105.241C158.293 105.241 157.579 105.064 156.98 104.71C156.385 104.352 155.925 103.849 155.599 103.203C155.278 102.553 155.117 101.791 155.117 100.918C155.117 100.056 155.278 99.2965 155.599 98.6391C155.925 97.9816 156.377 97.4684 156.958 97.0995C157.543 96.7306 158.226 96.5461 159.007 96.5461C159.482 96.5461 159.942 96.6247 160.388 96.7817C160.834 96.9388 161.234 97.1853 161.588 97.5214C161.942 97.8574 162.222 98.2939 162.426 98.8308C162.631 99.3641 162.733 100.012 162.733 100.776V101.357H156.043V100.129H161.128C161.128 99.6983 161.04 99.3166 160.865 98.9842C160.689 98.6482 160.443 98.3834 160.125 98.1898C159.811 97.9962 159.442 97.8994 159.018 97.8994C158.558 97.8994 158.156 98.0126 157.813 98.2391C157.473 98.4619 157.21 98.7541 157.024 99.1157C156.841 99.4737 156.75 99.8627 156.75 100.283V101.242C156.75 101.804 156.849 102.283 157.046 102.677C157.247 103.071 157.526 103.373 157.884 103.581C158.242 103.786 158.66 103.888 159.139 103.888C159.449 103.888 159.732 103.844 159.988 103.756C160.244 103.665 160.465 103.53 160.651 103.351C160.837 103.172 160.98 102.951 161.078 102.688L162.629 102.967C162.505 103.424 162.282 103.824 161.96 104.167C161.643 104.507 161.243 104.772 160.761 104.962C160.282 105.148 159.736 105.241 159.122 105.241ZM167 105.258C166.466 105.258 165.984 105.159 165.553 104.962C165.122 104.761 164.781 104.47 164.529 104.091C164.28 103.711 164.156 103.245 164.156 102.693C164.156 102.219 164.247 101.828 164.43 101.521C164.613 101.214 164.859 100.971 165.17 100.792C165.48 100.613 165.827 100.478 166.211 100.387C166.594 100.296 166.985 100.226 167.383 100.179C167.887 100.12 168.296 100.073 168.61 100.036C168.925 99.996 169.153 99.9321 169.295 99.8444C169.438 99.7568 169.509 99.6143 169.509 99.4171V99.3787C169.509 98.9002 169.374 98.5295 169.104 98.2665C168.837 98.0035 168.439 97.872 167.909 97.872C167.358 97.872 166.923 97.9944 166.605 98.2391C166.291 98.4802 166.074 98.7486 165.953 99.0445L164.414 98.6939C164.596 98.1825 164.863 97.7697 165.214 97.4556C165.568 97.1378 165.975 96.9077 166.435 96.7653C166.896 96.6192 167.38 96.5461 167.887 96.5461C168.223 96.5461 168.579 96.5863 168.956 96.6667C169.336 96.7434 169.69 96.8858 170.019 97.094C170.351 97.3022 170.623 97.5999 170.835 97.9871C171.047 98.3706 171.153 98.8692 171.153 99.4828V105.071H169.553V103.921H169.487C169.381 104.133 169.222 104.341 169.01 104.545C168.799 104.75 168.526 104.92 168.194 105.055C167.862 105.19 167.464 105.258 167 105.258ZM167.356 103.943C167.809 103.943 168.196 103.853 168.517 103.674C168.842 103.495 169.089 103.261 169.257 102.973C169.429 102.681 169.514 102.368 169.514 102.036V100.951C169.456 101.01 169.343 101.064 169.175 101.116C169.01 101.163 168.822 101.205 168.61 101.242C168.399 101.274 168.192 101.305 167.991 101.335C167.79 101.36 167.622 101.382 167.487 101.4C167.17 101.441 166.879 101.508 166.616 101.603C166.357 101.698 166.149 101.835 165.992 102.014C165.838 102.189 165.761 102.423 165.761 102.715C165.761 103.121 165.911 103.428 166.211 103.636C166.51 103.84 166.892 103.943 167.356 103.943ZM177.263 96.6557V97.9706H172.666V96.6557H177.263ZM173.899 94.6395H175.537V102.6C175.537 102.918 175.585 103.157 175.68 103.318C175.775 103.475 175.897 103.583 176.047 103.641C176.2 103.696 176.366 103.723 176.545 103.723C176.677 103.723 176.792 103.714 176.89 103.696C176.989 103.678 177.066 103.663 177.121 103.652L177.416 105.006C177.321 105.042 177.186 105.079 177.011 105.115C176.836 105.155 176.617 105.177 176.354 105.181C175.923 105.188 175.521 105.111 175.148 104.951C174.776 104.79 174.474 104.542 174.244 104.206C174.014 103.87 173.899 103.448 173.899 102.94V94.6395ZM182.612 105.241C181.783 105.241 181.069 105.064 180.47 104.71C179.874 104.352 179.414 103.849 179.089 103.203C178.767 102.553 178.607 101.791 178.607 100.918C178.607 100.056 178.767 99.2965 179.089 98.6391C179.414 97.9816 179.867 97.4684 180.448 97.0995C181.032 96.7306 181.715 96.5461 182.497 96.5461C182.972 96.5461 183.432 96.6247 183.877 96.7817C184.323 96.9388 184.723 97.1853 185.077 97.5214C185.432 97.8574 185.711 98.2939 185.916 98.8308C186.12 99.3641 186.222 100.012 186.222 100.776V101.357H179.533V100.129H184.617C184.617 99.6983 184.529 99.3166 184.354 98.9842C184.179 98.6482 183.932 98.3834 183.614 98.1898C183.3 97.9962 182.931 97.8994 182.508 97.8994C182.047 97.8994 181.646 98.0126 181.302 98.2391C180.963 98.4619 180.7 98.7541 180.513 99.1157C180.331 99.4737 180.239 99.8627 180.239 100.283V101.242C180.239 101.804 180.338 102.283 180.535 102.677C180.736 103.071 181.016 103.373 181.374 103.581C181.732 103.786 182.15 103.888 182.628 103.888C182.939 103.888 183.222 103.844 183.477 103.756C183.733 103.665 183.954 103.53 184.14 103.351C184.327 103.172 184.469 102.951 184.568 102.688L186.118 102.967C185.994 103.424 185.771 103.824 185.45 104.167C185.132 104.507 184.732 104.772 184.25 104.962C183.771 105.148 183.225 105.241 182.612 105.241Z" fill="black"/>
</g>
<rect x="37.7143" y="63.5712" width="224.571" height="72.8571" rx="18.8571" stroke="#934B0A" stroke-opacity="0.25" stroke-width="3.42857"/>
<rect x="22.7142" y="51.1426" width="254.571" height="97.7143" rx="26.1429" stroke="#934B0A" stroke-opacity="0.15" stroke-width="2.57143"/>
<rect x="9.42868" y="40.4284" width="281.143" height="119.143" rx="36.8571" stroke="#934B0A" stroke-opacity="0.1" stroke-width="1.71429"/>
<rect x="0.428571" y="31.4286" width="299.143" height="137.143" rx="40.7143" stroke="#934B0A" stroke-opacity="0.05" stroke-width="0.857143"/>
<defs>
<filter id="filter0_d_2330_1575" x="43.1144" y="62.1141" width="214.629" height="74.9143" filterUnits="userSpaceOnUse" color-interpolation-filters="sRGB">
<feFlood flood-opacity="0" result="BackgroundImageFix"/>
<feColorMatrix in="SourceAlpha" type="matrix" values="0 0 0 0 0 0 0 0 0 0 0 0 0 0 0 0 0 0 127 0" result="hardAlpha"/>
<feOffset/>
<feGaussianBlur stdDeviation="6.72857"/>
<feComposite in2="hardAlpha" operator="out"/>
<feColorMatrix type="matrix" values="0 0 0 0 0.5344 0 0 0 0 0.27116 0 0 0 0 0.029264 0 0 0 1 0"/>
<feBlend mode="normal" in2="BackgroundImageFix" result="effect1_dropShadow_2330_1575"/>
<feBlend mode="normal" in="SourceGraphic" in2="effect1_dropShadow_2330_1575" result="shape"/>
</filter>
<radialGradient id="paint0_radial_2330_1575" cx="0" cy="0" r="1" gradientTransform="matrix(0 54.7876 -163.714 -4.14901 150 100.498)" gradientUnits="userSpaceOnUse">
<stop stop-color="#EF801A"/>
<stop offset="0.855769" stop-color="#161616" stop-opacity="0"/>
</radialGradient>
<linearGradient id="paint1_linear_2330_1575" x1="150.429" y1="123.571" x2="150.429" y2="77.4463" gradientUnits="userSpaceOnUse">
<stop stop-color="white" stop-opacity="0"/>
<stop offset="0.95" stop-color="white" stop-opacity="0"/>
<stop offset="1" stop-color="white"/>
</linearGradient>
<linearGradient id="paint2_linear_2330_1575" x1="123.714" y1="91" x2="123.714" y2="108.143" gradientUnits="userSpaceOnUse">
<stop stop-color="#343333"/>
<stop offset="1"/>
</linearGradient>
</defs>
</svg>
