<svg viewBox="0 0 600 200" fill="none" xmlns="http://www.w3.org/2000/svg">
<ellipse cx="300" cy="100.5" rx="150" ry="64.5" fill="url(#paint0_radial_2328_8031)"/>
<g filter="url(#filter0_d_2328_8031)">
<rect x="191" y="72" width="219" height="56" rx="12" fill="#EF801A" shape-rendering="crispEdges"/>
<rect x="191" y="72" width="219" height="56" rx="12" fill="url(#paint1_linear_2328_8031)" fill-opacity="0.2" shape-rendering="crispEdges"/>
<rect x="191.5" y="72.5" width="218" height="55" rx="11.5" stroke="#934B0A" shape-rendering="crispEdges"/>
<path d="M267.5 106C266.95 106 266.479 105.804 266.088 105.413C265.697 105.022 265.501 104.551 265.5 104V102.75C264.55 102.1 263.813 101.267 263.288 100.25C262.763 99.2333 262.501 98.15 262.5 97C262.5 95.05 263.179 93.396 264.538 92.038C265.897 90.68 267.551 90.0007 269.5 90C271.449 89.9993 273.104 90.6787 274.463 92.038C275.822 93.3973 276.501 95.0513 276.5 97C276.5 98.15 276.237 99.2293 275.712 100.238C275.187 101.247 274.449 102.084 273.5 102.75V104C273.5 104.55 273.304 105.021 272.913 105.413C272.522 105.805 272.051 106.001 271.5 106H267.5ZM267.5 110C267.217 110 266.979 109.904 266.788 109.712C266.597 109.52 266.501 109.283 266.5 109C266.499 108.717 266.595 108.48 266.788 108.288C266.981 108.096 267.218 108 267.5 108H271.5C271.783 108 272.021 108.096 272.213 108.288C272.405 108.48 272.501 108.717 272.5 109C272.499 109.283 272.403 109.52 272.212 109.713C272.021 109.906 271.783 110.001 271.5 110H267.5Z" fill="url(#paint2_linear_2328_8031)"/>
<path d="M297.811 98.1662H295.817C295.74 97.7401 295.597 97.3651 295.388 97.0412C295.18 96.7173 294.924 96.4425 294.621 96.2166C294.319 95.9908 293.98 95.8203 293.605 95.7053C293.234 95.5902 292.84 95.5327 292.423 95.5327C291.668 95.5327 290.993 95.7223 290.396 96.1016C289.804 96.4808 289.335 97.0369 288.99 97.7699C288.649 98.5028 288.479 99.3977 288.479 100.455C288.479 101.52 288.649 102.419 288.99 103.152C289.335 103.885 289.806 104.439 290.403 104.814C290.999 105.189 291.67 105.376 292.416 105.376C292.83 105.376 293.222 105.321 293.592 105.21C293.967 105.095 294.306 104.927 294.609 104.705C294.911 104.484 295.167 104.213 295.376 103.893C295.589 103.57 295.736 103.199 295.817 102.781L297.811 102.788C297.705 103.431 297.498 104.023 297.191 104.565C296.888 105.102 296.499 105.566 296.021 105.958C295.548 106.346 295.007 106.646 294.398 106.859C293.788 107.072 293.124 107.179 292.403 107.179C291.27 107.179 290.26 106.911 289.374 106.374C288.487 105.832 287.788 105.059 287.277 104.053C286.77 103.048 286.516 101.848 286.516 100.455C286.516 99.0568 286.772 97.8572 287.283 96.8558C287.795 95.8501 288.494 95.0788 289.38 94.5419C290.266 94.0007 291.274 93.7301 292.403 93.7301C293.098 93.7301 293.746 93.8303 294.347 94.0305C294.952 94.2266 295.495 94.5163 295.977 94.8999C296.458 95.2791 296.857 95.7436 297.172 96.2933C297.487 96.8388 297.7 97.4631 297.811 98.1662ZM300.021 107V97.1818H301.868V98.7415H301.971C302.15 98.2131 302.465 97.7976 302.917 97.495C303.373 97.1882 303.888 97.0348 304.464 97.0348C304.583 97.0348 304.724 97.0391 304.885 97.0476C305.052 97.0561 305.182 97.0668 305.275 97.0795V98.9077C305.199 98.8864 305.062 98.8629 304.866 98.8374C304.67 98.8075 304.474 98.7926 304.278 98.7926C303.827 98.7926 303.424 98.8885 303.07 99.0803C302.721 99.2678 302.444 99.5298 302.239 99.8665C302.035 100.199 301.932 100.578 301.932 101.004V107H300.021ZM310.809 107.198C309.842 107.198 309.009 106.991 308.31 106.578C307.615 106.161 307.078 105.575 306.699 104.82C306.324 104.062 306.137 103.173 306.137 102.155C306.137 101.149 306.324 100.263 306.699 99.4957C307.078 98.7287 307.607 98.13 308.284 97.6996C308.966 97.2692 309.763 97.054 310.675 97.054C311.229 97.054 311.766 97.1456 312.286 97.3288C312.806 97.5121 313.272 97.7997 313.686 98.1918C314.099 98.5838 314.425 99.093 314.664 99.7195C314.902 100.342 315.022 101.098 315.022 101.989V102.666H307.217V101.234H313.149C313.149 100.732 313.047 100.286 312.842 99.8984C312.637 99.5064 312.35 99.1974 311.979 98.9716C311.613 98.7457 311.182 98.6328 310.688 98.6328C310.151 98.6328 309.682 98.7649 309.282 99.0291C308.885 99.2891 308.578 99.63 308.361 100.052C308.148 100.469 308.042 100.923 308.042 101.413V102.532C308.042 103.188 308.157 103.746 308.387 104.207C308.621 104.667 308.947 105.018 309.365 105.261C309.782 105.5 310.27 105.619 310.828 105.619C311.191 105.619 311.521 105.568 311.819 105.466C312.118 105.359 312.375 105.202 312.593 104.993C312.81 104.784 312.976 104.526 313.091 104.219L314.9 104.545C314.755 105.078 314.495 105.545 314.12 105.945C313.75 106.342 313.283 106.651 312.721 106.872C312.162 107.089 311.525 107.198 310.809 107.198ZM319.999 107.217C319.377 107.217 318.815 107.102 318.312 106.872C317.809 106.638 317.411 106.299 317.117 105.856C316.827 105.413 316.682 104.869 316.682 104.226C316.682 103.672 316.789 103.216 317.002 102.858C317.215 102.5 317.502 102.217 317.865 102.008C318.227 101.799 318.632 101.641 319.079 101.535C319.526 101.428 319.982 101.347 320.447 101.292C321.035 101.224 321.512 101.168 321.879 101.126C322.245 101.079 322.512 101.004 322.678 100.902C322.844 100.8 322.927 100.634 322.927 100.403V100.359C322.927 99.8004 322.769 99.3679 322.454 99.0611C322.143 98.7543 321.678 98.6009 321.061 98.6009C320.417 98.6009 319.91 98.7436 319.539 99.0291C319.173 99.3104 318.919 99.6236 318.779 99.9688L316.982 99.5597C317.195 98.9631 317.507 98.4815 317.916 98.1151C318.329 97.7443 318.804 97.4759 319.341 97.3097C319.878 97.1392 320.443 97.054 321.035 97.054C321.427 97.054 321.843 97.1009 322.281 97.1946C322.725 97.2841 323.138 97.4503 323.521 97.6932C323.909 97.9361 324.227 98.2834 324.474 98.7351C324.721 99.1825 324.845 99.7642 324.845 100.48V107H322.978V105.658H322.901C322.778 105.905 322.593 106.148 322.345 106.386C322.098 106.625 321.781 106.823 321.393 106.981C321.005 107.138 320.541 107.217 319.999 107.217ZM320.415 105.683C320.943 105.683 321.395 105.579 321.77 105.37C322.149 105.161 322.437 104.888 322.633 104.552C322.833 104.211 322.933 103.847 322.933 103.459V102.193C322.865 102.261 322.733 102.325 322.537 102.385C322.345 102.44 322.126 102.489 321.879 102.532C321.632 102.57 321.391 102.607 321.156 102.641C320.922 102.67 320.726 102.696 320.568 102.717C320.198 102.764 319.859 102.843 319.552 102.954C319.249 103.065 319.007 103.224 318.823 103.433C318.644 103.638 318.555 103.911 318.555 104.251C318.555 104.724 318.73 105.082 319.079 105.325C319.428 105.564 319.874 105.683 320.415 105.683ZM331.973 97.1818V98.7159H326.61V97.1818H331.973ZM328.049 94.8295H329.96V104.117C329.96 104.488 330.015 104.767 330.126 104.955C330.237 105.138 330.38 105.263 330.554 105.332C330.733 105.396 330.927 105.428 331.136 105.428C331.289 105.428 331.424 105.417 331.539 105.396C331.654 105.374 331.743 105.357 331.807 105.344L332.152 106.923C332.042 106.966 331.884 107.009 331.679 107.051C331.475 107.098 331.219 107.124 330.912 107.128C330.409 107.136 329.941 107.047 329.506 106.859C329.071 106.672 328.72 106.382 328.451 105.99C328.183 105.598 328.049 105.106 328.049 104.513V94.8295ZM338.214 107.198C337.246 107.198 336.413 106.991 335.714 106.578C335.02 106.161 334.483 105.575 334.104 104.82C333.729 104.062 333.541 103.173 333.541 102.155C333.541 101.149 333.729 100.263 334.104 99.4957C334.483 98.7287 335.011 98.13 335.689 97.6996C336.371 97.2692 337.167 97.054 338.079 97.054C338.633 97.054 339.17 97.1456 339.69 97.3288C340.21 97.5121 340.677 97.7997 341.09 98.1918C341.503 98.5838 341.829 99.093 342.068 99.7195C342.307 100.342 342.426 101.098 342.426 101.989V102.666H334.621V101.234H340.553C340.553 100.732 340.451 100.286 340.246 99.8984C340.042 99.5064 339.754 99.1974 339.383 98.9716C339.017 98.7457 338.586 98.6328 338.092 98.6328C337.555 98.6328 337.086 98.7649 336.686 99.0291C336.29 99.2891 335.983 99.63 335.765 100.052C335.552 100.469 335.446 100.923 335.446 101.413V102.532C335.446 103.188 335.561 103.746 335.791 104.207C336.025 104.667 336.351 105.018 336.769 105.261C337.187 105.5 337.675 105.619 338.233 105.619C338.595 105.619 338.925 105.568 339.224 105.466C339.522 105.359 339.78 105.202 339.997 104.993C340.214 104.784 340.381 104.526 340.496 104.219L342.305 104.545C342.16 105.078 341.9 105.545 341.525 105.945C341.154 106.342 340.687 106.651 340.125 106.872C339.567 107.089 338.93 107.198 338.214 107.198Z" fill="black"/>
</g>
<rect x="169" y="58" width="262" height="85" rx="22" stroke="#934B0A" stroke-opacity="0.25" stroke-width="4"/>
<rect x="151.5" y="43.5" width="297" height="114" rx="30.5" stroke="#934B0A" stroke-opacity="0.15" stroke-width="3"/>
<rect x="136" y="31" width="328" height="139" rx="43" stroke="#934B0A" stroke-opacity="0.1" stroke-width="2"/>
<rect x="125.5" y="20.5" width="349" height="160" rx="47.5" stroke="#934B0A" stroke-opacity="0.05"/>
<defs>
<filter id="filter0_d_2328_8031" x="175.3" y="56.3" width="250.4" height="87.4" filterUnits="userSpaceOnUse" color-interpolation-filters="sRGB">
<feFlood flood-opacity="0" result="BackgroundImageFix"/>
<feColorMatrix in="SourceAlpha" type="matrix" values="0 0 0 0 0 0 0 0 0 0 0 0 0 0 0 0 0 0 127 0" result="hardAlpha"/>
<feOffset/>
<feGaussianBlur stdDeviation="7.85"/>
<feComposite in2="hardAlpha" operator="out"/>
<feColorMatrix type="matrix" values="0 0 0 0 0.5344 0 0 0 0 0.27116 0 0 0 0 0.029264 0 0 0 1 0"/>
<feBlend mode="normal" in2="BackgroundImageFix" result="effect1_dropShadow_2328_8031"/>
<feBlend mode="normal" in="SourceGraphic" in2="effect1_dropShadow_2328_8031" result="shape"/>
</filter>
<radialGradient id="paint0_radial_2328_8031" cx="0" cy="0" r="1" gradientTransform="matrix(0 63.9189 -191 -4.84051 300 101.081)" gradientUnits="userSpaceOnUse">
<stop stop-color="#EF801A"/>
<stop offset="0.855769" stop-color="#161616" stop-opacity="0"/>
</radialGradient>
<linearGradient id="paint1_linear_2328_8031" x1="300.5" y1="128" x2="300.5" y2="74.1875" gradientUnits="userSpaceOnUse">
<stop stop-color="white" stop-opacity="0"/>
<stop offset="0.95" stop-color="white" stop-opacity="0"/>
<stop offset="1" stop-color="white"/>
</linearGradient>
<linearGradient id="paint2_linear_2328_8031" x1="269.5" y1="90" x2="269.5" y2="110" gradientUnits="userSpaceOnUse">
<stop stop-color="#343333"/>
<stop offset="1"/>
</linearGradient>
</defs>
</svg>
