<svg width="192" height="32" viewBox="0 0 192 32" fill="none" xmlns="http://www.w3.org/2000/svg">
<g clip-path="url(#clip0_2143_228)">
<g clip-path="url(#clip1_2143_228)">
<path d="M96.4702 16.1973C95.8614 15.8427 95.1782 15.6464 94.4264 15.6054V15.5233C95.0495 15.4383 95.6127 15.2244 96.1101 14.8845C96.6074 14.5445 97.0019 14.1138 97.2935 13.5892C97.5822 13.0676 97.728 12.4845 97.728 11.8456V11.8222C97.728 10.9402 97.5193 10.1841 97.0991 9.55114C96.6789 8.91818 96.0815 8.43173 95.3011 8.08887C94.5207 7.74601 93.586 7.57312 92.4968 7.57312H84.8217V24.4698H92.6912C93.8718 24.4698 94.8923 24.2706 95.7527 23.872C96.6132 23.4735 97.2792 22.9109 97.7509 22.187C98.2225 21.4603 98.4598 20.6105 98.4598 19.6347V19.6112C98.4598 18.8698 98.2797 18.2046 97.9224 17.6156C97.5651 17.0266 97.082 16.5548 96.4731 16.2002L96.4702 16.1973ZM91.3763 10.6061C92.0766 10.6061 92.6283 10.7731 93.0314 11.1043C93.4345 11.4354 93.6374 11.8955 93.6374 12.4786V12.5021C93.6374 13.135 93.4173 13.6273 92.9799 13.9819C92.5426 14.3365 91.9051 14.5152 91.0676 14.5152H89.0123V10.6032H91.3763V10.6061ZM94.1748 19.3299C94.1748 20.0098 93.9433 20.5314 93.483 20.8918C93.0228 21.2522 92.3625 21.4369 91.5021 21.4369H89.0123V17.2347H91.3763C91.9937 17.2347 92.5083 17.3138 92.9228 17.4691C93.3373 17.6244 93.6488 17.8588 93.8604 18.1724C94.0691 18.4859 94.1748 18.864 94.1748 19.3094V19.3328V19.3299Z" fill="white" fill-opacity="0.8"/>
<path d="M102.402 6.25146C101.824 6.25146 101.333 6.45366 100.935 6.85513C100.535 7.25659 100.335 7.74011 100.335 8.29982C100.335 8.85952 100.535 9.33425 100.935 9.73864C101.335 10.146 101.824 10.3482 102.402 10.3482C102.979 10.3482 103.479 10.146 103.874 9.73864C104.268 9.33425 104.468 8.85366 104.468 8.29982C104.468 7.74597 104.271 7.25659 103.874 6.85513C103.477 6.45366 102.988 6.25146 102.402 6.25146Z" fill="white" fill-opacity="0.8"/>
<path d="M104.434 11.7196H100.381V24.4698H104.434V11.7196Z" fill="white" fill-opacity="0.8"/>
<path d="M111.683 8.7804H107.619V11.7196H105.929V14.7643H107.619V20.7482C107.619 22.1841 107.973 23.2097 108.688 23.8222C109.399 24.4346 110.506 24.7423 112.006 24.7423C112.432 24.7423 112.801 24.7276 113.116 24.6954C113.427 24.6632 113.693 24.628 113.916 24.5899V21.639C113.802 21.6537 113.687 21.6683 113.573 21.68C113.459 21.6918 113.319 21.6976 113.15 21.6976C112.664 21.6976 112.298 21.5833 112.052 21.3518C111.809 21.1203 111.686 20.7335 111.686 20.1855V14.7643H113.913V11.7196H111.686V8.7804H111.683Z" fill="white" fill-opacity="0.8"/>
<path d="M123.524 19.5877C123.446 20.1972 123.232 20.6837 122.878 21.0441C122.523 21.4075 122.049 21.5891 121.457 21.5891C120.985 21.5891 120.579 21.4543 120.242 21.1847C119.902 20.9152 119.645 20.5195 119.464 19.995C119.284 19.4734 119.196 18.8404 119.196 18.099V18.0873C119.196 17.3459 119.284 16.7159 119.464 16.1972C119.645 15.6785 119.902 15.2829 120.242 15.0075C120.579 14.7349 120.982 14.5972 121.445 14.5972C122.04 14.5972 122.514 14.7848 122.872 15.1598C123.229 15.5349 123.446 16.0155 123.524 16.5987L123.535 16.7159H127.26V16.6338C127.237 15.6199 126.982 14.7203 126.494 13.9408C126.005 13.1613 125.324 12.5489 124.45 12.1093C123.575 11.6697 122.549 11.447 121.377 11.447C120.09 11.447 118.976 11.7137 118.035 12.2441C117.095 12.7745 116.369 13.5364 115.854 14.5269C115.34 15.5174 115.082 16.6983 115.082 18.0639V18.0756C115.082 19.4587 115.337 20.6456 115.848 21.6419C116.357 22.6382 117.089 23.4031 118.035 23.9364C118.981 24.4697 120.108 24.7393 121.411 24.7393C122.606 24.7393 123.635 24.5108 124.501 24.0536C125.364 23.5965 126.036 22.9782 126.511 22.1987C126.985 21.4192 127.237 20.5313 127.26 19.5408L127.271 19.4705H123.546L123.524 19.5877Z" fill="white" fill-opacity="0.8"/>
<path d="M138.331 12.2382C137.379 11.7108 136.255 11.447 134.961 11.447C133.666 11.447 132.554 11.7108 131.602 12.2382C130.65 12.7657 129.912 13.5276 129.386 14.521C128.86 15.5174 128.597 16.7012 128.597 18.0756V18.099C128.597 19.4968 128.855 20.6895 129.369 21.6829C129.884 22.6734 130.616 23.4324 131.567 23.954C132.519 24.4756 133.651 24.7393 134.961 24.7393C136.27 24.7393 137.41 24.4785 138.359 23.9598C139.308 23.4412 140.04 22.6851 140.558 21.6946C141.075 20.7042 141.335 19.5056 141.335 18.099V18.0756C141.335 16.6866 141.072 15.4968 140.546 14.5093C140.02 13.5217 139.283 12.7657 138.331 12.2382ZM137.21 18.099C137.21 18.8404 137.122 19.4734 136.942 19.995C136.761 20.5166 136.504 20.9152 136.17 21.1847C135.835 21.4543 135.435 21.5891 134.969 21.5891C134.503 21.5891 134.103 21.4543 133.763 21.1847C133.423 20.9152 133.163 20.5195 132.98 19.995C132.797 19.4734 132.705 18.8404 132.705 18.099V18.0756C132.705 17.343 132.799 16.7159 132.985 16.1972C133.171 15.6785 133.434 15.2829 133.774 15.0075C134.114 14.732 134.506 14.5972 134.958 14.5972C135.409 14.5972 135.81 14.7349 136.147 15.0075C136.481 15.28 136.741 15.6756 136.93 16.1972C137.116 16.7159 137.21 17.343 137.21 18.0756V18.099Z" fill="white" fill-opacity="0.8"/>
<path d="M145.025 6.25146C144.448 6.25146 143.956 6.45366 143.559 6.85513C143.159 7.25659 142.959 7.74011 142.959 8.29982C142.959 8.85952 143.159 9.33425 143.559 9.73864C143.959 10.146 144.448 10.3482 145.025 10.3482C145.603 10.3482 146.103 10.146 146.498 9.73864C146.892 9.33425 147.092 8.85366 147.092 8.29982C147.092 7.74597 146.895 7.25659 146.498 6.85513C146.1 6.45366 145.611 6.25146 145.025 6.25146Z" fill="white" fill-opacity="0.8"/>
<path d="M147.058 11.7196H143.005V24.4698H147.058V11.7196Z" fill="white" fill-opacity="0.8"/>
<path d="M157.32 11.45C156.383 11.45 155.599 11.6697 154.968 12.1064C154.336 12.543 153.858 13.1642 153.541 13.9672H153.461V11.7196H149.408V24.4697H153.461V17.2346C153.461 16.7598 153.547 16.3408 153.718 15.9804C153.89 15.6199 154.13 15.3415 154.444 15.1364C154.756 14.9342 155.125 14.8316 155.554 14.8316C156.217 14.8316 156.714 15.0368 157.049 15.447C157.383 15.8573 157.552 16.4258 157.552 17.1496V24.4668H161.605V16.2587C161.605 14.7437 161.234 13.5628 160.49 12.7159C159.747 11.869 158.692 11.4441 157.32 11.4441V11.45Z" fill="white" fill-opacity="0.8"/>
<path d="M165.947 20.2881C165.347 20.2881 164.838 20.502 164.424 20.9269C164.009 21.3518 163.8 21.8734 163.8 22.4888C163.8 23.1042 164.009 23.6258 164.424 24.0507C164.838 24.4756 165.347 24.6896 165.947 24.6896C166.547 24.6896 167.045 24.4756 167.459 24.0507C167.874 23.6258 168.083 23.1042 168.083 22.4888C168.083 21.8734 167.874 21.3518 167.459 20.9269C167.045 20.502 166.539 20.2881 165.947 20.2881Z" fill="white" fill-opacity="0.8"/>
<path d="M179.077 11.9891C178.242 11.6316 177.27 11.45 176.158 11.45C175.046 11.45 174.005 11.6258 173.171 11.9774C172.336 12.3291 171.687 12.8155 171.224 13.4397C170.758 14.0639 170.492 14.7935 170.424 15.6287L170.412 15.7811H174.068L174.091 15.6639C174.16 15.3357 174.351 15.0602 174.663 14.8316C174.974 14.606 175.406 14.4917 175.955 14.4917C176.504 14.4917 176.933 14.6265 177.221 14.8961C177.51 15.1657 177.656 15.5291 177.656 15.9921V16.625L174.823 16.8126C173.757 16.8829 172.851 17.0793 172.105 17.4045C171.358 17.7298 170.79 18.1723 170.398 18.732C170.006 19.2946 169.809 19.9774 169.809 20.7804V20.7921C169.809 21.5335 169.986 22.1957 170.341 22.776C170.695 23.3591 171.187 23.8133 171.819 24.1474C172.45 24.4785 173.182 24.6456 174.011 24.6456C174.551 24.6456 175.046 24.5664 175.495 24.4111C175.944 24.2558 176.344 24.0302 176.695 23.7313C177.044 23.4353 177.339 23.0807 177.576 22.6646H177.656V24.4668H181.709V15.7547C181.709 14.8961 181.478 14.143 181.017 13.4954C180.557 12.8478 179.908 12.3437 179.077 11.9862V11.9891ZM177.364 20.8595C177.17 21.1437 176.907 21.3664 176.575 21.5276C176.244 21.6888 175.861 21.7679 175.426 21.7679C174.932 21.7679 174.534 21.6595 174.231 21.4456C173.931 21.2316 173.78 20.9239 173.78 20.5254V20.5137C173.78 20.1327 173.92 19.825 174.203 19.5935C174.483 19.362 174.906 19.2331 175.469 19.2009L177.65 19.0485V19.9042C177.65 20.2558 177.553 20.5723 177.359 20.8595H177.364Z" fill="white" fill-opacity="0.8"/>
<path d="M191.503 11.491C191.323 11.4646 191.14 11.45 190.948 11.45C190.211 11.45 189.602 11.6697 189.127 12.1064C188.65 12.543 188.327 13.1672 188.15 13.9789H188.07V11.7195H184.016V24.4697H188.07V17.7034C188.07 17.1027 188.17 16.5957 188.373 16.1884C188.575 15.7782 188.87 15.4675 189.264 15.2565C189.656 15.0456 190.139 14.9401 190.708 14.9401C190.951 14.9401 191.185 14.9606 191.411 14.9987C191.637 15.0368 191.831 15.0954 192 15.1745V11.6141C191.849 11.5584 191.683 11.5174 191.503 11.491Z" fill="white" fill-opacity="0.8"/>
<path d="M5.79142 30.8053C4.64228 29.7357 4.06771 28.0214 4.06771 25.6653V22.524C4.06771 21.2023 3.75613 20.2705 3.13583 19.7225C2.51552 19.1745 1.46929 18.8961 0 18.8844V13.9056C1.46929 13.8939 2.51552 13.6126 3.13583 13.0675C3.75613 12.5196 4.06771 11.5877 4.06771 10.2661V7.07194C4.06771 4.73934 4.63656 3.04849 5.77426 1.99355C6.91197 0.941535 8.76716 0.414062 11.3399 0.414062H12.6148V4.2148H11.8573C10.7653 4.2148 9.99348 4.4756 9.53897 5.00014C9.08446 5.52469 8.85864 6.41553 8.85864 7.67853V11.658C8.85864 12.9562 8.47273 13.9789 7.70378 14.7262C6.93483 15.4763 5.81428 15.9335 4.34213 16.1005V16.6895C5.81143 16.8448 6.93198 17.299 7.70378 18.0551C8.47273 18.8111 8.85864 19.8368 8.85864 21.1349V25.1496C8.85864 26.4097 9.08732 27.3064 9.54755 27.8368C10.0078 28.3672 10.7767 28.6309 11.8573 28.6309H12.6148V32.4141H11.3399C8.79003 32.4141 6.93769 31.8778 5.79142 30.8082V30.8053Z" fill="white" fill-opacity="0.8"/>
<path d="M17.1684 27.7108C16.4166 26.0639 15.8621 24.3027 15.5048 22.4273C15.1474 20.5547 14.9702 18.5533 14.9702 16.4229C14.9702 14.2925 15.1474 12.2558 15.5048 10.3804C15.8621 8.50784 16.4166 6.74373 17.1684 5.08806C17.9202 3.43531 18.895 1.87633 20.0899 0.411133H24.7093C24.0661 1.19648 23.4687 2.1811 22.917 3.36498C22.3653 4.54886 21.8822 5.85875 21.4705 7.29172C21.0561 8.72469 20.7359 10.2221 20.5044 11.7811C20.2757 13.3401 20.1585 14.8815 20.1585 16.4023C20.1585 17.9232 20.2728 19.447 20.5044 21.006C20.733 22.565 21.0561 24.0624 21.4705 25.5042C21.885 26.943 22.3653 28.2588 22.917 29.4485C23.4687 30.6382 24.0661 31.6258 24.7093 32.4111H20.0899C18.895 30.9225 17.9202 29.3577 17.1684 27.7078V27.7108Z" fill="white" fill-opacity="0.8"/>
<path d="M47.6034 18.4272C47.1374 17.5774 46.4942 16.8829 45.6738 16.3466C44.8534 15.8104 43.9015 15.4968 42.821 15.4001V15.2565C43.6586 15.1129 44.4075 14.7906 45.0621 14.2836C45.7167 13.7767 46.2312 13.1437 46.6057 12.3818C46.9802 11.6199 47.166 10.7935 47.166 9.89974V9.86458C47.166 8.59278 46.8687 7.49388 46.277 6.57081C45.6853 5.64773 44.842 4.93564 43.7443 4.42868C42.7867 3.98912 41.6747 3.74004 40.4084 3.68143V0.554688H38.6847V3.6785H36.1006V0.554688H34.3769V3.6785H29.7746V28.3584H34.3769V31.4822H36.1006V28.3584H38.6847V31.4822H40.4084V28.3496C41.9577 28.3085 43.307 28.0301 44.4504 27.4997C45.6853 26.9283 46.6372 26.1166 47.3032 25.0646C47.9692 24.0126 48.3037 22.7671 48.3037 21.3254V21.2902C48.3037 20.2323 48.0722 19.277 47.6062 18.4272H47.6034ZM41.3803 8.38765C42.0177 8.93564 42.3379 9.70341 42.3379 10.691V10.7261C42.3379 11.7488 41.972 12.5459 41.2431 13.1173C40.5142 13.6888 39.4822 13.973 38.1501 13.973H34.737V7.56714H38.6504C39.8338 7.56714 40.7457 7.83967 41.3832 8.38765H41.3803ZM43.1297 20.9151C43.1297 22.0814 42.781 22.9635 42.0864 23.5642C41.3917 24.1649 40.3083 24.4668 38.839 24.4668H34.737V17.4719H38.719C40.2369 17.4719 41.3488 17.7562 42.0635 18.3276C42.7753 18.899 43.1326 19.7488 43.1326 20.88V20.9151H43.1297Z" fill="white" fill-opacity="0.8"/>
<path d="M50.8679 32.4141C51.511 31.6287 52.1085 30.6412 52.6602 29.4514C53.2119 28.2617 53.695 26.9459 54.1066 25.5071C54.5211 24.0683 54.8412 22.5679 55.0728 21.0089C55.3015 19.45 55.4187 17.9144 55.4187 16.4053C55.4187 14.8961 55.3043 13.343 55.0728 11.784C54.8441 10.2251 54.5211 8.73055 54.1066 7.29465C53.6921 5.86168 53.209 4.55179 52.6602 3.36791C52.1085 2.18403 51.511 1.19941 50.8679 0.414062H55.5044C56.6879 1.87633 57.6569 3.43531 58.4087 5.09099C59.1605 6.74373 59.7151 8.50784 60.0724 10.3833C60.4297 12.2588 60.6069 14.2719 60.6069 16.4258C60.6069 18.5796 60.4297 20.5577 60.0724 22.4302C59.7151 24.3056 59.1605 26.0639 58.4087 27.7137C57.6569 29.3606 56.6879 30.9283 55.5044 32.417H50.8679V32.4141Z" fill="white" fill-opacity="0.8"/>
<path d="M62.7622 32.4141V28.6309H63.5197C64.6003 28.6309 65.3692 28.3672 65.8294 27.8368C66.2897 27.3064 66.5183 26.4126 66.5183 25.1496V21.1349C66.5183 19.8368 66.9071 18.8111 67.6818 18.0551C68.4564 17.299 69.5741 16.8448 71.0348 16.6895V16.1005C69.5741 15.9335 68.4593 15.4763 67.6818 14.7262C66.9071 13.976 66.5183 12.9533 66.5183 11.658V7.67853C66.5183 6.41846 66.2925 5.52469 65.838 5.00014C65.3835 4.4756 64.6117 4.2148 63.5197 4.2148H62.7622V0.414062H64.0371C66.6212 0.414062 68.485 0.941535 69.6227 1.99355C70.7604 3.04556 71.3293 4.73934 71.3293 7.07194V10.2661C71.3293 11.5877 71.6409 12.5196 72.2612 13.0675C72.8815 13.6155 73.922 13.8939 75.3798 13.9056V18.8844C73.9105 18.8961 72.8672 19.1774 72.2526 19.7225C71.638 20.2705 71.3293 21.2023 71.3293 22.524V25.6653C71.3293 28.0214 70.7547 29.7357 69.6056 30.8053C68.4564 31.8749 66.6012 32.4111 64.0371 32.4111H62.7622V32.4141Z" fill="white" fill-opacity="0.8"/>
</g>
</g>
<defs>
<clipPath id="clip0_2143_228">
<rect width="192" height="32" fill="white"/>
</clipPath>
<clipPath id="clip1_2143_228">
<rect width="192" height="32" fill="white" transform="translate(0 0.414062)"/>
</clipPath>
</defs>
</svg>
