<svg width="128" height="33" viewBox="0 0 128 33" fill="none" xmlns="http://www.w3.org/2000/svg">
<path fill-rule="evenodd" clip-rule="evenodd" d="M92.2087 20.851L91.1747 18.8302C89.8516 21.5694 88.4003 24.0758 86.2408 25.9877C82.5961 29.2136 77.7793 29.2136 72.2011 29.2136H68.9122C68.0172 29.2136 67.2891 28.4882 67.2891 27.5965V8.37375C67.2891 7.52791 66.5999 6.84175 65.7498 6.84175C64.9002 6.84175 64.211 7.52791 64.211 8.37375V27.5965C64.211 30.1777 66.3207 32.277 68.9122 32.277H72.2011C78.1488 32.277 83.7664 32.277 88.2848 28.2767C90.2468 26.5403 91.6865 24.4339 92.9007 22.2037C92.6762 21.7852 92.4523 21.3535 92.2306 20.9077C92.2224 20.8919 92.2164 20.869 92.2087 20.851V20.851ZM124.161 16.6779C124.161 21.735 121.24 26.2378 116.347 28.3409C111.259 30.528 105.507 29.6293 101.694 26.0519C99.8537 24.3259 98.2706 21.8341 96.7121 18.6993C96.3514 17.9744 95.9994 17.2202 95.6556 16.4697C95.9994 15.7209 96.3519 14.9687 96.7121 14.2444C98.2701 11.1096 99.8532 8.84564 101.694 7.11962C105.508 3.54222 111.259 2.64405 116.347 4.8306C121.24 6.93377 124.161 11.2088 124.161 16.2653V16.6779ZM117.567 2.01836C111.35 -0.653785 104.291 0.473826 99.5833 4.88998C97.4796 6.86344 95.6978 9.38898 93.98 12.8329C92.5397 9.8348 90.8657 7.04929 88.2769 4.78643C83.6332 0.726707 76.8019 0.726707 70.7754 0.726707L58.6133 0.727797C55.6441 0.727797 53.2284 3.1329 53.2284 6.08899V18.1635C53.2284 25.5946 49.4107 29.5225 42.188 29.5225C35.0726 29.5225 31.3119 25.6649 31.3119 18.3674V6.08736C31.3119 3.13126 28.8961 0.726707 25.9269 0.726707H5.38497C2.41576 0.726707 0 3.13126 0 6.08736V11.3586C0 13.1642 0.500889 14.8554 1.37183 16.3018C0.501437 17.7373 0 19.4187 0 21.2145V30.7449C0 31.5913 0.688654 32.2769 1.5388 32.2769C2.38839 32.2769 3.07705 31.5913 3.07705 30.7449V21.2145C3.07705 20.3648 3.24237 19.5527 3.5429 18.8088L3.54783 18.8083C3.93978 17.8387 4.56056 16.9863 5.34337 16.3149C5.34172 16.3138 5.34008 16.3127 5.33953 16.3116C6.47817 15.335 7.95894 14.7436 9.57602 14.7436H16.2485C17.1326 14.7436 17.853 15.4603 17.853 16.341C17.853 17.2218 17.1326 17.9384 16.2485 17.9384H9.6855C8.76091 17.9384 7.87956 17.7444 7.08033 17.4011C6.19077 17.981 5.51361 18.86 5.1983 19.8934C6.54167 20.5964 8.06569 21.0019 9.6855 21.0019H16.2485C18.8296 21.0019 20.9301 18.9113 20.9301 16.341C20.9301 13.7714 18.8296 11.6802 16.2485 11.6802H9.57602C7.29547 11.6802 5.1983 12.4781 3.55166 13.8084C3.24565 13.0509 3.07705 12.2241 3.07705 11.3586V6.08736C3.07705 4.82022 4.11167 3.78962 5.38497 3.78962H25.9269C27.1991 3.78962 28.2343 4.82022 28.2343 6.08736V18.3674C28.2343 27.4035 33.3204 32.5859 42.188 32.5859C51.1602 32.5859 56.3054 27.3294 56.3054 18.1635V6.08899C56.3054 4.82186 57.3411 3.79126 58.6133 3.79126H64.5304C64.5353 3.79126 64.5403 3.78962 64.5403 3.78962H70.7754C76.5271 3.78962 82.4743 3.78962 86.2471 7.08853C88.8977 9.40588 90.4721 12.5091 92.0492 15.9688L92.0498 15.9683L94.3177 20.7605C95.9321 23.8708 97.6165 26.4367 99.5833 28.2821C102.595 31.1068 106.567 32.5859 110.668 32.5859C112.977 32.5859 115.326 32.1161 117.567 31.1531C123.532 28.5894 127.238 22.9018 127.238 16.6779V16.2653C127.238 10.0419 123.532 4.5826 117.567 2.01836V2.01836Z" fill="white" fill-opacity="0.8"/>
</svg>
