<?xml version="1.0" encoding="utf-8"?>
<!-- Generator: Adobe Illustrator 22.0.1, SVG Export Plug-In . SVG Version: 6.00 Build 0)  -->
<svg version="1.1" id="Layer_1" xmlns="http://www.w3.org/2000/svg" xmlns:xlink="http://www.w3.org/1999/xlink" x="0px" y="0px"
	 viewBox="0 0 79.4 79.4" style="enable-background:new 0 0 79.4 79.4;" xml:space="preserve">
<style type="text/css">
	.st0{fill:#EF801A;}
</style>
<g>
	<path class="st0" d="M24.9,18.5l-2,2.1l-10.5-2.2l6.7,6.3l-2,2.1L7,17.3l2-2.1l10.5,2.2l-6.7-6.3l2-2.1L24.9,18.5z"/>
	<path class="st0" d="M33.2,12.4l-4.8,1.6l0,3l-2.9,1l0.4-14.9l2.5-0.9l9.5,11.5l-2.9,1L33.2,12.4z M28.4,11.6l3.3-1.1l-3.4-4.4
		L28.4,11.6z"/>
	<path class="st0" d="M49.2,10.9c-0.3,1.5-1,2.6-2.1,3.3C46,15,44.6,15.2,43,15c-1.8-0.2-3.1-1-4-2.3c-0.9-1.3-1.2-3-0.9-5.1
		l0.1-0.8c0.2-1.3,0.5-2.5,1.1-3.4c0.6-1,1.4-1.6,2.3-2.1c0.9-0.4,2-0.6,3.1-0.4c1.6,0.2,2.8,0.8,3.7,1.8c0.9,1,1.3,2.2,1.2,3.8
		L46.9,6c0-0.9-0.1-1.6-0.5-2c-0.4-0.5-1-0.7-1.9-0.8c-0.9-0.1-1.7,0.1-2.3,0.8c-0.6,0.6-0.9,1.6-1.1,3.1L41,8
		c-0.2,1.5-0.1,2.6,0.3,3.4c0.4,0.7,1,1.2,2,1.3c0.9,0.1,1.6,0,2-0.4c0.5-0.3,0.8-0.9,1-1.8L49.2,10.9z"/>
	<path class="st0" d="M58.4,22.1l-2.4-1.6l3.4-4.9l-4.6-3.2l-3.4,4.9l-2.4-1.6l7.9-11.5l2.4,1.6l-3.2,4.7l4.6,3.2L63.9,9l2.4,1.6
		L58.4,22.1z"/>
	<path class="st0" d="M70.4,30c-1.2,0.6-2.4,1-3.5,1c-1.1,0.1-2.2-0.2-3.1-0.7s-1.6-1.3-2.2-2.4c-0.5-1-0.8-2.1-0.7-3.1
		c0.1-1.1,0.4-2.1,1.1-3c0.7-0.9,1.6-1.7,2.8-2.3l0.6-0.3c1.2-0.6,2.4-1,3.6-1c1.2,0,2.2,0.2,3.1,0.7c0.9,0.5,1.6,1.3,2.2,2.3
		c0.5,1,0.8,2.1,0.7,3.1c-0.1,1.1-0.5,2.1-1.1,3c-0.7,0.9-1.6,1.7-2.9,2.3L70.4,30z M69.6,27.1c1.3-0.7,2.2-1.4,2.6-2.2
		c0.4-0.8,0.4-1.7,0-2.5c-0.4-0.9-1.1-1.3-2-1.4c-0.9-0.1-2,0.2-3.3,0.8L66.2,22c-1.3,0.7-2.1,1.4-2.6,2.2c-0.5,0.8-0.4,1.7,0,2.5
		c0.4,0.9,1.1,1.3,2,1.4c0.9,0.1,2-0.2,3.3-0.8L69.6,27.1z"/>
	<path class="st0" d="M67.9,49.7c-1.5-0.3-2.5-1.1-3.2-2.2C64,46.4,63.8,45,64,43.4c0.3-1.8,1.1-3.1,2.4-3.9
		c1.3-0.8,3.1-1.1,5.1-0.7l0.8,0.1c1.3,0.2,2.5,0.6,3.4,1.3c0.9,0.6,1.6,1.4,2,2.4c0.4,1,0.5,2,0.3,3.1c-0.3,1.6-0.9,2.8-1.9,3.6
		c-1,0.8-2.3,1.2-3.9,1.1l0.5-2.8c0.9,0.1,1.6-0.1,2.1-0.4c0.5-0.4,0.8-1,0.9-1.8c0.2-0.9-0.1-1.7-0.7-2.3c-0.6-0.6-1.6-1-3-1.2
		l-1-0.2c-1.5-0.2-2.6-0.2-3.4,0.2c-0.8,0.3-1.2,1-1.4,2c-0.1,0.9,0,1.6,0.3,2.1c0.3,0.5,0.9,0.8,1.7,1L67.9,49.7z"/>
	<path class="st0" d="M61,52.2l1.3-2.5l12.3,6.6l-1.3,2.5L61,52.2z"/>
	<path class="st0" d="M57.7,61.5c0.4,0.4,0.8,0.6,1.3,0.5c0.5-0.1,1.2-0.3,2.1-0.8c0.9-0.5,1.7-0.8,2.4-1c1.7-0.5,3.1-0.2,4.1,0.8
		c0.5,0.5,0.8,1.2,0.9,1.9c0.1,0.7,0,1.5-0.4,2.3c-0.3,0.8-0.9,1.5-1.6,2.2c-0.7,0.7-1.5,1.2-2.3,1.5c-0.8,0.3-1.6,0.3-2.4,0.2
		c-0.8-0.2-1.4-0.6-2-1.2l2.1-2c0.4,0.5,0.9,0.7,1.5,0.7c0.5,0,1.1-0.3,1.6-0.8c0.5-0.5,0.8-1,0.9-1.5c0.1-0.5-0.1-0.9-0.4-1.2
		c-0.3-0.3-0.7-0.4-1.3-0.3c-0.5,0.1-1.2,0.4-2,0.8c-1.5,0.8-2.8,1.2-3.8,1.2c-1,0-1.9-0.4-2.7-1.2c-0.8-0.9-1.2-1.9-1-3
		c0.2-1.1,0.8-2.2,1.9-3.3c0.8-0.7,1.6-1.3,2.5-1.6c0.9-0.3,1.8-0.4,2.6-0.2c0.8,0.2,1.5,0.6,2.1,1.2l-2.1,2c-1.1-1.1-2.3-1-3.6,0.2
		c-0.5,0.5-0.8,0.9-0.9,1.4C57.3,60.7,57.4,61.1,57.7,61.5z"/>
	<path class="st0" d="M52.7,76L46.8,67l-1,10.7l-3.7,0.9l-3.4-13.5l2.8-0.7l0.9,3.7l1.3,6.4l1.1-11l1.9-0.5l6.2,9.2l-1.9-6.3
		l-0.9-3.7l2.8-0.7l3.4,13.5L52.7,76z"/>
	<path class="st0" d="M24.9,67.6c0.4-1.3,1-2.4,1.8-3.2c0.8-0.8,1.7-1.4,2.7-1.7c1-0.3,2.1-0.2,3.2,0.1c1.1,0.3,2,0.9,2.7,1.7
		c0.7,0.8,1.1,1.8,1.3,2.9c0.2,1.1,0.1,2.3-0.3,3.6L36,71.7c-0.4,1.3-1,2.4-1.8,3.2c-0.8,0.8-1.7,1.4-2.7,1.7
		c-1,0.3-2.1,0.2-3.2-0.1c-1.1-0.3-2-0.9-2.7-1.7c-0.7-0.8-1.1-1.8-1.3-2.9c-0.2-1.1,0-2.4,0.4-3.7L24.9,67.6z M27.5,69
		c-0.4,1.4-0.5,2.5-0.2,3.4c0.3,0.9,0.9,1.5,1.8,1.8c0.9,0.3,1.7,0.1,2.5-0.4c0.7-0.6,1.3-1.5,1.7-2.9l0.2-0.6
		c0.4-1.4,0.5-2.5,0.2-3.4c-0.3-0.9-0.9-1.5-1.8-1.8c-0.9-0.3-1.7-0.1-2.5,0.4c-0.7,0.6-1.3,1.5-1.7,2.9L27.5,69z"/>
	<path class="st0" d="M18.3,52.8l2,2l-2.6,10.4l6.5-6.5l2,2l-9.9,9.8l-2-2L17,58.1l-6.5,6.5l-2-2L18.3,52.8z"/>
	<path class="st0" d="M17.8,51.7L4.6,56l-1.3-4.1c-0.4-1.2-0.4-2.3-0.2-3.4c0.2-1.1,0.7-2,1.6-2.9c0.8-0.8,1.8-1.4,3.1-1.8l0.6-0.2
		c1.2-0.4,2.4-0.5,3.5-0.3c1.1,0.2,2.1,0.7,2.9,1.4c0.8,0.8,1.4,1.7,1.8,2.9L17.8,51.7z M5.9,52.5l8.9-2.8l-0.4-1.3
		c-0.3-1.1-1-1.8-1.8-2.1c-0.9-0.3-2-0.3-3.3,0.1l-0.7,0.2c-1.4,0.4-2.3,1-2.8,1.8c-0.5,0.8-0.6,1.7-0.3,2.8L5.9,52.5z"/>
	<path class="st0" d="M15.2,37.4l-0.1,2.9L1.2,40l0.1-2.9L15.2,37.4z"/>
</g>
</svg>
