<svg viewBox="0 0 300 200" fill="none" xmlns="http://www.w3.org/2000/svg">
<g clip-path="url(#clip0_2325_7859)">
<g filter="url(#filter0_ii_2325_7859)">
<line x1="26.5" y1="15.5" x2="26.5" y2="216.5" stroke="url(#paint0_linear_2325_7859)" stroke-linecap="round" stroke-dasharray="10.16 8.89"/>
</g>
<g filter="url(#filter1_ii_2325_7859)">
<line x1="88.5" y1="15.5" x2="88.5" y2="216.5" stroke="url(#paint1_linear_2325_7859)" stroke-linecap="round" stroke-dasharray="10.16 8.89"/>
</g>
<g filter="url(#filter2_ii_2325_7859)">
<line x1="150.5" y1="15.5" x2="150.5" y2="216.5" stroke="url(#paint2_linear_2325_7859)" stroke-linecap="round" stroke-dasharray="10.16 8.89"/>
</g>
<g filter="url(#filter3_ii_2325_7859)">
<line x1="274.5" y1="15.5" x2="274.5" y2="216.5" stroke="url(#paint3_linear_2325_7859)" stroke-linecap="round" stroke-dasharray="10.16 8.89"/>
</g>
<g filter="url(#filter4_ii_2325_7859)">
<line x1="212.5" y1="15.5" x2="212.5" y2="216.5" stroke="url(#paint4_linear_2325_7859)" stroke-linecap="round" stroke-dasharray="10.16 8.89"/>
</g>
<path d="M206 184.451L205.192 184.451L203.091 182.308C202.884 182.103 202.7 181.932 202.539 181.795C202.378 181.658 202.222 181.556 202.072 181.488C201.921 181.419 201.76 181.385 201.589 181.385C201.394 181.385 201.227 181.429 201.089 181.518C200.948 181.606 200.839 181.728 200.763 181.883C200.687 182.037 200.649 182.213 200.649 182.41C200.649 182.613 200.691 182.791 200.775 182.944C200.858 183.097 200.975 183.215 201.128 183.3C201.281 183.382 201.463 183.423 201.674 183.423L201.674 184.487C201.282 184.487 200.941 184.398 200.652 184.219C200.362 184.04 200.138 183.794 199.979 183.48C199.82 183.165 199.741 182.803 199.741 182.395C199.741 181.981 199.818 181.617 199.973 181.304C200.128 180.99 200.34 180.747 200.609 180.574C200.879 180.399 201.186 180.312 201.532 180.312C201.763 180.312 201.99 180.356 202.213 180.444C202.436 180.533 202.684 180.689 202.955 180.912C203.226 181.133 203.555 181.443 203.941 181.843L205.023 182.908L205.065 182.908L205.065 180.218L206 180.218L206 184.451ZM206.118 176.896C206.118 177.392 205.992 177.818 205.741 178.174C205.487 178.528 205.123 178.8 204.646 178.991C204.168 179.18 203.592 179.275 202.919 179.275C202.245 179.273 201.673 179.177 201.2 178.988C200.726 178.797 200.364 178.525 200.115 178.171C199.866 177.815 199.741 177.39 199.741 176.896C199.741 176.401 199.866 175.976 200.115 175.621C200.364 175.265 200.726 174.992 201.2 174.804C201.675 174.613 202.247 174.517 202.919 174.517C203.594 174.517 204.171 174.613 204.649 174.804C205.126 174.992 205.489 175.265 205.741 175.621C205.992 175.974 206.118 176.399 206.118 176.896ZM205.174 176.896C205.174 176.51 204.984 176.205 204.604 175.982C204.222 175.757 203.66 175.645 202.919 175.645C202.428 175.645 202.016 175.696 201.683 175.798C201.349 175.901 201.098 176.046 200.929 176.233C200.758 176.42 200.673 176.641 200.673 176.896C200.673 177.28 200.864 177.583 201.245 177.806C201.625 178.03 202.183 178.142 202.919 178.144C203.411 178.146 203.825 178.097 204.161 177.996C204.497 177.894 204.75 177.749 204.921 177.562C205.089 177.375 205.174 177.153 205.174 176.896ZM206 173.515L205.192 173.515L203.091 171.372C202.884 171.167 202.7 170.996 202.539 170.859C202.378 170.723 202.222 170.62 202.072 170.552C201.921 170.483 201.76 170.449 201.589 170.449C201.394 170.449 201.227 170.493 201.089 170.582C200.948 170.67 200.839 170.792 200.763 170.947C200.687 171.101 200.649 171.277 200.649 171.474C200.649 171.677 200.691 171.855 200.775 172.008C200.858 172.161 200.975 172.279 201.128 172.364C201.281 172.446 201.463 172.487 201.674 172.487L201.674 173.552C201.282 173.552 200.941 173.462 200.652 173.283C200.362 173.104 200.138 172.858 199.979 172.545C199.82 172.229 199.741 171.867 199.741 171.459C199.741 171.045 199.818 170.681 199.973 170.368C200.128 170.054 200.34 169.811 200.609 169.638C200.879 169.463 201.186 169.376 201.532 169.376C201.763 169.376 201.99 169.42 202.213 169.509C202.436 169.597 202.684 169.753 202.955 169.976C203.226 170.197 203.555 170.508 203.941 170.908L205.023 171.972L205.065 171.972L205.065 169.282L206 169.282L206 173.515ZM206 168.016L200.802 165.39L200.76 165.39L200.76 168.438L199.825 168.438L199.825 164.233L200.781 164.233L206 166.855L206 168.016Z" fill="#383838"/>
<path d="M144 184.451L143.192 184.451L141.091 182.308C140.884 182.103 140.7 181.932 140.539 181.795C140.378 181.658 140.222 181.556 140.072 181.488C139.921 181.419 139.76 181.385 139.589 181.385C139.394 181.385 139.227 181.429 139.089 181.518C138.948 181.606 138.839 181.728 138.763 181.883C138.687 182.037 138.649 182.213 138.649 182.41C138.649 182.613 138.691 182.791 138.775 182.944C138.858 183.097 138.975 183.215 139.128 183.3C139.281 183.382 139.463 183.423 139.674 183.423L139.674 184.487C139.282 184.487 138.941 184.398 138.652 184.219C138.362 184.04 138.138 183.794 137.979 183.48C137.82 183.165 137.741 182.803 137.741 182.395C137.741 181.981 137.818 181.617 137.973 181.304C138.128 180.99 138.34 180.747 138.609 180.574C138.879 180.399 139.186 180.312 139.532 180.312C139.763 180.312 139.99 180.356 140.213 180.444C140.436 180.533 140.684 180.689 140.955 180.912C141.226 181.133 141.555 181.443 141.941 181.843L143.023 182.908L143.065 182.908L143.065 180.218L144 180.218L144 184.451ZM144.118 176.896C144.118 177.392 143.992 177.818 143.741 178.174C143.487 178.528 143.123 178.8 142.646 178.991C142.168 179.18 141.592 179.275 140.919 179.275C140.245 179.273 139.673 179.177 139.2 178.988C138.726 178.797 138.364 178.525 138.115 178.171C137.866 177.815 137.741 177.39 137.741 176.896C137.741 176.401 137.866 175.976 138.115 175.621C138.364 175.265 138.726 174.992 139.2 174.804C139.675 174.613 140.247 174.517 140.919 174.517C141.594 174.517 142.171 174.613 142.649 174.804C143.126 174.992 143.489 175.265 143.741 175.621C143.992 175.974 144.118 176.399 144.118 176.896ZM143.174 176.896C143.174 176.51 142.984 176.205 142.604 175.982C142.222 175.757 141.66 175.645 140.919 175.645C140.428 175.645 140.016 175.696 139.683 175.798C139.349 175.901 139.098 176.046 138.929 176.233C138.758 176.42 138.673 176.641 138.673 176.896C138.673 177.28 138.864 177.583 139.245 177.806C139.625 178.03 140.183 178.142 140.919 178.144C141.411 178.146 141.825 178.097 142.161 177.996C142.497 177.894 142.75 177.749 142.921 177.562C143.089 177.375 143.174 177.153 143.174 176.896ZM144 173.515L143.192 173.515L141.091 171.372C140.884 171.167 140.7 170.996 140.539 170.859C140.378 170.723 140.222 170.62 140.072 170.552C139.921 170.483 139.76 170.449 139.589 170.449C139.394 170.449 139.227 170.493 139.089 170.582C138.948 170.67 138.839 170.792 138.763 170.947C138.687 171.101 138.649 171.277 138.649 171.474C138.649 171.677 138.691 171.855 138.775 172.008C138.858 172.161 138.975 172.279 139.128 172.364C139.281 172.446 139.463 172.487 139.674 172.487L139.674 173.552C139.282 173.552 138.941 173.462 138.652 173.283C138.362 173.104 138.138 172.858 137.979 172.545C137.82 172.229 137.741 171.867 137.741 171.459C137.741 171.045 137.818 170.681 137.973 170.368C138.128 170.054 138.34 169.811 138.609 169.638C138.879 169.463 139.186 169.376 139.532 169.376C139.763 169.376 139.99 169.42 140.213 169.509C140.436 169.597 140.684 169.753 140.955 169.976C141.226 170.197 141.555 170.508 141.941 170.908L143.023 171.972L143.065 171.972L143.065 169.282L144 169.282L144 173.515ZM144.084 165.981C144.082 166.277 144.031 166.565 143.931 166.846C143.828 167.128 143.662 167.381 143.433 167.606C143.202 167.831 142.896 168.01 142.514 168.143C142.13 168.276 141.654 168.341 141.088 168.339C140.559 168.339 140.088 168.283 139.674 168.17C139.26 168.057 138.91 167.896 138.624 167.685C138.337 167.474 138.118 167.219 137.967 166.922C137.816 166.622 137.741 166.288 137.741 165.918C137.741 165.53 137.817 165.186 137.97 164.887C138.123 164.585 138.332 164.342 138.597 164.157C138.861 163.972 139.158 163.858 139.49 163.813L139.49 164.914C139.253 164.97 139.064 165.086 138.923 165.261C138.78 165.433 138.709 165.653 138.709 165.918C138.709 166.346 138.895 166.676 139.267 166.907C139.638 167.136 140.149 167.251 140.798 167.253L140.798 167.211C140.621 167.113 140.47 166.985 140.343 166.828C140.216 166.672 140.119 166.495 140.05 166.298C139.98 166.099 139.945 165.889 139.945 165.668C139.945 165.306 140.031 164.981 140.204 164.694C140.377 164.404 140.615 164.175 140.919 164.006C141.22 163.838 141.566 163.754 141.956 163.756C142.362 163.754 142.727 163.847 143.05 164.034C143.372 164.22 143.625 164.481 143.81 164.814C143.995 165.148 144.086 165.537 144.084 165.981ZM143.18 165.987C143.18 165.768 143.127 165.572 143.02 165.399C142.914 165.226 142.77 165.09 142.589 164.989C142.408 164.889 142.205 164.84 141.98 164.842C141.759 164.84 141.559 164.888 141.38 164.986C141.201 165.083 141.059 165.216 140.955 165.387C140.85 165.558 140.798 165.753 140.798 165.972C140.798 166.135 140.829 166.287 140.892 166.427C140.954 166.568 141.04 166.691 141.151 166.795C141.259 166.9 141.386 166.982 141.531 167.042C141.673 167.101 141.826 167.131 141.989 167.133C142.204 167.131 142.402 167.081 142.583 166.982C142.764 166.884 142.909 166.748 143.017 166.575C143.126 166.402 143.18 166.206 143.18 165.987Z" fill="#383838"/>
<path d="M82 184.451L81.192 184.451L79.0906 182.308C78.8836 182.103 78.6997 181.932 78.5389 181.795C78.3781 181.658 78.2223 181.556 78.0716 181.488C77.9208 181.419 77.76 181.385 77.5892 181.385C77.3942 181.385 77.2274 181.429 77.0887 181.518C76.948 181.606 76.8395 181.728 76.7631 181.883C76.6867 182.037 76.6485 182.213 76.6485 182.41C76.6485 182.613 76.6907 182.791 76.7752 182.944C76.8576 183.097 76.9751 183.215 77.1279 183.3C77.2807 183.382 77.4626 183.423 77.6736 183.423L77.6736 184.487C77.2817 184.487 76.941 184.398 76.6515 184.219C76.3621 184.04 76.138 183.794 75.9792 183.48C75.8204 183.165 75.741 182.803 75.741 182.395C75.741 181.981 75.8184 181.617 75.9732 181.304C76.128 180.99 76.34 180.747 76.6093 180.574C76.8787 180.399 77.1862 180.312 77.5319 180.312C77.763 180.312 77.9902 180.356 78.2133 180.444C78.4364 180.533 78.6836 180.689 78.9549 180.912C79.2263 181.133 79.5549 181.443 79.9408 181.843L81.0232 182.908L81.0654 182.908L81.0654 180.218L82 180.218L82 184.451ZM82.1176 176.896C82.1176 177.392 81.992 177.818 81.7407 178.174C81.4875 178.528 81.1227 178.8 80.6463 178.991C80.1679 179.18 79.5921 179.275 78.9188 179.275C78.2454 179.273 77.6726 179.177 77.2003 178.988C76.7259 178.797 76.3641 178.525 76.1149 178.171C75.8657 177.815 75.741 177.39 75.741 176.896C75.741 176.401 75.8657 175.976 76.1149 175.621C76.3641 175.265 76.7259 174.992 77.2003 174.804C77.6746 174.613 78.2474 174.517 78.9188 174.517C79.5941 174.517 80.171 174.613 80.6493 174.804C81.1257 174.992 81.4895 175.265 81.7407 175.621C81.992 175.974 82.1176 176.399 82.1176 176.896ZM81.1739 176.896C81.1739 176.51 80.984 176.205 80.6041 175.982C80.2222 175.757 79.6604 175.645 78.9188 175.645C78.4283 175.645 78.0163 175.696 77.6826 175.798C77.349 175.901 77.0977 176.046 76.9289 176.233C76.7581 176.42 76.6726 176.641 76.6726 176.896C76.6726 177.28 76.8636 177.583 77.2455 177.806C77.6254 178.03 78.1831 178.142 78.9188 178.144C79.4112 178.146 79.8252 178.097 80.1609 177.996C80.4966 177.894 80.7498 177.749 80.9207 177.562C81.0895 177.375 81.1739 177.153 81.1739 176.896ZM82 173.515L81.192 173.515L79.0906 171.372C78.8836 171.167 78.6997 170.996 78.5389 170.859C78.3781 170.723 78.2223 170.62 78.0716 170.552C77.9208 170.483 77.76 170.449 77.5892 170.449C77.3942 170.449 77.2274 170.493 77.0887 170.582C76.948 170.67 76.8395 170.792 76.7631 170.947C76.6867 171.101 76.6485 171.277 76.6485 171.474C76.6485 171.677 76.6907 171.855 76.7752 172.008C76.8576 172.161 76.9751 172.279 77.1279 172.364C77.2807 172.446 77.4626 172.487 77.6736 172.487L77.6736 173.552C77.2817 173.552 76.941 173.462 76.6515 173.283C76.3621 173.104 76.138 172.858 75.9792 172.545C75.8204 172.229 75.741 171.867 75.741 171.459C75.741 171.045 75.8184 170.681 75.9732 170.368C76.128 170.054 76.34 169.811 76.6093 169.638C76.8787 169.463 77.1862 169.376 77.5319 169.376C77.763 169.376 77.9902 169.42 78.2133 169.509C78.4364 169.597 78.6836 169.753 78.9549 169.976C79.2263 170.197 79.5549 170.508 79.9408 170.908L81.0232 171.972L81.0654 171.972L81.0654 169.282L82 169.282L82 173.515ZM82.0844 166.096C82.0844 166.498 82.009 166.857 81.8583 167.175C81.7055 167.493 81.4965 167.745 81.2312 167.932C80.9659 168.117 80.6624 168.215 80.3207 168.227L80.3207 167.142C80.5739 167.122 80.781 167.012 80.9418 166.813C81.1005 166.614 81.1799 166.375 81.1799 166.096C81.1799 165.877 81.1297 165.682 81.0292 165.511C80.9287 165.34 80.789 165.205 80.6101 165.107C80.4312 165.008 80.2272 164.96 79.9981 164.962C79.7649 164.96 79.5579 165.009 79.377 165.11C79.1961 165.21 79.0544 165.348 78.9519 165.523C78.8474 165.698 78.7951 165.899 78.7951 166.126C78.7931 166.311 78.8273 166.493 78.8977 166.672C78.968 166.85 79.0605 166.992 79.175 167.097L79.0092 168.107L75.8255 167.784L75.8255 164.202L76.7601 164.202L76.7601 166.859L78.3972 167.036L78.3972 167C78.2625 166.886 78.151 166.724 78.0625 166.515C77.9721 166.306 77.9268 166.077 77.9268 165.827C77.9268 165.454 78.0153 165.12 78.1922 164.826C78.367 164.533 78.6082 164.302 78.9157 164.133C79.2233 163.964 79.575 163.88 79.971 163.88C80.379 163.88 80.7428 163.974 81.0624 164.163C81.3799 164.35 81.6302 164.61 81.8131 164.944C81.994 165.276 82.0844 165.66 82.0844 166.096Z" fill="#383838"/>
<path d="M20 184.451L19.192 184.451L17.0906 182.308C16.8836 182.103 16.6997 181.932 16.5389 181.795C16.3781 181.658 16.2223 181.556 16.0716 181.488C15.9208 181.419 15.76 181.385 15.5892 181.385C15.3942 181.385 15.2274 181.429 15.0887 181.518C14.948 181.606 14.8395 181.728 14.7631 181.883C14.6867 182.037 14.6485 182.213 14.6485 182.41C14.6485 182.613 14.6907 182.791 14.7752 182.944C14.8576 183.097 14.9751 183.215 15.1279 183.3C15.2807 183.382 15.4626 183.423 15.6736 183.423L15.6736 184.487C15.2817 184.487 14.941 184.398 14.6515 184.219C14.3621 184.04 14.138 183.794 13.9792 183.48C13.8204 183.165 13.741 182.803 13.741 182.395C13.741 181.981 13.8184 181.617 13.9732 181.304C14.128 180.99 14.34 180.747 14.6093 180.574C14.8787 180.399 15.1862 180.312 15.5319 180.312C15.763 180.312 15.9902 180.356 16.2133 180.444C16.4364 180.533 16.6836 180.689 16.9549 180.912C17.2263 181.133 17.5549 181.443 17.9408 181.843L19.0232 182.908L19.0654 182.908L19.0654 180.218L20 180.218L20 184.451ZM20.1176 176.896C20.1176 177.392 19.992 177.818 19.7407 178.174C19.4875 178.528 19.1227 178.8 18.6463 178.991C18.1679 179.18 17.5921 179.275 16.9188 179.275C16.2454 179.273 15.6726 179.177 15.2003 178.988C14.7259 178.797 14.3641 178.525 14.1149 178.171C13.8657 177.815 13.741 177.39 13.741 176.896C13.741 176.401 13.8657 175.976 14.1149 175.621C14.3641 175.265 14.7259 174.992 15.2003 174.804C15.6746 174.613 16.2474 174.517 16.9188 174.517C17.5941 174.517 18.171 174.613 18.6493 174.804C19.1257 174.992 19.4895 175.265 19.7407 175.621C19.992 175.974 20.1176 176.399 20.1176 176.896ZM19.1739 176.896C19.1739 176.51 18.984 176.205 18.6041 175.982C18.2222 175.757 17.6604 175.645 16.9188 175.645C16.4283 175.645 16.0163 175.696 15.6826 175.798C15.349 175.901 15.0977 176.046 14.9289 176.233C14.7581 176.42 14.6726 176.641 14.6726 176.896C14.6726 177.28 14.8636 177.583 15.2455 177.806C15.6254 178.03 16.1831 178.142 16.9188 178.144C17.4112 178.146 17.8252 178.097 18.1609 177.996C18.4966 177.894 18.7498 177.749 18.9207 177.562C19.0895 177.375 19.1739 177.153 19.1739 176.896ZM20 173.515L19.192 173.515L17.0906 171.372C16.8836 171.167 16.6997 170.996 16.5389 170.859C16.3781 170.723 16.2223 170.62 16.0716 170.552C15.9208 170.483 15.76 170.449 15.5892 170.449C15.3942 170.449 15.2274 170.493 15.0887 170.582C14.948 170.67 14.8395 170.792 14.7631 170.947C14.6867 171.101 14.6485 171.277 14.6485 171.474C14.6485 171.677 14.6907 171.855 14.7752 172.008C14.8576 172.161 14.9751 172.279 15.1279 172.364C15.2807 172.446 15.4626 172.487 15.6736 172.487L15.6736 173.552C15.2817 173.552 14.941 173.462 14.6515 173.283C14.3621 173.104 14.138 172.858 13.9792 172.545C13.8204 172.229 13.741 171.867 13.741 171.459C13.741 171.045 13.8184 170.681 13.9732 170.368C14.128 170.054 14.34 169.811 14.6093 169.638C14.8787 169.463 15.1862 169.376 15.5319 169.376C15.763 169.376 15.9902 169.42 16.2133 169.509C16.4364 169.597 16.6836 169.753 16.9549 169.976C17.2263 170.197 17.5549 170.508 17.9408 170.908L19.0232 171.972L19.0654 171.972L19.0654 169.282L20 169.282L20 173.515ZM18.8543 168.487L17.9649 168.487L13.8255 165.867L13.8255 165.125L15.0917 165.125L15.0917 165.577L17.8865 167.341L17.9348 167.341L17.9348 163.684L18.8543 163.684L18.8543 168.487ZM20 165.541L18.583 165.541L18.185 165.529L13.8255 165.529L13.8255 164.474L20 164.474L20 165.541Z" fill="#383838"/>
<path d="M26.5 202.5C26.5 183.5 37.606 173.575 49.4784 170.894C64.3188 167.543 66.2337 159.883 76.7656 150.309C85.1911 142.649 100.223 156.054 118.893 146.958C137.563 137.862 123.202 122.064 150.489 88.5536C161.014 75.6281 172.032 69.4047 193.095 69.4047C214.159 69.4047 223.45 70.2298 239.532 61.2664C258.738 50.5613 274 35.4153 274 16.7451" stroke="#3A3026" stroke-width="3.82979" stroke-linecap="round"/>
<path d="M268 184.451L267.192 184.451L265.091 182.308C264.884 182.103 264.7 181.932 264.539 181.795C264.378 181.658 264.222 181.556 264.072 181.488C263.921 181.419 263.76 181.385 263.589 181.385C263.394 181.385 263.227 181.429 263.089 181.518C262.948 181.606 262.839 181.728 262.763 181.883C262.687 182.037 262.649 182.213 262.649 182.41C262.649 182.613 262.691 182.791 262.775 182.944C262.858 183.097 262.975 183.215 263.128 183.3C263.281 183.382 263.463 183.423 263.674 183.423L263.674 184.487C263.282 184.487 262.941 184.398 262.652 184.219C262.362 184.04 262.138 183.794 261.979 183.48C261.82 183.165 261.741 182.803 261.741 182.395C261.741 181.981 261.818 181.617 261.973 181.304C262.128 180.99 262.34 180.747 262.609 180.574C262.879 180.399 263.186 180.312 263.532 180.312C263.763 180.312 263.99 180.356 264.213 180.444C264.436 180.533 264.684 180.689 264.955 180.912C265.226 181.133 265.555 181.443 265.941 181.843L267.023 182.908L267.065 182.908L267.065 180.218L268 180.218L268 184.451ZM268.118 176.896C268.118 177.392 267.992 177.818 267.741 178.174C267.487 178.528 267.123 178.8 266.646 178.991C266.168 179.18 265.592 179.275 264.919 179.275C264.245 179.273 263.673 179.177 263.2 178.988C262.726 178.797 262.364 178.525 262.115 178.171C261.866 177.815 261.741 177.39 261.741 176.896C261.741 176.401 261.866 175.976 262.115 175.621C262.364 175.265 262.726 174.992 263.2 174.804C263.675 174.613 264.247 174.517 264.919 174.517C265.594 174.517 266.171 174.613 266.649 174.804C267.126 174.992 267.489 175.265 267.741 175.621C267.992 175.974 268.118 176.399 268.118 176.896ZM267.174 176.896C267.174 176.51 266.984 176.205 266.604 175.982C266.222 175.757 265.66 175.645 264.919 175.645C264.428 175.645 264.016 175.696 263.683 175.798C263.349 175.901 263.098 176.046 262.929 176.233C262.758 176.42 262.673 176.641 262.673 176.896C262.673 177.28 262.864 177.583 263.245 177.806C263.625 178.03 264.183 178.142 264.919 178.144C265.411 178.146 265.825 178.097 266.161 177.996C266.497 177.894 266.75 177.749 266.921 177.562C267.089 177.375 267.174 177.153 267.174 176.896ZM268 173.515L267.192 173.515L265.091 171.372C264.884 171.167 264.7 170.996 264.539 170.859C264.378 170.723 264.222 170.62 264.072 170.552C263.921 170.483 263.76 170.449 263.589 170.449C263.394 170.449 263.227 170.493 263.089 170.582C262.948 170.67 262.839 170.792 262.763 170.947C262.687 171.101 262.649 171.277 262.649 171.474C262.649 171.677 262.691 171.855 262.775 172.008C262.858 172.161 262.975 172.279 263.128 172.364C263.281 172.446 263.463 172.487 263.674 172.487L263.674 173.552C263.282 173.552 262.941 173.462 262.652 173.283C262.362 173.104 262.138 172.858 261.979 172.545C261.82 172.229 261.741 171.867 261.741 171.459C261.741 171.045 261.818 170.681 261.973 170.368C262.128 170.054 262.34 169.811 262.609 169.638C262.879 169.463 263.186 169.376 263.532 169.376C263.763 169.376 263.99 169.42 264.213 169.509C264.436 169.597 264.684 169.753 264.955 169.976C265.226 170.197 265.555 170.508 265.941 170.908L267.023 171.972L267.065 171.972L267.065 169.282L268 169.282L268 173.515ZM268.084 166.047C268.084 166.496 268.009 166.894 267.858 167.241C267.708 167.587 267.502 167.858 267.24 168.055C266.977 168.25 266.678 168.347 266.345 168.345C266.086 168.347 265.847 168.291 265.63 168.176C265.413 168.061 265.232 167.907 265.088 167.712C264.941 167.515 264.847 167.296 264.807 167.054L264.765 167.054C264.695 167.372 264.533 167.629 264.28 167.826C264.024 168.021 263.73 168.118 263.396 168.116C263.079 168.118 262.795 168.029 262.546 167.85C262.297 167.672 262.101 167.426 261.958 167.115C261.813 166.803 261.741 166.447 261.741 166.047C261.741 165.652 261.813 165.299 261.958 164.989C262.101 164.678 262.297 164.433 262.546 164.254C262.795 164.073 263.079 163.982 263.396 163.982C263.73 163.982 264.024 164.082 264.28 164.281C264.533 164.478 264.695 164.732 264.765 165.044L264.807 165.044C264.847 164.802 264.941 164.585 265.088 164.392C265.232 164.197 265.413 164.043 265.63 163.928C265.847 163.811 266.086 163.753 266.345 163.753C266.678 163.753 266.977 163.852 267.24 164.049C267.502 164.246 267.708 164.517 267.858 164.863C268.009 165.206 268.084 165.601 268.084 166.047ZM267.222 166.047C267.222 165.816 267.183 165.615 267.105 165.445C267.024 165.274 266.912 165.141 266.767 165.047C266.622 164.952 266.455 164.904 266.266 164.902C266.069 164.904 265.896 164.955 265.745 165.056C265.592 165.154 265.472 165.29 265.386 165.463C265.3 165.633 265.256 165.828 265.256 166.047C265.256 166.269 265.3 166.466 265.386 166.638C265.472 166.811 265.592 166.948 265.745 167.048C265.896 167.147 266.069 167.195 266.266 167.193C266.455 167.195 266.622 167.149 266.767 167.054C266.91 166.96 267.021 166.827 267.102 166.657C267.182 166.484 267.222 166.281 267.222 166.047ZM264.409 166.047C264.409 165.859 264.371 165.692 264.295 165.547C264.218 165.4 264.112 165.285 263.975 165.2C263.838 165.116 263.681 165.073 263.502 165.071C263.325 165.073 263.17 165.115 263.037 165.197C262.903 165.28 262.799 165.394 262.727 165.541C262.653 165.688 262.615 165.857 262.615 166.047C262.615 166.242 262.653 166.414 262.727 166.563C262.799 166.71 262.903 166.824 263.037 166.907C263.17 166.987 263.325 167.026 263.502 167.024C263.681 167.026 263.838 166.986 263.975 166.904C264.11 166.819 264.216 166.704 264.295 166.557C264.371 166.408 264.409 166.238 264.409 166.047Z" fill="#383838"/>
<circle cx="150" cy="88" r="32" fill="url(#paint5_radial_2325_7859)" fill-opacity="0.5"/>
<g filter="url(#filter5_d_2325_7859)">
<path d="M150.489 82.8091C153.397 82.8091 155.754 85.1665 155.755 88.0747C155.755 90.983 153.397 93.3413 150.489 93.3413C150.071 93.3413 149.666 93.2906 149.276 93.1987C138.139 107.906 135.29 118.883 133.325 127.344C132.273 131.874 131.412 136.039 129.568 139.589C127.655 143.274 124.731 146.244 119.732 148.679C109.821 153.508 100.875 152.327 93.656 151.057C89.9755 150.41 86.9377 149.782 84.2517 149.748C81.6582 149.714 79.6798 150.247 78.0535 151.725C75.4939 154.052 73.4511 156.269 71.573 158.37C69.7145 160.448 67.9587 162.483 66.0691 164.311C62.182 168.071 57.6831 171.004 49.9001 172.761C44.3301 174.019 38.9768 176.967 35.0173 181.792C31.0696 186.602 28.4149 193.39 28.4148 202.5C28.4148 203.557 27.5573 204.415 26.4998 204.415C25.4423 204.414 24.5847 203.557 24.5847 202.5C24.5848 192.609 27.4832 184.934 32.0564 179.362C36.6179 173.804 42.7545 170.449 49.0564 169.026C56.1136 167.432 59.9926 164.86 63.406 161.558C65.1663 159.855 66.7915 157.971 68.7175 155.817C70.6243 153.684 72.771 151.352 75.4773 148.892C78.0634 146.541 81.1241 145.876 84.3015 145.917C87.3869 145.957 90.8549 146.676 94.3191 147.286C101.39 148.529 109.295 149.503 118.054 145.236C122.39 143.123 124.672 140.708 126.17 137.825C127.736 134.808 128.492 131.223 129.594 126.478C131.627 117.726 134.633 106.235 146.122 91.0181C145.554 90.1778 145.223 89.1648 145.223 88.0747C145.224 85.1666 147.581 82.8091 150.489 82.8091Z" fill="#EF801A"/>
</g>
</g>
<defs>
<filter id="filter0_ii_2325_7859" x="19" y="-34.3746" width="15" height="266.749" filterUnits="userSpaceOnUse" color-interpolation-filters="sRGB">
<feFlood flood-opacity="0" result="BackgroundImageFix"/>
<feBlend mode="normal" in="SourceGraphic" in2="BackgroundImageFix" result="shape"/>
<feColorMatrix in="SourceAlpha" type="matrix" values="0 0 0 0 0 0 0 0 0 0 0 0 0 0 0 0 0 0 127 0" result="hardAlpha"/>
<feOffset dy="0.374615"/>
<feGaussianBlur stdDeviation="0.374615"/>
<feComposite in2="hardAlpha" operator="arithmetic" k2="-1" k3="1"/>
<feColorMatrix type="matrix" values="0 0 0 0 1 0 0 0 0 1 0 0 0 0 1 0 0 0 0.25 0"/>
<feBlend mode="normal" in2="shape" result="effect1_innerShadow_2325_7859"/>
<feColorMatrix in="SourceAlpha" type="matrix" values="0 0 0 0 0 0 0 0 0 0 0 0 0 0 0 0 0 0 127 0" result="hardAlpha"/>
<feOffset dy="-0.374615"/>
<feGaussianBlur stdDeviation="0.374615"/>
<feComposite in2="hardAlpha" operator="arithmetic" k2="-1" k3="1"/>
<feColorMatrix type="matrix" values="0 0 0 0 0 0 0 0 0 0 0 0 0 0 0 0 0 0 0.12 0"/>
<feBlend mode="normal" in2="effect1_innerShadow_2325_7859" result="effect2_innerShadow_2325_7859"/>
</filter>
<filter id="filter1_ii_2325_7859" x="81" y="-34.3746" width="15" height="266.749" filterUnits="userSpaceOnUse" color-interpolation-filters="sRGB">
<feFlood flood-opacity="0" result="BackgroundImageFix"/>
<feBlend mode="normal" in="SourceGraphic" in2="BackgroundImageFix" result="shape"/>
<feColorMatrix in="SourceAlpha" type="matrix" values="0 0 0 0 0 0 0 0 0 0 0 0 0 0 0 0 0 0 127 0" result="hardAlpha"/>
<feOffset dy="0.374615"/>
<feGaussianBlur stdDeviation="0.374615"/>
<feComposite in2="hardAlpha" operator="arithmetic" k2="-1" k3="1"/>
<feColorMatrix type="matrix" values="0 0 0 0 1 0 0 0 0 1 0 0 0 0 1 0 0 0 0.25 0"/>
<feBlend mode="normal" in2="shape" result="effect1_innerShadow_2325_7859"/>
<feColorMatrix in="SourceAlpha" type="matrix" values="0 0 0 0 0 0 0 0 0 0 0 0 0 0 0 0 0 0 127 0" result="hardAlpha"/>
<feOffset dy="-0.374615"/>
<feGaussianBlur stdDeviation="0.374615"/>
<feComposite in2="hardAlpha" operator="arithmetic" k2="-1" k3="1"/>
<feColorMatrix type="matrix" values="0 0 0 0 0 0 0 0 0 0 0 0 0 0 0 0 0 0 0.12 0"/>
<feBlend mode="normal" in2="effect1_innerShadow_2325_7859" result="effect2_innerShadow_2325_7859"/>
</filter>
<filter id="filter2_ii_2325_7859" x="143" y="-34.3746" width="15" height="266.749" filterUnits="userSpaceOnUse" color-interpolation-filters="sRGB">
<feFlood flood-opacity="0" result="BackgroundImageFix"/>
<feBlend mode="normal" in="SourceGraphic" in2="BackgroundImageFix" result="shape"/>
<feColorMatrix in="SourceAlpha" type="matrix" values="0 0 0 0 0 0 0 0 0 0 0 0 0 0 0 0 0 0 127 0" result="hardAlpha"/>
<feOffset dy="0.374615"/>
<feGaussianBlur stdDeviation="0.374615"/>
<feComposite in2="hardAlpha" operator="arithmetic" k2="-1" k3="1"/>
<feColorMatrix type="matrix" values="0 0 0 0 1 0 0 0 0 1 0 0 0 0 1 0 0 0 0.25 0"/>
<feBlend mode="normal" in2="shape" result="effect1_innerShadow_2325_7859"/>
<feColorMatrix in="SourceAlpha" type="matrix" values="0 0 0 0 0 0 0 0 0 0 0 0 0 0 0 0 0 0 127 0" result="hardAlpha"/>
<feOffset dy="-0.374615"/>
<feGaussianBlur stdDeviation="0.374615"/>
<feComposite in2="hardAlpha" operator="arithmetic" k2="-1" k3="1"/>
<feColorMatrix type="matrix" values="0 0 0 0 0 0 0 0 0 0 0 0 0 0 0 0 0 0 0.12 0"/>
<feBlend mode="normal" in2="effect1_innerShadow_2325_7859" result="effect2_innerShadow_2325_7859"/>
</filter>
<filter id="filter3_ii_2325_7859" x="267" y="-34.3746" width="15" height="266.749" filterUnits="userSpaceOnUse" color-interpolation-filters="sRGB">
<feFlood flood-opacity="0" result="BackgroundImageFix"/>
<feBlend mode="normal" in="SourceGraphic" in2="BackgroundImageFix" result="shape"/>
<feColorMatrix in="SourceAlpha" type="matrix" values="0 0 0 0 0 0 0 0 0 0 0 0 0 0 0 0 0 0 127 0" result="hardAlpha"/>
<feOffset dy="0.374615"/>
<feGaussianBlur stdDeviation="0.374615"/>
<feComposite in2="hardAlpha" operator="arithmetic" k2="-1" k3="1"/>
<feColorMatrix type="matrix" values="0 0 0 0 1 0 0 0 0 1 0 0 0 0 1 0 0 0 0.25 0"/>
<feBlend mode="normal" in2="shape" result="effect1_innerShadow_2325_7859"/>
<feColorMatrix in="SourceAlpha" type="matrix" values="0 0 0 0 0 0 0 0 0 0 0 0 0 0 0 0 0 0 127 0" result="hardAlpha"/>
<feOffset dy="-0.374615"/>
<feGaussianBlur stdDeviation="0.374615"/>
<feComposite in2="hardAlpha" operator="arithmetic" k2="-1" k3="1"/>
<feColorMatrix type="matrix" values="0 0 0 0 0 0 0 0 0 0 0 0 0 0 0 0 0 0 0.12 0"/>
<feBlend mode="normal" in2="effect1_innerShadow_2325_7859" result="effect2_innerShadow_2325_7859"/>
</filter>
<filter id="filter4_ii_2325_7859" x="205" y="-34.3746" width="15" height="266.749" filterUnits="userSpaceOnUse" color-interpolation-filters="sRGB">
<feFlood flood-opacity="0" result="BackgroundImageFix"/>
<feBlend mode="normal" in="SourceGraphic" in2="BackgroundImageFix" result="shape"/>
<feColorMatrix in="SourceAlpha" type="matrix" values="0 0 0 0 0 0 0 0 0 0 0 0 0 0 0 0 0 0 127 0" result="hardAlpha"/>
<feOffset dy="0.374615"/>
<feGaussianBlur stdDeviation="0.374615"/>
<feComposite in2="hardAlpha" operator="arithmetic" k2="-1" k3="1"/>
<feColorMatrix type="matrix" values="0 0 0 0 1 0 0 0 0 1 0 0 0 0 1 0 0 0 0.25 0"/>
<feBlend mode="normal" in2="shape" result="effect1_innerShadow_2325_7859"/>
<feColorMatrix in="SourceAlpha" type="matrix" values="0 0 0 0 0 0 0 0 0 0 0 0 0 0 0 0 0 0 127 0" result="hardAlpha"/>
<feOffset dy="-0.374615"/>
<feGaussianBlur stdDeviation="0.374615"/>
<feComposite in2="hardAlpha" operator="arithmetic" k2="-1" k3="1"/>
<feColorMatrix type="matrix" values="0 0 0 0 0 0 0 0 0 0 0 0 0 0 0 0 0 0 0.12 0"/>
<feBlend mode="normal" in2="effect1_innerShadow_2325_7859" result="effect2_innerShadow_2325_7859"/>
</filter>
<filter id="filter5_d_2325_7859" x="19.7017" y="77.9261" width="140.936" height="131.371" filterUnits="userSpaceOnUse" color-interpolation-filters="sRGB">
<feFlood flood-opacity="0" result="BackgroundImageFix"/>
<feColorMatrix in="SourceAlpha" type="matrix" values="0 0 0 0 0 0 0 0 0 0 0 0 0 0 0 0 0 0 127 0" result="hardAlpha"/>
<feOffset/>
<feGaussianBlur stdDeviation="2.44149"/>
<feComposite in2="hardAlpha" operator="out"/>
<feColorMatrix type="matrix" values="0 0 0 0 0.937255 0 0 0 0 0.501961 0 0 0 0 0.101961 0 0 0 0.46 0"/>
<feBlend mode="normal" in2="BackgroundImageFix" result="effect1_dropShadow_2325_7859"/>
<feBlend mode="normal" in="SourceGraphic" in2="effect1_dropShadow_2325_7859" result="shape"/>
</filter>
<linearGradient id="paint0_linear_2325_7859" x1="26" y1="116" x2="25" y2="116" gradientUnits="userSpaceOnUse">
<stop stop-color="white" stop-opacity="0.08"/>
<stop offset="1" stop-color="#999999"/>
</linearGradient>
<linearGradient id="paint1_linear_2325_7859" x1="88" y1="116" x2="87" y2="116" gradientUnits="userSpaceOnUse">
<stop stop-color="white" stop-opacity="0.08"/>
<stop offset="1" stop-color="#999999"/>
</linearGradient>
<linearGradient id="paint2_linear_2325_7859" x1="150" y1="116" x2="149" y2="116" gradientUnits="userSpaceOnUse">
<stop stop-color="white" stop-opacity="0.08"/>
<stop offset="1" stop-color="#999999"/>
</linearGradient>
<linearGradient id="paint3_linear_2325_7859" x1="274" y1="116" x2="273" y2="116" gradientUnits="userSpaceOnUse">
<stop stop-color="white" stop-opacity="0.08"/>
<stop offset="1" stop-color="#999999"/>
</linearGradient>
<linearGradient id="paint4_linear_2325_7859" x1="212" y1="116" x2="211" y2="116" gradientUnits="userSpaceOnUse">
<stop stop-color="white" stop-opacity="0.08"/>
<stop offset="1" stop-color="#999999"/>
</linearGradient>
<radialGradient id="paint5_radial_2325_7859" cx="0" cy="0" r="1" gradientUnits="userSpaceOnUse" gradientTransform="translate(150 88) rotate(90) scale(32)">
<stop stop-color="#EF801A"/>
<stop offset="0.557692" stop-color="#F97700" stop-opacity="0"/>
</radialGradient>
<clipPath id="clip0_2325_7859">
<rect width="300" height="200" fill="white"/>
</clipPath>
</defs>
</svg>
