<svg viewBox="0 0 300 200" fill="none" xmlns="http://www.w3.org/2000/svg">
<g clip-path="url(#clip0_2330_1432)">
<g filter="url(#filter0_ii_2330_1432)">
<g opacity="0.1" clip-path="url(#clip1_2330_1432)">
<path d="M50.0398 206.894C61.0408 206.894 67.1565 206.894 71.1508 202.9C75.1452 198.905 75.1452 192.79 75.1452 181.789C75.1452 170.787 75.1452 164.672 71.1508 160.677C67.1565 156.683 61.0408 156.683 50.0398 156.683C39.0387 156.683 32.9231 156.683 28.9287 160.677C24.9343 164.672 24.9343 170.787 24.9343 181.789C24.9343 192.79 24.9343 198.905 28.9287 202.9C32.9231 206.894 39.0387 206.894 50.0398 206.894Z" stroke="white" stroke-width="1.78415" stroke-linecap="round" stroke-dasharray="7.14 6.24"/>
<path d="M50.8247 180.33H55.8013V182.364H50.8247V187.34H48.7905V182.364H43.814V180.33H48.7905V175.353H50.8247V180.33Z" fill="white"/>
</g>
</g>
<g filter="url(#filter1_ii_2330_1432)">
<g opacity="0.1" clip-path="url(#clip2_2330_1432)">
<path d="M183.565 71.6694C194.566 71.6694 200.682 71.6694 204.676 67.675C208.671 63.6806 208.671 57.565 208.671 46.5639C208.671 35.5629 208.671 29.4472 204.676 25.4529C200.682 21.4585 194.566 21.4585 183.565 21.4585C172.564 21.4585 166.448 21.4585 162.454 25.4529C158.46 29.4472 158.46 35.5629 158.46 46.5639C158.46 57.565 158.46 63.6806 162.454 67.675C166.448 71.6694 172.564 71.6694 183.565 71.6694Z" stroke="white" stroke-width="1.78415" stroke-linecap="round" stroke-dasharray="7.14 6.24"/>
<path d="M184.35 45.1045H189.326V47.1387H184.35V52.1152H182.316V47.1387H177.339V45.1045H182.316V40.1279H184.35V45.1045Z" fill="white"/>
</g>
</g>
<g filter="url(#filter2_ii_2330_1432)">
<g clip-path="url(#clip3_2330_1432)">
<path d="M185.712 207.857C197.244 207.857 203.654 207.857 207.841 203.67C212.028 199.483 212.028 193.072 212.028 181.541C212.028 170.009 212.028 163.599 207.841 159.412C203.654 155.225 197.244 155.225 185.712 155.225C174.181 155.225 167.77 155.225 163.583 159.412C159.396 163.599 159.396 170.009 159.396 181.541C159.396 193.072 159.396 199.483 163.583 203.67C167.77 207.857 174.181 207.857 185.712 207.857Z" fill="#151617"/>
<path d="M185.712 155.521C191.486 155.521 195.947 155.522 199.488 156.041C203.019 156.559 205.599 157.589 207.631 159.621C209.664 161.653 210.693 164.234 211.211 167.765C211.731 171.306 211.732 175.767 211.732 181.541C211.732 187.315 211.731 191.775 211.211 195.316C210.693 198.848 209.664 201.428 207.631 203.46C205.599 205.492 203.019 206.522 199.488 207.04C195.947 207.56 191.486 207.561 185.712 207.561C179.938 207.561 175.477 207.56 171.936 207.04C168.405 206.522 165.825 205.492 163.792 203.46C161.76 201.428 160.73 198.847 160.212 195.316C159.693 191.775 159.693 187.315 159.693 181.541C159.693 175.767 159.693 171.306 160.212 167.765C160.73 164.234 161.76 161.653 163.792 159.621C165.825 157.589 168.405 156.559 171.936 156.041C175.477 155.522 179.938 155.521 185.712 155.521Z" stroke="white" stroke-opacity="0.05" stroke-width="0.593257"/>
<path d="M185.712 207.857C197.244 207.857 203.654 207.857 207.841 203.67C212.028 199.483 212.028 193.072 212.028 181.541C212.028 170.009 212.028 163.599 207.841 159.412C203.654 155.225 197.244 155.225 185.712 155.225C174.181 155.225 167.77 155.225 163.583 159.412C159.396 163.599 159.396 170.009 159.396 181.541C159.396 193.072 159.396 199.483 163.583 203.67C167.77 207.857 174.181 207.857 185.712 207.857Z" fill="url(#paint0_linear_2330_1432)"/>
<path opacity="0.4" d="M185.712 207.857C197.244 207.857 203.654 207.857 207.841 203.67C212.028 199.483 212.028 193.072 212.028 181.541C212.028 170.009 212.028 163.599 207.841 159.412C203.654 155.225 197.244 155.225 185.712 155.225C174.181 155.225 167.77 155.225 163.583 159.412C159.396 163.599 159.396 170.009 159.396 181.541C159.396 193.072 159.396 199.483 163.583 203.67C167.77 207.857 174.181 207.857 185.712 207.857Z" fill="url(#paint1_linear_2330_1432)"/>
<g filter="url(#filter3_d_2330_1432)">
<path d="M186.216 165.022C190.459 167.499 194.719 169.947 198.964 172.419C199.427 172.72 199.961 172.993 200.236 173.496C200.38 174.156 200.315 174.839 200.326 175.511C200.317 179.859 200.319 184.208 200.326 188.557C200.317 189.002 200.333 189.457 200.238 189.897C199.959 190.331 199.487 190.583 199.064 190.852C195.425 192.938 191.803 195.056 188.176 197.161C187.404 197.593 186.667 198.112 185.825 198.406C185.307 198.332 184.856 198.033 184.403 197.793C180.727 195.62 177.009 193.521 173.331 191.353C172.599 190.942 171.887 190.492 171.239 189.956V173.44C172.129 172.559 173.287 172.046 174.34 171.396C178.004 169.264 181.659 167.116 185.342 165.022H186.216ZM175.654 173.853C174.619 173.887 173.58 173.774 172.545 173.893C173.164 174.499 174.001 174.776 174.717 175.235C178.353 177.395 182.05 179.453 185.665 181.647C185.854 182.701 185.77 183.777 185.781 184.843C185.786 188.489 185.772 192.138 185.779 195.785C185.779 196.195 185.821 196.604 185.888 197.007C186.16 196.641 186.418 196.263 186.639 195.864C190.552 189.058 194.472 182.259 198.36 175.438C198.648 174.961 198.869 174.448 199.038 173.916C197.606 173.802 196.169 173.862 194.735 173.853C188.376 173.848 182.015 173.848 175.654 173.853Z" fill="white"/>
</g>
</g>
</g>
<g filter="url(#filter4_ii_2330_1432)">
<g clip-path="url(#clip4_2330_1432)">
<path d="M251.416 72.6324C262.947 72.6324 269.358 72.6324 273.545 68.4454C277.732 64.2584 277.732 57.8478 277.732 46.3162C277.732 34.7846 277.732 28.374 273.545 24.187C269.358 20 262.947 20 251.416 20C239.884 20 233.474 20 229.287 24.187C225.1 28.374 225.1 34.7846 225.1 46.3162C225.1 57.8478 225.1 64.2584 229.287 68.4454C233.474 72.6324 239.884 72.6324 251.416 72.6324Z" fill="#151617"/>
<path d="M251.416 20.2969C257.19 20.2969 261.65 20.2969 265.191 20.8164C268.722 21.3344 271.303 22.3643 273.335 24.3965C275.367 26.4288 276.397 29.0091 276.915 32.54C277.435 36.0812 277.436 40.5421 277.436 46.3164C277.436 52.0905 277.435 56.5507 276.915 60.0918C276.397 63.6229 275.367 66.2029 273.335 68.2354C271.303 70.2678 268.723 71.2974 265.191 71.8154C261.65 72.3349 257.19 72.3359 251.416 72.3359C245.642 72.3359 241.181 72.3349 237.64 71.8154C234.109 71.2974 231.528 70.2677 229.496 68.2354C227.464 66.203 226.434 63.6227 225.916 60.0918C225.397 56.5508 225.396 52.0904 225.396 46.3164C225.396 40.5421 225.397 36.0812 225.916 32.54C226.434 29.0091 227.464 26.4288 229.496 24.3965C231.528 22.3641 234.109 21.3345 237.64 20.8164C241.181 20.2969 245.642 20.2969 251.416 20.2969Z" stroke="white" stroke-opacity="0.05" stroke-width="0.593257"/>
<path d="M251.416 72.6324C262.947 72.6324 269.358 72.6324 273.545 68.4454C277.732 64.2584 277.732 57.8478 277.732 46.3162C277.732 34.7846 277.732 28.374 273.545 24.187C269.358 20 262.947 20 251.416 20C239.884 20 233.474 20 229.287 24.187C225.1 28.374 225.1 34.7846 225.1 46.3162C225.1 57.8478 225.1 64.2584 229.287 68.4454C233.474 72.6324 239.884 72.6324 251.416 72.6324Z" fill="url(#paint2_linear_2330_1432)"/>
<path opacity="0.4" d="M251.416 72.6324C262.947 72.6324 269.358 72.6324 273.545 68.4454C277.732 64.2584 277.732 57.8478 277.732 46.3162C277.732 34.7846 277.732 28.374 273.545 24.187C269.358 20 262.947 20 251.416 20C239.884 20 233.474 20 229.287 24.187C225.1 28.374 225.1 34.7846 225.1 46.3162C225.1 57.8478 225.1 64.2584 229.287 68.4454C233.474 72.6324 239.884 72.6324 251.416 72.6324Z" fill="url(#paint3_linear_2330_1432)"/>
</g>
<g filter="url(#filter5_i_2330_1432)">
<g clip-path="url(#clip5_2330_1432)">
<g filter="url(#filter6_ii_2330_1432)">
<g clip-path="url(#clip6_2330_1432)">
<path d="M251.319 27.1191C240.773 27.1191 232.219 35.6714 232.219 46.2196C232.219 54.6588 237.691 61.8183 245.282 64.3444C246.235 64.521 246.544 63.9289 246.544 63.4259V59.8701C241.231 61.0257 240.125 57.6162 240.125 57.6162C239.256 55.4085 238.003 54.8212 238.003 54.8212C236.27 53.6354 238.135 53.6608 238.135 53.6608C240.053 53.7945 241.062 55.6298 241.062 55.6298C242.765 58.549 245.53 57.7054 246.621 57.2167C246.791 55.9831 247.286 55.1395 247.833 54.6636C243.591 54.1781 239.132 52.5403 239.132 45.2232C239.132 43.1365 239.878 41.4334 241.099 40.0963C240.902 39.614 240.247 37.6706 241.285 35.0411C241.285 35.0411 242.89 34.5285 246.539 36.9989C248.063 36.5755 249.696 36.3638 251.319 36.3558C252.943 36.3638 254.577 36.5755 256.104 36.9989C259.75 34.5285 261.352 35.0411 261.352 35.0411C262.391 37.6722 261.737 39.6156 261.54 40.0963C262.765 41.4334 263.505 43.1381 263.505 45.2232C263.505 52.5594 259.037 54.175 254.784 54.6477C255.469 55.2398 256.094 56.4018 256.094 58.1845V63.4259C256.094 63.9337 256.4 64.5306 257.369 64.3428C264.954 61.8136 270.42 54.6557 270.42 46.2196C270.42 35.6714 261.867 27.1191 251.319 27.1191Z" fill="url(#paint4_linear_2330_1432)"/>
</g>
</g>
</g>
</g>
</g>
<g filter="url(#filter7_ii_2330_1432)">
<g clip-path="url(#clip7_2330_1432)">
<path d="M48.886 72.6324C60.4176 72.6324 66.8282 72.6324 71.0152 68.4454C75.2022 64.2584 75.2022 57.8478 75.2022 46.3162C75.2022 34.7846 75.2022 28.374 71.0152 24.187C66.8282 20 60.4176 20 48.886 20C37.3544 20 30.9438 20 26.7568 24.187C22.5698 28.374 22.5698 34.7846 22.5698 46.3162C22.5698 57.8478 22.5698 64.2584 26.7568 68.4454C30.9438 72.6324 37.3544 72.6324 48.886 72.6324Z" fill="#545555" fill-opacity="0.4"/>
</g>
</g>
<g filter="url(#filter8_ii_2330_1432)">
<g clip-path="url(#clip8_2330_1432)">
<path d="M116.682 139.856C128.214 139.856 134.625 139.856 138.812 135.669C142.999 131.482 142.999 125.071 142.999 113.539C142.999 102.008 142.999 95.5972 138.812 91.4101C134.625 87.2231 128.214 87.2231 116.682 87.2231C105.151 87.2231 98.7402 87.2231 94.5532 91.4101C90.3662 95.5972 90.3662 102.008 90.3662 113.539C90.3662 125.071 90.3662 131.482 94.5532 135.669C98.7402 139.856 105.151 139.856 116.682 139.856Z" fill="#00005B"/>
<path d="M116.683 87.52C122.457 87.52 126.917 87.5201 130.458 88.0396C133.989 88.5576 136.569 89.5874 138.602 91.6196C140.634 93.652 141.664 96.2323 142.182 99.7632C142.701 103.304 142.702 107.765 142.702 113.54C142.702 119.314 142.701 123.774 142.182 127.315C141.664 130.846 140.634 133.426 138.602 135.458C136.569 137.491 133.989 138.521 130.458 139.039C126.917 139.558 122.457 139.559 116.683 139.559C110.908 139.559 106.447 139.558 102.906 139.039C99.3753 138.521 96.795 137.491 94.7627 135.458C92.7305 133.426 91.7006 130.846 91.1826 127.315C90.6632 123.774 90.6631 119.314 90.6631 113.54C90.6631 107.765 90.6631 103.304 91.1826 99.7632C91.7007 96.2322 92.7303 93.652 94.7627 91.6196C96.7951 89.5873 99.3753 88.5576 102.906 88.0396C106.447 87.52 110.908 87.52 116.683 87.52Z" stroke="white" stroke-opacity="0.05" stroke-width="0.593257"/>
<path d="M116.682 139.856C128.214 139.856 134.625 139.856 138.812 135.669C142.999 131.482 142.999 125.071 142.999 113.539C142.999 102.008 142.999 95.5972 138.812 91.4101C134.625 87.2231 128.214 87.2231 116.682 87.2231C105.151 87.2231 98.7402 87.2231 94.5532 91.4101C90.3662 95.5972 90.3662 102.008 90.3662 113.539C90.3662 125.071 90.3662 131.482 94.5532 135.669C98.7402 139.856 105.151 139.856 116.682 139.856Z" fill="url(#paint5_linear_2330_1432)"/>
<path opacity="0.4" d="M116.682 139.856C128.214 139.856 134.625 139.856 138.812 135.669C142.999 131.482 142.999 125.071 142.999 113.539C142.999 102.008 142.999 95.5972 138.812 91.4101C134.625 87.2231 128.214 87.2231 116.682 87.2231C105.151 87.2231 98.7402 87.2231 94.5532 91.4101C90.3662 95.5972 90.3662 102.008 90.3662 113.539C90.3662 125.071 90.3662 131.482 94.5532 135.669C98.7402 139.856 105.151 139.856 116.682 139.856Z" fill="url(#paint6_linear_2330_1432)"/>
<g filter="url(#filter9_d_2330_1432)">
<path d="M112.137 119.123H104.303L102.709 124.183C102.688 124.275 102.636 124.357 102.562 124.414C102.487 124.471 102.395 124.5 102.302 124.495H98.339C98.1131 124.495 98.0342 124.367 98.1023 124.113L104.885 104.273C104.952 104.066 105.02 103.862 105.088 103.598C105.177 103.136 105.222 102.667 105.223 102.196C105.216 102.14 105.23 102.083 105.264 102.038C105.297 101.993 105.347 101.963 105.402 101.955C105.421 101.952 105.441 101.952 105.461 101.955H110.853C111.011 101.955 111.101 102.012 111.124 102.128L118.818 124.148C118.884 124.379 118.816 124.495 118.615 124.495H114.206C114.13 124.503 114.054 124.483 113.991 124.438C113.929 124.394 113.885 124.328 113.866 124.252L112.137 119.123ZM105.528 114.857H110.886C110.75 114.396 110.592 113.878 110.411 113.301C110.23 112.724 110.038 112.107 109.835 111.45L109.224 109.479C109.021 108.822 108.835 108.188 108.665 107.576C108.495 106.964 108.341 106.405 108.203 105.899H108.169C107.978 106.833 107.741 107.757 107.457 108.666C107.14 109.704 106.818 110.765 106.49 111.848C106.162 112.931 105.84 113.934 105.524 114.857H105.528Z" fill="#9999FF"/>
<path d="M130.935 117.33H124.213C124.295 118.003 124.516 118.652 124.861 119.234C125.242 119.81 125.782 120.26 126.413 120.529C127.269 120.904 128.194 121.088 129.126 121.068C129.866 121.054 130.602 120.972 131.327 120.823C131.975 120.733 132.61 120.565 133.219 120.32C133.332 120.229 133.389 120.287 133.389 120.493V123.776C133.4 123.858 133.386 123.941 133.349 124.015C133.313 124.089 133.256 124.15 133.185 124.191C132.51 124.494 131.799 124.708 131.071 124.828C130.081 125.017 129.075 125.104 128.068 125.088C126.453 125.088 125.099 124.834 124.008 124.328C122.976 123.867 122.065 123.169 121.346 122.289C120.676 121.46 120.177 120.503 119.879 119.475C119.585 118.459 119.435 117.406 119.436 116.347C119.433 115.191 119.611 114.042 119.965 112.943C120.306 111.871 120.844 110.875 121.553 110.006C122.251 109.148 123.124 108.453 124.112 107.968C125.113 107.472 126.296 107.294 127.661 107.294C128.793 107.266 129.917 107.491 130.954 107.952C131.825 108.328 132.592 108.915 133.188 109.661C133.747 110.391 134.175 111.216 134.45 112.097C134.719 112.946 134.857 113.832 134.86 114.724C134.86 115.23 134.843 115.691 134.809 116.106C134.775 116.52 134.746 116.819 134.724 117.004C134.715 117.08 134.679 117.151 134.622 117.201C134.565 117.252 134.492 117.281 134.417 117.281C134.28 117.281 134.047 117.298 133.717 117.332C133.387 117.367 132.977 117.389 132.489 117.401C132.001 117.413 131.481 117.33 130.935 117.33ZM124.213 114.182H128.679C129.225 114.182 129.628 114.176 129.89 114.165C130.065 114.147 130.235 114.09 130.386 113.999V113.791C130.379 113.521 130.333 113.253 130.249 112.997C130.065 112.407 129.695 111.895 129.196 111.539C128.696 111.183 128.095 111.003 127.485 111.027C126.911 110.992 126.339 111.127 125.839 111.415C125.339 111.703 124.933 112.133 124.67 112.651C124.438 113.133 124.283 113.65 124.213 114.182Z" fill="#9999FF"/>
</g>
</g>
</g>
<g filter="url(#filter10_ii_2330_1432)">
<g clip-path="url(#clip9_2330_1432)">
<path d="M251.477 139.856C263.008 139.856 269.419 139.856 273.606 135.669C277.793 131.482 277.793 125.071 277.793 113.539C277.793 102.008 277.793 95.5972 273.606 91.4101C269.419 87.2231 263.008 87.2231 251.477 87.2231C239.945 87.2231 233.535 87.2231 229.348 91.4101C225.161 95.5972 225.161 102.008 225.161 113.539C225.161 125.071 225.161 131.482 229.348 135.669C233.535 139.856 239.945 139.856 251.477 139.856Z" fill="#151617"/>
<path d="M251.477 87.52C257.251 87.52 261.711 87.5201 265.252 88.0396C268.783 88.5576 271.364 89.5874 273.396 91.6196C275.428 93.652 276.458 96.2323 276.976 99.7632C277.496 103.304 277.497 107.765 277.497 113.54C277.497 119.314 277.496 123.774 276.976 127.315C276.458 130.846 275.428 133.426 273.396 135.458C271.364 137.491 268.784 138.521 265.252 139.039C261.711 139.558 257.251 139.559 251.477 139.559C245.703 139.559 241.242 139.558 237.701 139.039C234.17 138.521 231.589 137.491 229.557 135.458C227.525 133.426 226.495 130.846 225.977 127.315C225.458 123.774 225.458 119.314 225.458 113.54C225.458 107.765 225.458 103.304 225.977 99.7632C226.495 96.2322 227.525 93.652 229.557 91.6196C231.589 89.5873 234.17 88.5576 237.701 88.0396C241.242 87.52 245.703 87.52 251.477 87.52Z" stroke="white" stroke-opacity="0.05" stroke-width="0.593257"/>
<path d="M251.477 139.856C263.008 139.856 269.419 139.856 273.606 135.669C277.793 131.482 277.793 125.071 277.793 113.539C277.793 102.008 277.793 95.5972 273.606 91.4101C269.419 87.2231 263.008 87.2231 251.477 87.2231C239.945 87.2231 233.535 87.2231 229.348 91.4101C225.161 95.5972 225.161 102.008 225.161 113.539C225.161 125.071 225.161 131.482 229.348 135.669C233.535 139.856 239.945 139.856 251.477 139.856Z" fill="url(#paint7_linear_2330_1432)"/>
<path opacity="0.4" d="M251.477 139.856C263.008 139.856 269.419 139.856 273.606 135.669C277.793 131.482 277.793 125.071 277.793 113.539C277.793 102.008 277.793 95.5972 273.606 91.4101C269.419 87.2231 263.008 87.2231 251.477 87.2231C239.945 87.2231 233.535 87.2231 229.348 91.4101C225.161 95.5972 225.161 102.008 225.161 113.539C225.161 125.071 225.161 131.482 229.348 135.669C233.535 139.856 239.945 139.856 251.477 139.856Z" fill="url(#paint8_linear_2330_1432)"/>
</g>
<g style="mix-blend-mode:screen" opacity="0.6" clip-path="url(#clip10_2330_1432)">
<g filter="url(#filter11_i_2330_1432)">
<path d="M246.384 128.926C249.195 128.926 251.477 126.628 251.477 123.797V118.668H246.384C243.573 118.668 241.292 120.966 241.292 123.797C241.292 126.628 243.573 128.926 246.384 128.926Z" fill="#40DC7F"/>
</g>
<g filter="url(#filter12_i_2330_1432)">
<path d="M241.292 113.54C241.292 110.709 243.573 108.411 246.384 108.411H251.477V118.669H246.384C243.573 118.669 241.292 116.371 241.292 113.54Z" fill="#B068FF"/>
</g>
<g filter="url(#filter13_i_2330_1432)">
<path d="M241.292 103.282C241.292 100.451 243.573 98.1533 246.384 98.1533H251.477V108.411H246.384C243.573 108.411 241.292 106.113 241.292 103.282Z" fill="#FF6A33"/>
</g>
<g filter="url(#filter14_i_2330_1432)">
<path d="M251.477 98.1533H256.57C259.381 98.1533 261.662 100.451 261.662 103.282C261.662 106.113 259.381 108.411 256.57 108.411H251.477V98.1533Z" fill="#FF8570"/>
</g>
<g filter="url(#filter15_i_2330_1432)">
<path d="M261.662 113.54C261.662 116.371 259.381 118.669 256.57 118.669C253.759 118.669 251.477 116.371 251.477 113.54C251.477 110.709 253.759 108.411 256.57 108.411C259.381 108.411 261.662 110.709 261.662 113.54Z" fill="#51CDFF"/>
</g>
</g>
<g opacity="0.5" clip-path="url(#clip11_2330_1432)">
<g filter="url(#filter16_i_2330_1432)">
<path d="M246.384 128.926C249.195 128.926 251.477 126.628 251.477 123.797V118.668H246.384C243.573 118.668 241.292 120.966 241.292 123.797C241.292 126.628 243.573 128.926 246.384 128.926Z" fill="#40DC7F"/>
</g>
<g filter="url(#filter17_i_2330_1432)">
<path d="M241.292 113.54C241.292 110.709 243.573 108.411 246.384 108.411H251.477V118.669H246.384C243.573 118.669 241.292 116.371 241.292 113.54Z" fill="#B068FF"/>
</g>
<g filter="url(#filter18_i_2330_1432)">
<path d="M241.292 103.282C241.292 100.451 243.573 98.1533 246.384 98.1533H251.477V108.411H246.384C243.573 108.411 241.292 106.113 241.292 103.282Z" fill="#FF6A33"/>
</g>
<g filter="url(#filter19_i_2330_1432)">
<path d="M251.477 98.1533H256.57C259.381 98.1533 261.662 100.451 261.662 103.282C261.662 106.113 259.381 108.411 256.57 108.411H251.477V98.1533Z" fill="#FF8570"/>
</g>
<g filter="url(#filter20_i_2330_1432)">
<path d="M261.662 113.54C261.662 116.371 259.381 118.669 256.57 118.669C253.759 118.669 251.477 116.371 251.477 113.54C251.477 110.709 253.759 108.411 256.57 108.411C259.381 108.411 261.662 110.709 261.662 113.54Z" fill="#51CDFF"/>
</g>
</g>
<g filter="url(#filter21_i_2330_1432)">
<g clip-path="url(#clip12_2330_1432)">
<g filter="url(#filter22_i_2330_1432)">
<path d="M246.384 128.926C249.195 128.926 251.477 126.628 251.477 123.797V118.668H246.384C243.573 118.668 241.292 120.966 241.292 123.797C241.292 126.628 243.573 128.926 246.384 128.926Z" fill="#40DC7F"/>
</g>
<g filter="url(#filter23_i_2330_1432)">
<path d="M241.292 113.54C241.292 110.709 243.573 108.411 246.384 108.411H251.477V118.669H246.384C243.573 118.669 241.292 116.371 241.292 113.54Z" fill="#B068FF"/>
</g>
<g filter="url(#filter24_i_2330_1432)">
<path d="M241.292 103.282C241.292 100.451 243.573 98.1533 246.384 98.1533H251.477V108.411H246.384C243.573 108.411 241.292 106.113 241.292 103.282Z" fill="#FF6A33"/>
</g>
<g filter="url(#filter25_i_2330_1432)">
<path d="M251.477 98.1533H256.57C259.381 98.1533 261.662 100.451 261.662 103.282C261.662 106.113 259.381 108.411 256.57 108.411H251.477V98.1533Z" fill="#FF8570"/>
</g>
<g filter="url(#filter26_i_2330_1432)">
<path d="M261.662 113.54C261.662 116.371 259.381 118.669 256.57 118.669C253.759 118.669 251.477 116.371 251.477 113.54C251.477 110.709 253.759 108.411 256.57 108.411C259.381 108.411 261.662 110.709 261.662 113.54Z" fill="#51CDFF"/>
</g>
</g>
</g>
</g>
<g filter="url(#filter27_ii_2330_1432)">
<g clip-path="url(#clip13_2330_1432)">
<path d="M116.681 208C128.213 208 134.623 208 138.81 203.813C142.997 199.626 142.997 193.216 142.997 181.684C142.997 170.152 142.997 163.742 138.81 159.555C134.623 155.368 128.213 155.368 116.681 155.368C105.15 155.368 98.739 155.368 94.552 159.555C90.365 163.742 90.365 170.152 90.365 181.684C90.365 193.216 90.365 199.626 94.552 203.813C98.739 208 105.15 208 116.681 208Z" fill="#151617"/>
<path d="M116.681 155.665C122.455 155.665 126.916 155.665 130.457 156.184C133.988 156.702 136.568 157.732 138.6 159.764C140.633 161.797 141.662 164.377 142.18 167.908C142.7 171.449 142.701 175.91 142.701 181.684C142.701 187.458 142.7 191.918 142.18 195.459C141.662 198.991 140.633 201.571 138.6 203.603C136.568 205.635 133.988 206.665 130.457 207.183C126.916 207.703 122.455 207.704 116.681 207.704C110.907 207.704 106.446 207.703 102.905 207.183C99.3741 206.665 96.7938 205.635 94.7615 203.603C92.7293 201.571 91.6994 198.99 91.1814 195.459C90.6619 191.918 90.6619 187.458 90.6619 181.684C90.6619 175.91 90.6619 171.449 91.1814 167.908C91.6995 164.377 92.7291 161.797 94.7615 159.764C96.7938 157.732 99.3741 156.702 102.905 156.184C106.446 155.665 110.907 155.665 116.681 155.665Z" stroke="white" stroke-opacity="0.05" stroke-width="0.593257"/>
<path d="M116.681 208C128.213 208 134.623 208 138.81 203.813C142.997 199.626 142.997 193.216 142.997 181.684C142.997 170.152 142.997 163.742 138.81 159.555C134.623 155.368 128.213 155.368 116.681 155.368C105.15 155.368 98.739 155.368 94.552 159.555C90.365 163.742 90.365 170.152 90.365 181.684C90.365 193.216 90.365 199.626 94.552 203.813C98.739 208 105.15 208 116.681 208Z" fill="url(#paint9_linear_2330_1432)"/>
<path opacity="0.4" d="M116.681 208C128.213 208 134.623 208 138.81 203.813C142.997 199.626 142.997 193.215 142.997 181.684C142.997 170.152 142.997 163.742 138.81 159.555C134.623 155.368 128.213 155.368 116.681 155.368C105.15 155.368 98.739 155.368 94.552 159.555C90.365 163.742 90.365 170.152 90.365 181.684C90.365 193.215 90.365 199.626 94.552 203.813C98.739 208 105.15 208 116.681 208Z" fill="url(#paint10_linear_2330_1432)"/>
<g filter="url(#filter28_d_2330_1432)">
<path d="M130.374 178.566C131.11 176.384 130.857 173.995 129.679 172.01C127.907 168.967 124.346 167.401 120.868 168.138C119.321 166.418 117.098 165.44 114.767 165.454C111.212 165.446 108.058 167.704 106.964 171.042C104.68 171.504 102.709 172.914 101.555 174.914C99.7707 177.949 100.178 181.775 102.562 184.378C101.825 186.56 102.079 188.95 103.257 190.934C105.028 193.977 108.59 195.543 112.068 194.806C113.614 196.526 115.838 197.504 118.168 197.489C121.725 197.498 124.881 195.238 125.975 191.897C128.258 191.435 130.23 190.025 131.383 188.026C133.166 184.99 132.758 181.167 130.375 178.564L130.374 178.566ZM118.17 195.396C116.747 195.398 115.368 194.906 114.275 194.006C114.325 193.98 114.411 193.933 114.467 193.899L120.932 190.215C121.263 190.03 121.466 189.682 121.464 189.307V180.314L124.196 181.871C124.225 181.885 124.245 181.913 124.249 181.945V189.392C124.245 192.704 121.527 195.389 118.17 195.396ZM105.098 189.887C104.385 188.671 104.128 187.247 104.373 185.864C104.421 185.892 104.505 185.943 104.565 185.977L111.03 189.661C111.357 189.851 111.763 189.851 112.092 189.661L119.984 185.164V188.278C119.986 188.31 119.971 188.341 119.946 188.361L113.411 192.084C110.5 193.738 106.783 192.755 105.099 189.887H105.098ZM103.397 175.962C104.107 174.744 105.228 173.813 106.563 173.33C106.563 173.385 106.56 173.482 106.56 173.55V180.919C106.558 181.294 106.761 181.641 107.091 181.826L114.983 186.323L112.251 187.879C112.224 187.897 112.189 187.9 112.159 187.887L105.623 184.161C102.718 182.501 101.722 178.834 103.396 175.963L103.397 175.962ZM125.846 181.117L117.953 176.62L120.685 175.064C120.713 175.046 120.747 175.043 120.778 175.056L127.314 178.779C130.224 180.438 131.221 184.111 129.54 186.982C128.829 188.198 127.709 189.129 126.374 189.613V182.024C126.377 181.649 126.175 181.303 125.847 181.117H125.846ZM128.565 177.078C128.517 177.049 128.433 176.999 128.373 176.965L121.908 173.281C121.58 173.091 121.175 173.091 120.846 173.281L112.953 177.778V174.664C112.951 174.632 112.966 174.601 112.992 174.581L119.527 170.861C122.438 169.204 126.159 170.19 127.837 173.063C128.547 174.277 128.803 175.697 128.563 177.078H128.565ZM111.468 182.627L108.735 181.071C108.705 181.057 108.686 181.029 108.682 180.997V173.549C108.684 170.233 111.41 167.546 114.77 167.548C116.192 167.548 117.568 168.041 118.66 168.938C118.611 168.964 118.525 169.011 118.469 169.045L112.004 172.729C111.673 172.914 111.47 173.261 111.472 173.636L111.468 182.625V182.627ZM112.952 179.47L116.468 177.466L119.983 179.469V183.474L116.468 185.477L112.952 183.474V179.47Z" fill="white"/>
</g>
</g>
</g>
<g filter="url(#filter29_ii_2330_1432)">
<g clip-path="url(#clip14_2330_1432)">
<path d="M49.3147 139.856C60.8464 139.856 67.2569 139.856 71.444 135.669C75.631 131.482 75.631 125.071 75.631 113.539C75.631 102.008 75.631 95.5972 71.444 91.4101C67.2569 87.2231 60.8464 87.2231 49.3147 87.2231C37.7831 87.2231 31.3725 87.2231 27.1855 91.4101C22.9985 95.5972 22.9985 102.008 22.9985 113.539C22.9985 125.071 22.9985 131.482 27.1855 135.669C31.3725 139.856 37.7831 139.856 49.3147 139.856Z" fill="#001E36"/>
<path d="M49.3149 87.52C55.089 87.52 59.5493 87.5201 63.0903 88.0396C66.6213 88.5576 69.2015 89.5874 71.2339 91.6196C73.2662 93.652 74.2959 96.2323 74.814 99.7632C75.3335 103.304 75.3345 107.765 75.3345 113.54C75.3345 119.314 75.3334 123.774 74.814 127.315C74.2959 130.846 73.2663 133.426 71.2339 135.458C69.2015 137.491 66.6215 138.521 63.0903 139.039C59.5493 139.558 55.089 139.559 49.3149 139.559C43.5407 139.559 39.0797 139.558 35.5386 139.039C32.0077 138.521 29.4274 137.491 27.395 135.458C25.3628 133.426 24.333 130.846 23.8149 127.315C23.2955 123.774 23.2954 119.314 23.2954 113.54C23.2954 107.765 23.2954 103.304 23.8149 99.7632C24.333 96.2322 25.3627 93.652 27.395 91.6196C29.4274 89.5873 32.0076 88.5576 35.5386 88.0396C39.0797 87.52 43.5407 87.52 49.3149 87.52Z" stroke="white" stroke-opacity="0.05" stroke-width="0.593257"/>
<path d="M49.3147 139.856C60.8464 139.856 67.2569 139.856 71.444 135.669C75.631 131.482 75.631 125.071 75.631 113.539C75.631 102.008 75.631 95.5972 71.444 91.4101C67.2569 87.2231 60.8464 87.2231 49.3147 87.2231C37.7831 87.2231 31.3725 87.2231 27.1855 91.4101C22.9985 95.5972 22.9985 102.008 22.9985 113.539C22.9985 125.071 22.9985 131.482 27.1855 135.669C31.3725 139.856 37.7831 139.856 49.3147 139.856Z" fill="url(#paint11_linear_2330_1432)"/>
<path opacity="0.4" d="M49.3147 139.856C60.8464 139.856 67.2569 139.856 71.444 135.669C75.631 131.482 75.6309 125.071 75.6309 113.539C75.6309 102.008 75.631 95.5972 71.444 91.4101C67.2569 87.2231 60.8464 87.2231 49.3147 87.2231C37.7831 87.2231 31.3725 87.2231 27.1855 91.4101C22.9985 95.5972 22.9985 102.008 22.9985 113.539C22.9985 125.071 22.9985 131.482 27.1855 135.669C31.3725 139.856 37.7831 139.856 49.3147 139.856Z" fill="url(#paint12_linear_2330_1432)"/>
<g filter="url(#filter30_d_2330_1432)">
<path d="M34.2708 124.348V102.299C34.2708 102.139 34.3374 102.058 34.4726 102.058C34.8303 102.058 35.1586 102.058 35.6485 102.041C36.1385 102.023 36.6745 102.017 37.2468 102.006L39.0636 101.971C39.7025 101.96 40.3359 101.954 40.9637 101.954C42.6681 101.954 44.1053 102.173 45.2754 102.609C46.3272 102.975 47.2866 103.576 48.0839 104.369C48.7599 105.057 49.2822 105.887 49.6145 106.803C49.9289 107.694 50.0878 108.635 50.0839 109.582C50.0839 111.424 49.6691 112.942 48.8394 114.137C48.0039 115.338 46.8298 116.247 45.4753 116.743C44.0622 117.283 42.4914 117.466 40.7648 117.466C40.2748 117.466 39.924 117.461 39.7221 117.449C39.5202 117.437 39.2174 117.432 38.8137 117.432V124.316C38.8188 124.351 38.817 124.388 38.8083 124.423C38.7996 124.458 38.7843 124.491 38.7632 124.52C38.742 124.548 38.7155 124.573 38.6852 124.591C38.6548 124.609 38.6212 124.621 38.5864 124.626C38.5614 124.63 38.5359 124.63 38.5109 124.626H34.5059C34.3452 124.623 34.2708 124.532 34.2708 124.348ZM38.8137 106.198V113.39C39.1051 113.413 39.3742 113.424 39.6212 113.424H40.7314C41.5484 113.421 42.36 113.288 43.1372 113.03C43.8034 112.828 44.399 112.433 44.853 111.894C45.2901 111.365 45.5086 110.628 45.5086 109.683C45.5256 109.015 45.3555 108.357 45.0186 107.785C44.6656 107.233 44.1551 106.805 43.5566 106.56C42.7764 106.25 41.9433 106.103 41.1068 106.129C40.5678 106.129 40.0912 106.135 39.677 106.146C39.2628 106.158 38.9767 106.175 38.8186 106.198H38.8137Z" fill="#31A8FF"/>
<path d="M63.0916 112.082C62.4594 111.748 61.7859 111.505 61.0896 111.357C60.3226 111.176 59.5384 111.084 58.7515 111.081C58.3259 111.069 57.901 111.122 57.4903 111.237C57.2286 111.296 56.9959 111.449 56.8338 111.668C56.7242 111.843 56.666 112.047 56.6662 112.255C56.6721 112.457 56.7431 112.651 56.8681 112.807C57.0644 113.042 57.3046 113.236 57.5746 113.375C58.054 113.639 58.548 113.874 59.0543 114.079C60.1834 114.467 61.2624 114.994 62.2675 115.649C62.9516 116.092 63.5178 116.703 63.9157 117.426C64.251 118.111 64.4192 118.87 64.4057 119.637C64.4255 120.648 64.1438 121.642 63.5982 122.484C63.0137 123.339 62.2022 124.003 61.2601 124.399C60.2371 124.86 58.9743 125.09 57.4717 125.09C56.5177 125.099 55.5653 125.007 54.6299 124.814C53.8927 124.675 53.1751 124.443 52.4936 124.123C52.4199 124.085 52.3585 124.025 52.3167 123.952C52.2749 123.878 52.2543 123.794 52.2575 123.709V119.984C52.2532 119.947 52.2588 119.91 52.2737 119.877C52.2886 119.843 52.3121 119.814 52.3418 119.794C52.3706 119.777 52.4039 119.769 52.437 119.772C52.4701 119.775 52.5015 119.789 52.527 119.811C53.3326 120.298 54.2074 120.653 55.1199 120.863C55.9235 121.07 56.748 121.18 57.5766 121.191C58.3605 121.191 58.938 121.087 59.3091 120.88C59.4761 120.802 59.6174 120.675 59.7158 120.516C59.8143 120.357 59.8656 120.172 59.8637 119.984C59.8637 119.684 59.6955 119.396 59.359 119.12C59.0226 118.844 58.338 118.513 57.3051 118.125C56.2488 117.748 55.2473 117.226 54.3281 116.572C53.6706 116.104 53.129 115.485 52.7465 114.763C52.4149 114.084 52.2469 113.332 52.2565 112.572C52.2536 111.657 52.4985 110.758 52.964 109.977C53.4929 109.119 54.2525 108.436 55.1512 108.01C56.1377 107.505 57.3711 107.252 58.8514 107.252C59.7186 107.244 60.585 107.307 61.4424 107.441C62.063 107.522 62.6698 107.691 63.2455 107.943C63.2912 107.956 63.3332 107.981 63.3682 108.014C63.4032 108.047 63.4303 108.087 63.4473 108.133C63.4701 108.217 63.4813 108.304 63.4806 108.391V111.877C63.4834 111.917 63.4757 111.957 63.4585 111.994C63.4414 112.03 63.4152 112.061 63.3826 112.084C63.3373 112.107 63.2874 112.118 63.2369 112.118C63.1864 112.118 63.1367 112.105 63.0916 112.082Z" fill="#31A8FF"/>
</g>
</g>
</g>
<g filter="url(#filter31_ii_2330_1432)">
<g clip-path="url(#clip15_2330_1432)">
<path d="M183.333 138.935C194.864 138.935 201.275 138.935 205.462 134.748C209.649 130.561 209.649 124.15 209.649 112.618C209.649 101.087 209.649 94.6763 205.462 90.4892C201.275 86.3022 194.864 86.3022 183.333 86.3022C171.801 86.3022 165.39 86.3022 161.203 90.4892C157.016 94.6763 157.016 101.087 157.016 112.618C157.016 124.15 157.016 130.561 161.203 134.748C165.39 138.935 171.801 138.935 183.333 138.935Z" fill="#545555" fill-opacity="0.4"/>
</g>
</g>
</g>
<defs>
<filter id="filter0_ii_2330_1432" x="23.6855" y="154.961" width="52.6323" height="53.1588" filterUnits="userSpaceOnUse" color-interpolation-filters="sRGB">
<feFlood flood-opacity="0" result="BackgroundImageFix"/>
<feBlend mode="normal" in="SourceGraphic" in2="BackgroundImageFix" result="shape"/>
<feColorMatrix in="SourceAlpha" type="matrix" values="0 0 0 0 0 0 0 0 0 0 0 0 0 0 0 0 0 0 127 0" result="hardAlpha"/>
<feOffset dy="0.263232"/>
<feGaussianBlur stdDeviation="0.263232"/>
<feComposite in2="hardAlpha" operator="arithmetic" k2="-1" k3="1"/>
<feColorMatrix type="matrix" values="0 0 0 0 1 0 0 0 0 1 0 0 0 0 1 0 0 0 0.25 0"/>
<feBlend mode="normal" in2="shape" result="effect1_innerShadow_2330_1432"/>
<feColorMatrix in="SourceAlpha" type="matrix" values="0 0 0 0 0 0 0 0 0 0 0 0 0 0 0 0 0 0 127 0" result="hardAlpha"/>
<feOffset dy="-0.263232"/>
<feGaussianBlur stdDeviation="0.263232"/>
<feComposite in2="hardAlpha" operator="arithmetic" k2="-1" k3="1"/>
<feColorMatrix type="matrix" values="0 0 0 0 0 0 0 0 0 0 0 0 0 0 0 0 0 0 0.12 0"/>
<feBlend mode="normal" in2="effect1_innerShadow_2330_1432" result="effect2_innerShadow_2330_1432"/>
</filter>
<filter id="filter1_ii_2330_1432" x="157.211" y="19.7368" width="52.6323" height="53.1588" filterUnits="userSpaceOnUse" color-interpolation-filters="sRGB">
<feFlood flood-opacity="0" result="BackgroundImageFix"/>
<feBlend mode="normal" in="SourceGraphic" in2="BackgroundImageFix" result="shape"/>
<feColorMatrix in="SourceAlpha" type="matrix" values="0 0 0 0 0 0 0 0 0 0 0 0 0 0 0 0 0 0 127 0" result="hardAlpha"/>
<feOffset dy="0.263232"/>
<feGaussianBlur stdDeviation="0.263232"/>
<feComposite in2="hardAlpha" operator="arithmetic" k2="-1" k3="1"/>
<feColorMatrix type="matrix" values="0 0 0 0 1 0 0 0 0 1 0 0 0 0 1 0 0 0 0.25 0"/>
<feBlend mode="normal" in2="shape" result="effect1_innerShadow_2330_1432"/>
<feColorMatrix in="SourceAlpha" type="matrix" values="0 0 0 0 0 0 0 0 0 0 0 0 0 0 0 0 0 0 127 0" result="hardAlpha"/>
<feOffset dy="-0.263232"/>
<feGaussianBlur stdDeviation="0.263232"/>
<feComposite in2="hardAlpha" operator="arithmetic" k2="-1" k3="1"/>
<feColorMatrix type="matrix" values="0 0 0 0 0 0 0 0 0 0 0 0 0 0 0 0 0 0 0.12 0"/>
<feBlend mode="normal" in2="effect1_innerShadow_2330_1432" result="effect2_innerShadow_2330_1432"/>
</filter>
<filter id="filter2_ii_2330_1432" x="159.396" y="154.961" width="52.6323" height="53.1588" filterUnits="userSpaceOnUse" color-interpolation-filters="sRGB">
<feFlood flood-opacity="0" result="BackgroundImageFix"/>
<feBlend mode="normal" in="SourceGraphic" in2="BackgroundImageFix" result="shape"/>
<feColorMatrix in="SourceAlpha" type="matrix" values="0 0 0 0 0 0 0 0 0 0 0 0 0 0 0 0 0 0 127 0" result="hardAlpha"/>
<feOffset dy="0.263232"/>
<feGaussianBlur stdDeviation="0.263232"/>
<feComposite in2="hardAlpha" operator="arithmetic" k2="-1" k3="1"/>
<feColorMatrix type="matrix" values="0 0 0 0 1 0 0 0 0 1 0 0 0 0 1 0 0 0 0.25 0"/>
<feBlend mode="normal" in2="shape" result="effect1_innerShadow_2330_1432"/>
<feColorMatrix in="SourceAlpha" type="matrix" values="0 0 0 0 0 0 0 0 0 0 0 0 0 0 0 0 0 0 127 0" result="hardAlpha"/>
<feOffset dy="-0.263232"/>
<feGaussianBlur stdDeviation="0.263232"/>
<feComposite in2="hardAlpha" operator="arithmetic" k2="-1" k3="1"/>
<feColorMatrix type="matrix" values="0 0 0 0 0 0 0 0 0 0 0 0 0 0 0 0 0 0 0.12 0"/>
<feBlend mode="normal" in2="effect1_innerShadow_2330_1432" result="effect2_innerShadow_2330_1432"/>
</filter>
<filter id="filter3_d_2330_1432" x="168.865" y="162.649" width="33.8388" height="38.1298" filterUnits="userSpaceOnUse" color-interpolation-filters="sRGB">
<feFlood flood-opacity="0" result="BackgroundImageFix"/>
<feColorMatrix in="SourceAlpha" type="matrix" values="0 0 0 0 0 0 0 0 0 0 0 0 0 0 0 0 0 0 127 0" result="hardAlpha"/>
<feOffset/>
<feGaussianBlur stdDeviation="1.18651"/>
<feComposite in2="hardAlpha" operator="out"/>
<feColorMatrix type="matrix" values="0 0 0 0 1 0 0 0 0 1 0 0 0 0 1 0 0 0 0.35 0"/>
<feBlend mode="normal" in2="BackgroundImageFix" result="effect1_dropShadow_2330_1432"/>
<feBlend mode="normal" in="SourceGraphic" in2="effect1_dropShadow_2330_1432" result="shape"/>
</filter>
<filter id="filter4_ii_2330_1432" x="225.1" y="19.7368" width="52.6323" height="53.1588" filterUnits="userSpaceOnUse" color-interpolation-filters="sRGB">
<feFlood flood-opacity="0" result="BackgroundImageFix"/>
<feBlend mode="normal" in="SourceGraphic" in2="BackgroundImageFix" result="shape"/>
<feColorMatrix in="SourceAlpha" type="matrix" values="0 0 0 0 0 0 0 0 0 0 0 0 0 0 0 0 0 0 127 0" result="hardAlpha"/>
<feOffset dy="0.263232"/>
<feGaussianBlur stdDeviation="0.263232"/>
<feComposite in2="hardAlpha" operator="arithmetic" k2="-1" k3="1"/>
<feColorMatrix type="matrix" values="0 0 0 0 1 0 0 0 0 1 0 0 0 0 1 0 0 0 0.25 0"/>
<feBlend mode="normal" in2="shape" result="effect1_innerShadow_2330_1432"/>
<feColorMatrix in="SourceAlpha" type="matrix" values="0 0 0 0 0 0 0 0 0 0 0 0 0 0 0 0 0 0 127 0" result="hardAlpha"/>
<feOffset dy="-0.263232"/>
<feGaussianBlur stdDeviation="0.263232"/>
<feComposite in2="hardAlpha" operator="arithmetic" k2="-1" k3="1"/>
<feColorMatrix type="matrix" values="0 0 0 0 0 0 0 0 0 0 0 0 0 0 0 0 0 0 0.12 0"/>
<feBlend mode="normal" in2="effect1_innerShadow_2330_1432" result="effect2_innerShadow_2330_1432"/>
</filter>
<filter id="filter5_i_2330_1432" x="232.219" y="27.1191" width="38.2009" height="38.4644" filterUnits="userSpaceOnUse" color-interpolation-filters="sRGB">
<feFlood flood-opacity="0" result="BackgroundImageFix"/>
<feBlend mode="normal" in="SourceGraphic" in2="BackgroundImageFix" result="shape"/>
<feColorMatrix in="SourceAlpha" type="matrix" values="0 0 0 0 0 0 0 0 0 0 0 0 0 0 0 0 0 0 127 0" result="hardAlpha"/>
<feOffset dy="0.263232"/>
<feGaussianBlur stdDeviation="0.263232"/>
<feComposite in2="hardAlpha" operator="arithmetic" k2="-1" k3="1"/>
<feColorMatrix type="matrix" values="0 0 0 0 0 0 0 0 0 0 0 0 0 0 0 0 0 0 0.16 0"/>
<feBlend mode="normal" in2="shape" result="effect1_innerShadow_2330_1432"/>
</filter>
<filter id="filter6_ii_2330_1432" x="232.219" y="26.8559" width="38.2009" height="38.7276" filterUnits="userSpaceOnUse" color-interpolation-filters="sRGB">
<feFlood flood-opacity="0" result="BackgroundImageFix"/>
<feBlend mode="normal" in="SourceGraphic" in2="BackgroundImageFix" result="shape"/>
<feColorMatrix in="SourceAlpha" type="matrix" values="0 0 0 0 0 0 0 0 0 0 0 0 0 0 0 0 0 0 127 0" result="hardAlpha"/>
<feOffset dy="0.263232"/>
<feGaussianBlur stdDeviation="0.263232"/>
<feComposite in2="hardAlpha" operator="arithmetic" k2="-1" k3="1"/>
<feColorMatrix type="matrix" values="0 0 0 0 1 0 0 0 0 1 0 0 0 0 1 0 0 0 0.25 0"/>
<feBlend mode="normal" in2="shape" result="effect1_innerShadow_2330_1432"/>
<feColorMatrix in="SourceAlpha" type="matrix" values="0 0 0 0 0 0 0 0 0 0 0 0 0 0 0 0 0 0 127 0" result="hardAlpha"/>
<feOffset dy="-0.263232"/>
<feGaussianBlur stdDeviation="0.263232"/>
<feComposite in2="hardAlpha" operator="arithmetic" k2="-1" k3="1"/>
<feColorMatrix type="matrix" values="0 0 0 0 0 0 0 0 0 0 0 0 0 0 0 0 0 0 0.12 0"/>
<feBlend mode="normal" in2="effect1_innerShadow_2330_1432" result="effect2_innerShadow_2330_1432"/>
</filter>
<filter id="filter7_ii_2330_1432" x="22.5698" y="19.7368" width="52.6323" height="53.1588" filterUnits="userSpaceOnUse" color-interpolation-filters="sRGB">
<feFlood flood-opacity="0" result="BackgroundImageFix"/>
<feBlend mode="normal" in="SourceGraphic" in2="BackgroundImageFix" result="shape"/>
<feColorMatrix in="SourceAlpha" type="matrix" values="0 0 0 0 0 0 0 0 0 0 0 0 0 0 0 0 0 0 127 0" result="hardAlpha"/>
<feOffset dy="0.263232"/>
<feGaussianBlur stdDeviation="0.263232"/>
<feComposite in2="hardAlpha" operator="arithmetic" k2="-1" k3="1"/>
<feColorMatrix type="matrix" values="0 0 0 0 1 0 0 0 0 1 0 0 0 0 1 0 0 0 0.25 0"/>
<feBlend mode="normal" in2="shape" result="effect1_innerShadow_2330_1432"/>
<feColorMatrix in="SourceAlpha" type="matrix" values="0 0 0 0 0 0 0 0 0 0 0 0 0 0 0 0 0 0 127 0" result="hardAlpha"/>
<feOffset dy="-0.263232"/>
<feGaussianBlur stdDeviation="0.263232"/>
<feComposite in2="hardAlpha" operator="arithmetic" k2="-1" k3="1"/>
<feColorMatrix type="matrix" values="0 0 0 0 0 0 0 0 0 0 0 0 0 0 0 0 0 0 0.12 0"/>
<feBlend mode="normal" in2="effect1_innerShadow_2330_1432" result="effect2_innerShadow_2330_1432"/>
</filter>
<filter id="filter8_ii_2330_1432" x="90.3662" y="86.9599" width="52.6323" height="53.1588" filterUnits="userSpaceOnUse" color-interpolation-filters="sRGB">
<feFlood flood-opacity="0" result="BackgroundImageFix"/>
<feBlend mode="normal" in="SourceGraphic" in2="BackgroundImageFix" result="shape"/>
<feColorMatrix in="SourceAlpha" type="matrix" values="0 0 0 0 0 0 0 0 0 0 0 0 0 0 0 0 0 0 127 0" result="hardAlpha"/>
<feOffset dy="0.263232"/>
<feGaussianBlur stdDeviation="0.263232"/>
<feComposite in2="hardAlpha" operator="arithmetic" k2="-1" k3="1"/>
<feColorMatrix type="matrix" values="0 0 0 0 1 0 0 0 0 1 0 0 0 0 1 0 0 0 0.25 0"/>
<feBlend mode="normal" in2="shape" result="effect1_innerShadow_2330_1432"/>
<feColorMatrix in="SourceAlpha" type="matrix" values="0 0 0 0 0 0 0 0 0 0 0 0 0 0 0 0 0 0 127 0" result="hardAlpha"/>
<feOffset dy="-0.263232"/>
<feGaussianBlur stdDeviation="0.263232"/>
<feComposite in2="hardAlpha" operator="arithmetic" k2="-1" k3="1"/>
<feColorMatrix type="matrix" values="0 0 0 0 0 0 0 0 0 0 0 0 0 0 0 0 0 0 0.12 0"/>
<feBlend mode="normal" in2="effect1_innerShadow_2330_1432" result="effect2_innerShadow_2330_1432"/>
</filter>
<filter id="filter9_d_2330_1432" x="93.4512" y="97.3252" width="46.0366" height="32.392" filterUnits="userSpaceOnUse" color-interpolation-filters="sRGB">
<feFlood flood-opacity="0" result="BackgroundImageFix"/>
<feColorMatrix in="SourceAlpha" type="matrix" values="0 0 0 0 0 0 0 0 0 0 0 0 0 0 0 0 0 0 127 0" result="hardAlpha"/>
<feOffset/>
<feGaussianBlur stdDeviation="2.3137"/>
<feComposite in2="hardAlpha" operator="out"/>
<feColorMatrix type="matrix" values="0 0 0 0 0.726525 0 0 0 0 0.726525 0 0 0 0 1 0 0 0 0.37 0"/>
<feBlend mode="normal" in2="BackgroundImageFix" result="effect1_dropShadow_2330_1432"/>
<feBlend mode="normal" in="SourceGraphic" in2="effect1_dropShadow_2330_1432" result="shape"/>
</filter>
<filter id="filter10_ii_2330_1432" x="225.161" y="86.9599" width="52.6323" height="53.1588" filterUnits="userSpaceOnUse" color-interpolation-filters="sRGB">
<feFlood flood-opacity="0" result="BackgroundImageFix"/>
<feBlend mode="normal" in="SourceGraphic" in2="BackgroundImageFix" result="shape"/>
<feColorMatrix in="SourceAlpha" type="matrix" values="0 0 0 0 0 0 0 0 0 0 0 0 0 0 0 0 0 0 127 0" result="hardAlpha"/>
<feOffset dy="0.263232"/>
<feGaussianBlur stdDeviation="0.263232"/>
<feComposite in2="hardAlpha" operator="arithmetic" k2="-1" k3="1"/>
<feColorMatrix type="matrix" values="0 0 0 0 1 0 0 0 0 1 0 0 0 0 1 0 0 0 0.25 0"/>
<feBlend mode="normal" in2="shape" result="effect1_innerShadow_2330_1432"/>
<feColorMatrix in="SourceAlpha" type="matrix" values="0 0 0 0 0 0 0 0 0 0 0 0 0 0 0 0 0 0 127 0" result="hardAlpha"/>
<feOffset dy="-0.263232"/>
<feGaussianBlur stdDeviation="0.263232"/>
<feComposite in2="hardAlpha" operator="arithmetic" k2="-1" k3="1"/>
<feColorMatrix type="matrix" values="0 0 0 0 0 0 0 0 0 0 0 0 0 0 0 0 0 0 0.12 0"/>
<feBlend mode="normal" in2="effect1_innerShadow_2330_1432" result="effect2_innerShadow_2330_1432"/>
</filter>
<filter id="filter11_i_2330_1432" x="241.292" y="117.616" width="10.1848" height="11.3107" filterUnits="userSpaceOnUse" color-interpolation-filters="sRGB">
<feFlood flood-opacity="0" result="BackgroundImageFix"/>
<feBlend mode="normal" in="SourceGraphic" in2="BackgroundImageFix" result="shape"/>
<feColorMatrix in="SourceAlpha" type="matrix" values="0 0 0 0 0 0 0 0 0 0 0 0 0 0 0 0 0 0 127 0" result="hardAlpha"/>
<feOffset dy="-1.05293"/>
<feGaussianBlur stdDeviation="1.97424"/>
<feComposite in2="hardAlpha" operator="arithmetic" k2="-1" k3="1"/>
<feColorMatrix type="matrix" values="0 0 0 0 0.227451 0 0 0 0 0.807843 0 0 0 0 0.443137 0 0 0 1 0"/>
<feBlend mode="normal" in2="shape" result="effect1_innerShadow_2330_1432"/>
</filter>
<filter id="filter12_i_2330_1432" x="241.292" y="107.358" width="10.1848" height="11.3107" filterUnits="userSpaceOnUse" color-interpolation-filters="sRGB">
<feFlood flood-opacity="0" result="BackgroundImageFix"/>
<feBlend mode="normal" in="SourceGraphic" in2="BackgroundImageFix" result="shape"/>
<feColorMatrix in="SourceAlpha" type="matrix" values="0 0 0 0 0 0 0 0 0 0 0 0 0 0 0 0 0 0 127 0" result="hardAlpha"/>
<feOffset dy="-1.05293"/>
<feGaussianBlur stdDeviation="1.97424"/>
<feComposite in2="hardAlpha" operator="arithmetic" k2="-1" k3="1"/>
<feColorMatrix type="matrix" values="0 0 0 0 0.582992 0 0 0 0 0.229167 0 0 0 0 1 0 0 0 1 0"/>
<feBlend mode="normal" in2="shape" result="effect1_innerShadow_2330_1432"/>
</filter>
<filter id="filter13_i_2330_1432" x="241.292" y="97.1004" width="12.0274" height="11.3107" filterUnits="userSpaceOnUse" color-interpolation-filters="sRGB">
<feFlood flood-opacity="0" result="BackgroundImageFix"/>
<feBlend mode="normal" in="SourceGraphic" in2="BackgroundImageFix" result="shape"/>
<feColorMatrix in="SourceAlpha" type="matrix" values="0 0 0 0 0 0 0 0 0 0 0 0 0 0 0 0 0 0 127 0" result="hardAlpha"/>
<feOffset dx="1.84263" dy="-1.05293"/>
<feGaussianBlur stdDeviation="1.97424"/>
<feComposite in2="hardAlpha" operator="arithmetic" k2="-1" k3="1"/>
<feColorMatrix type="matrix" values="0 0 0 0 1 0 0 0 0 0.298039 0 0 0 0 0.0823529 0 0 0 1 0"/>
<feBlend mode="normal" in2="shape" result="effect1_innerShadow_2330_1432"/>
</filter>
<filter id="filter14_i_2330_1432" x="251.477" y="97.1004" width="10.1848" height="11.3107" filterUnits="userSpaceOnUse" color-interpolation-filters="sRGB">
<feFlood flood-opacity="0" result="BackgroundImageFix"/>
<feBlend mode="normal" in="SourceGraphic" in2="BackgroundImageFix" result="shape"/>
<feColorMatrix in="SourceAlpha" type="matrix" values="0 0 0 0 0 0 0 0 0 0 0 0 0 0 0 0 0 0 127 0" result="hardAlpha"/>
<feOffset dy="-1.05293"/>
<feGaussianBlur stdDeviation="1.97424"/>
<feComposite in2="hardAlpha" operator="arithmetic" k2="-1" k3="1"/>
<feColorMatrix type="matrix" values="0 0 0 0 1 0 0 0 0 0.411765 0 0 0 0 0.317647 0 0 0 1 0"/>
<feBlend mode="normal" in2="shape" result="effect1_innerShadow_2330_1432"/>
</filter>
<filter id="filter15_i_2330_1432" x="251.477" y="107.358" width="10.1848" height="11.3107" filterUnits="userSpaceOnUse" color-interpolation-filters="sRGB">
<feFlood flood-opacity="0" result="BackgroundImageFix"/>
<feBlend mode="normal" in="SourceGraphic" in2="BackgroundImageFix" result="shape"/>
<feColorMatrix in="SourceAlpha" type="matrix" values="0 0 0 0 0 0 0 0 0 0 0 0 0 0 0 0 0 0 127 0" result="hardAlpha"/>
<feOffset dy="-1.05293"/>
<feGaussianBlur stdDeviation="1.97424"/>
<feComposite in2="hardAlpha" operator="arithmetic" k2="-1" k3="1"/>
<feColorMatrix type="matrix" values="0 0 0 0 0.172549 0 0 0 0 0.662745 0 0 0 0 1 0 0 0 1 0"/>
<feBlend mode="normal" in2="shape" result="effect1_innerShadow_2330_1432"/>
</filter>
<filter id="filter16_i_2330_1432" x="241.292" y="117.616" width="10.1848" height="11.3107" filterUnits="userSpaceOnUse" color-interpolation-filters="sRGB">
<feFlood flood-opacity="0" result="BackgroundImageFix"/>
<feBlend mode="normal" in="SourceGraphic" in2="BackgroundImageFix" result="shape"/>
<feColorMatrix in="SourceAlpha" type="matrix" values="0 0 0 0 0 0 0 0 0 0 0 0 0 0 0 0 0 0 127 0" result="hardAlpha"/>
<feOffset dy="-1.05293"/>
<feGaussianBlur stdDeviation="1.97424"/>
<feComposite in2="hardAlpha" operator="arithmetic" k2="-1" k3="1"/>
<feColorMatrix type="matrix" values="0 0 0 0 0.227451 0 0 0 0 0.807843 0 0 0 0 0.443137 0 0 0 1 0"/>
<feBlend mode="normal" in2="shape" result="effect1_innerShadow_2330_1432"/>
</filter>
<filter id="filter17_i_2330_1432" x="241.292" y="107.358" width="10.1848" height="11.3107" filterUnits="userSpaceOnUse" color-interpolation-filters="sRGB">
<feFlood flood-opacity="0" result="BackgroundImageFix"/>
<feBlend mode="normal" in="SourceGraphic" in2="BackgroundImageFix" result="shape"/>
<feColorMatrix in="SourceAlpha" type="matrix" values="0 0 0 0 0 0 0 0 0 0 0 0 0 0 0 0 0 0 127 0" result="hardAlpha"/>
<feOffset dy="-1.05293"/>
<feGaussianBlur stdDeviation="1.97424"/>
<feComposite in2="hardAlpha" operator="arithmetic" k2="-1" k3="1"/>
<feColorMatrix type="matrix" values="0 0 0 0 0.582992 0 0 0 0 0.229167 0 0 0 0 1 0 0 0 1 0"/>
<feBlend mode="normal" in2="shape" result="effect1_innerShadow_2330_1432"/>
</filter>
<filter id="filter18_i_2330_1432" x="241.292" y="97.1004" width="12.0274" height="11.3107" filterUnits="userSpaceOnUse" color-interpolation-filters="sRGB">
<feFlood flood-opacity="0" result="BackgroundImageFix"/>
<feBlend mode="normal" in="SourceGraphic" in2="BackgroundImageFix" result="shape"/>
<feColorMatrix in="SourceAlpha" type="matrix" values="0 0 0 0 0 0 0 0 0 0 0 0 0 0 0 0 0 0 127 0" result="hardAlpha"/>
<feOffset dx="1.84263" dy="-1.05293"/>
<feGaussianBlur stdDeviation="1.97424"/>
<feComposite in2="hardAlpha" operator="arithmetic" k2="-1" k3="1"/>
<feColorMatrix type="matrix" values="0 0 0 0 1 0 0 0 0 0.298039 0 0 0 0 0.0823529 0 0 0 1 0"/>
<feBlend mode="normal" in2="shape" result="effect1_innerShadow_2330_1432"/>
</filter>
<filter id="filter19_i_2330_1432" x="251.477" y="97.1004" width="10.1848" height="11.3107" filterUnits="userSpaceOnUse" color-interpolation-filters="sRGB">
<feFlood flood-opacity="0" result="BackgroundImageFix"/>
<feBlend mode="normal" in="SourceGraphic" in2="BackgroundImageFix" result="shape"/>
<feColorMatrix in="SourceAlpha" type="matrix" values="0 0 0 0 0 0 0 0 0 0 0 0 0 0 0 0 0 0 127 0" result="hardAlpha"/>
<feOffset dy="-1.05293"/>
<feGaussianBlur stdDeviation="1.97424"/>
<feComposite in2="hardAlpha" operator="arithmetic" k2="-1" k3="1"/>
<feColorMatrix type="matrix" values="0 0 0 0 1 0 0 0 0 0.411765 0 0 0 0 0.317647 0 0 0 1 0"/>
<feBlend mode="normal" in2="shape" result="effect1_innerShadow_2330_1432"/>
</filter>
<filter id="filter20_i_2330_1432" x="251.477" y="107.358" width="10.1848" height="11.3107" filterUnits="userSpaceOnUse" color-interpolation-filters="sRGB">
<feFlood flood-opacity="0" result="BackgroundImageFix"/>
<feBlend mode="normal" in="SourceGraphic" in2="BackgroundImageFix" result="shape"/>
<feColorMatrix in="SourceAlpha" type="matrix" values="0 0 0 0 0 0 0 0 0 0 0 0 0 0 0 0 0 0 127 0" result="hardAlpha"/>
<feOffset dy="-1.05293"/>
<feGaussianBlur stdDeviation="1.97424"/>
<feComposite in2="hardAlpha" operator="arithmetic" k2="-1" k3="1"/>
<feColorMatrix type="matrix" values="0 0 0 0 0.172549 0 0 0 0 0.662745 0 0 0 0 1 0 0 0 1 0"/>
<feBlend mode="normal" in2="shape" result="effect1_innerShadow_2330_1432"/>
</filter>
<filter id="filter21_i_2330_1432" x="241.29" y="97.8901" width="20.3738" height="31.0362" filterUnits="userSpaceOnUse" color-interpolation-filters="sRGB">
<feFlood flood-opacity="0" result="BackgroundImageFix"/>
<feBlend mode="normal" in="SourceGraphic" in2="BackgroundImageFix" result="shape"/>
<feColorMatrix in="SourceAlpha" type="matrix" values="0 0 0 0 0 0 0 0 0 0 0 0 0 0 0 0 0 0 127 0" result="hardAlpha"/>
<feOffset dy="-0.263232"/>
<feGaussianBlur stdDeviation="0.263232"/>
<feComposite in2="hardAlpha" operator="arithmetic" k2="-1" k3="1"/>
<feColorMatrix type="matrix" values="0 0 0 0 0 0 0 0 0 0 0 0 0 0 0 0 0 0 0.12 0"/>
<feBlend mode="normal" in2="shape" result="effect1_innerShadow_2330_1432"/>
</filter>
<filter id="filter22_i_2330_1432" x="241.292" y="117.616" width="10.1848" height="11.3107" filterUnits="userSpaceOnUse" color-interpolation-filters="sRGB">
<feFlood flood-opacity="0" result="BackgroundImageFix"/>
<feBlend mode="normal" in="SourceGraphic" in2="BackgroundImageFix" result="shape"/>
<feColorMatrix in="SourceAlpha" type="matrix" values="0 0 0 0 0 0 0 0 0 0 0 0 0 0 0 0 0 0 127 0" result="hardAlpha"/>
<feOffset dy="-1.05293"/>
<feGaussianBlur stdDeviation="1.97424"/>
<feComposite in2="hardAlpha" operator="arithmetic" k2="-1" k3="1"/>
<feColorMatrix type="matrix" values="0 0 0 0 0.227451 0 0 0 0 0.807843 0 0 0 0 0.443137 0 0 0 1 0"/>
<feBlend mode="normal" in2="shape" result="effect1_innerShadow_2330_1432"/>
</filter>
<filter id="filter23_i_2330_1432" x="241.292" y="107.358" width="10.1848" height="11.3107" filterUnits="userSpaceOnUse" color-interpolation-filters="sRGB">
<feFlood flood-opacity="0" result="BackgroundImageFix"/>
<feBlend mode="normal" in="SourceGraphic" in2="BackgroundImageFix" result="shape"/>
<feColorMatrix in="SourceAlpha" type="matrix" values="0 0 0 0 0 0 0 0 0 0 0 0 0 0 0 0 0 0 127 0" result="hardAlpha"/>
<feOffset dy="-1.05293"/>
<feGaussianBlur stdDeviation="1.97424"/>
<feComposite in2="hardAlpha" operator="arithmetic" k2="-1" k3="1"/>
<feColorMatrix type="matrix" values="0 0 0 0 0.582992 0 0 0 0 0.229167 0 0 0 0 1 0 0 0 1 0"/>
<feBlend mode="normal" in2="shape" result="effect1_innerShadow_2330_1432"/>
</filter>
<filter id="filter24_i_2330_1432" x="241.292" y="97.1004" width="12.0274" height="11.3107" filterUnits="userSpaceOnUse" color-interpolation-filters="sRGB">
<feFlood flood-opacity="0" result="BackgroundImageFix"/>
<feBlend mode="normal" in="SourceGraphic" in2="BackgroundImageFix" result="shape"/>
<feColorMatrix in="SourceAlpha" type="matrix" values="0 0 0 0 0 0 0 0 0 0 0 0 0 0 0 0 0 0 127 0" result="hardAlpha"/>
<feOffset dx="1.84263" dy="-1.05293"/>
<feGaussianBlur stdDeviation="1.97424"/>
<feComposite in2="hardAlpha" operator="arithmetic" k2="-1" k3="1"/>
<feColorMatrix type="matrix" values="0 0 0 0 1 0 0 0 0 0.298039 0 0 0 0 0.0823529 0 0 0 1 0"/>
<feBlend mode="normal" in2="shape" result="effect1_innerShadow_2330_1432"/>
</filter>
<filter id="filter25_i_2330_1432" x="251.477" y="97.1004" width="10.1848" height="11.3107" filterUnits="userSpaceOnUse" color-interpolation-filters="sRGB">
<feFlood flood-opacity="0" result="BackgroundImageFix"/>
<feBlend mode="normal" in="SourceGraphic" in2="BackgroundImageFix" result="shape"/>
<feColorMatrix in="SourceAlpha" type="matrix" values="0 0 0 0 0 0 0 0 0 0 0 0 0 0 0 0 0 0 127 0" result="hardAlpha"/>
<feOffset dy="-1.05293"/>
<feGaussianBlur stdDeviation="1.97424"/>
<feComposite in2="hardAlpha" operator="arithmetic" k2="-1" k3="1"/>
<feColorMatrix type="matrix" values="0 0 0 0 1 0 0 0 0 0.411765 0 0 0 0 0.317647 0 0 0 1 0"/>
<feBlend mode="normal" in2="shape" result="effect1_innerShadow_2330_1432"/>
</filter>
<filter id="filter26_i_2330_1432" x="251.477" y="107.358" width="10.1848" height="11.3107" filterUnits="userSpaceOnUse" color-interpolation-filters="sRGB">
<feFlood flood-opacity="0" result="BackgroundImageFix"/>
<feBlend mode="normal" in="SourceGraphic" in2="BackgroundImageFix" result="shape"/>
<feColorMatrix in="SourceAlpha" type="matrix" values="0 0 0 0 0 0 0 0 0 0 0 0 0 0 0 0 0 0 127 0" result="hardAlpha"/>
<feOffset dy="-1.05293"/>
<feGaussianBlur stdDeviation="1.97424"/>
<feComposite in2="hardAlpha" operator="arithmetic" k2="-1" k3="1"/>
<feColorMatrix type="matrix" values="0 0 0 0 0.172549 0 0 0 0 0.662745 0 0 0 0 1 0 0 0 1 0"/>
<feBlend mode="normal" in2="shape" result="effect1_innerShadow_2330_1432"/>
</filter>
<filter id="filter27_ii_2330_1432" x="90.365" y="155.104" width="52.6323" height="53.1588" filterUnits="userSpaceOnUse" color-interpolation-filters="sRGB">
<feFlood flood-opacity="0" result="BackgroundImageFix"/>
<feBlend mode="normal" in="SourceGraphic" in2="BackgroundImageFix" result="shape"/>
<feColorMatrix in="SourceAlpha" type="matrix" values="0 0 0 0 0 0 0 0 0 0 0 0 0 0 0 0 0 0 127 0" result="hardAlpha"/>
<feOffset dy="0.263232"/>
<feGaussianBlur stdDeviation="0.263232"/>
<feComposite in2="hardAlpha" operator="arithmetic" k2="-1" k3="1"/>
<feColorMatrix type="matrix" values="0 0 0 0 1 0 0 0 0 1 0 0 0 0 1 0 0 0 0.25 0"/>
<feBlend mode="normal" in2="shape" result="effect1_innerShadow_2330_1432"/>
<feColorMatrix in="SourceAlpha" type="matrix" values="0 0 0 0 0 0 0 0 0 0 0 0 0 0 0 0 0 0 127 0" result="hardAlpha"/>
<feOffset dy="-0.263232"/>
<feGaussianBlur stdDeviation="0.263232"/>
<feComposite in2="hardAlpha" operator="arithmetic" k2="-1" k3="1"/>
<feColorMatrix type="matrix" values="0 0 0 0 0 0 0 0 0 0 0 0 0 0 0 0 0 0 0.12 0"/>
<feBlend mode="normal" in2="effect1_innerShadow_2330_1432" result="effect2_innerShadow_2330_1432"/>
</filter>
<filter id="filter28_d_2330_1432" x="97.0095" y="162.013" width="38.9177" height="38.9179" filterUnits="userSpaceOnUse" color-interpolation-filters="sRGB">
<feFlood flood-opacity="0" result="BackgroundImageFix"/>
<feColorMatrix in="SourceAlpha" type="matrix" values="0 0 0 0 0 0 0 0 0 0 0 0 0 0 0 0 0 0 127 0" result="hardAlpha"/>
<feOffset/>
<feGaussianBlur stdDeviation="1.72045"/>
<feComposite in2="hardAlpha" operator="out"/>
<feColorMatrix type="matrix" values="0 0 0 0 1 0 0 0 0 1 0 0 0 0 1 0 0 0 0.41 0"/>
<feBlend mode="normal" in2="BackgroundImageFix" result="effect1_dropShadow_2330_1432"/>
<feBlend mode="normal" in="SourceGraphic" in2="effect1_dropShadow_2330_1432" result="shape"/>
</filter>
<filter id="filter29_ii_2330_1432" x="22.9985" y="86.9599" width="52.6323" height="53.1588" filterUnits="userSpaceOnUse" color-interpolation-filters="sRGB">
<feFlood flood-opacity="0" result="BackgroundImageFix"/>
<feBlend mode="normal" in="SourceGraphic" in2="BackgroundImageFix" result="shape"/>
<feColorMatrix in="SourceAlpha" type="matrix" values="0 0 0 0 0 0 0 0 0 0 0 0 0 0 0 0 0 0 127 0" result="hardAlpha"/>
<feOffset dy="0.263232"/>
<feGaussianBlur stdDeviation="0.263232"/>
<feComposite in2="hardAlpha" operator="arithmetic" k2="-1" k3="1"/>
<feColorMatrix type="matrix" values="0 0 0 0 1 0 0 0 0 1 0 0 0 0 1 0 0 0 0.25 0"/>
<feBlend mode="normal" in2="shape" result="effect1_innerShadow_2330_1432"/>
<feColorMatrix in="SourceAlpha" type="matrix" values="0 0 0 0 0 0 0 0 0 0 0 0 0 0 0 0 0 0 127 0" result="hardAlpha"/>
<feOffset dy="-0.263232"/>
<feGaussianBlur stdDeviation="0.263232"/>
<feComposite in2="hardAlpha" operator="arithmetic" k2="-1" k3="1"/>
<feColorMatrix type="matrix" values="0 0 0 0 0 0 0 0 0 0 0 0 0 0 0 0 0 0 0.12 0"/>
<feBlend mode="normal" in2="effect1_innerShadow_2330_1432" result="effect2_innerShadow_2330_1432"/>
</filter>
<filter id="filter30_d_2330_1432" x="29.6433" y="97.3267" width="39.3908" height="32.3915" filterUnits="userSpaceOnUse" color-interpolation-filters="sRGB">
<feFlood flood-opacity="0" result="BackgroundImageFix"/>
<feColorMatrix in="SourceAlpha" type="matrix" values="0 0 0 0 0 0 0 0 0 0 0 0 0 0 0 0 0 0 127 0" result="hardAlpha"/>
<feOffset/>
<feGaussianBlur stdDeviation="2.3137"/>
<feComposite in2="hardAlpha" operator="out"/>
<feColorMatrix type="matrix" values="0 0 0 0 0.192157 0 0 0 0 0.658824 0 0 0 0 1 0 0 0 0.35 0"/>
<feBlend mode="normal" in2="BackgroundImageFix" result="effect1_dropShadow_2330_1432"/>
<feBlend mode="normal" in="SourceGraphic" in2="effect1_dropShadow_2330_1432" result="shape"/>
</filter>
<filter id="filter31_ii_2330_1432" x="157.016" y="86.039" width="52.6323" height="53.1588" filterUnits="userSpaceOnUse" color-interpolation-filters="sRGB">
<feFlood flood-opacity="0" result="BackgroundImageFix"/>
<feBlend mode="normal" in="SourceGraphic" in2="BackgroundImageFix" result="shape"/>
<feColorMatrix in="SourceAlpha" type="matrix" values="0 0 0 0 0 0 0 0 0 0 0 0 0 0 0 0 0 0 127 0" result="hardAlpha"/>
<feOffset dy="0.263232"/>
<feGaussianBlur stdDeviation="0.263232"/>
<feComposite in2="hardAlpha" operator="arithmetic" k2="-1" k3="1"/>
<feColorMatrix type="matrix" values="0 0 0 0 1 0 0 0 0 1 0 0 0 0 1 0 0 0 0.25 0"/>
<feBlend mode="normal" in2="shape" result="effect1_innerShadow_2330_1432"/>
<feColorMatrix in="SourceAlpha" type="matrix" values="0 0 0 0 0 0 0 0 0 0 0 0 0 0 0 0 0 0 127 0" result="hardAlpha"/>
<feOffset dy="-0.263232"/>
<feGaussianBlur stdDeviation="0.263232"/>
<feComposite in2="hardAlpha" operator="arithmetic" k2="-1" k3="1"/>
<feColorMatrix type="matrix" values="0 0 0 0 0 0 0 0 0 0 0 0 0 0 0 0 0 0 0.12 0"/>
<feBlend mode="normal" in2="effect1_innerShadow_2330_1432" result="effect2_innerShadow_2330_1432"/>
</filter>
<linearGradient id="paint0_linear_2330_1432" x1="158.779" y1="155.225" x2="173.187" y2="216.927" gradientUnits="userSpaceOnUse">
<stop stop-opacity="0"/>
<stop offset="0.605667" stop-opacity="0.0781197"/>
<stop offset="1" stop-opacity="0.26"/>
</linearGradient>
<linearGradient id="paint1_linear_2330_1432" x1="158.779" y1="155.225" x2="173.187" y2="216.927" gradientUnits="userSpaceOnUse">
<stop stop-color="white" stop-opacity="0.26"/>
<stop offset="0.640625" stop-color="white" stop-opacity="0.0781197"/>
<stop offset="1" stop-color="white" stop-opacity="0"/>
</linearGradient>
<linearGradient id="paint2_linear_2330_1432" x1="224.482" y1="20" x2="238.891" y2="81.7025" gradientUnits="userSpaceOnUse">
<stop stop-opacity="0"/>
<stop offset="0.605667" stop-opacity="0.0781197"/>
<stop offset="1" stop-opacity="0.26"/>
</linearGradient>
<linearGradient id="paint3_linear_2330_1432" x1="224.482" y1="20" x2="238.891" y2="81.7025" gradientUnits="userSpaceOnUse">
<stop stop-color="white" stop-opacity="0.26"/>
<stop offset="0.640625" stop-color="white" stop-opacity="0.0781197"/>
<stop offset="1" stop-color="white" stop-opacity="0"/>
</linearGradient>
<linearGradient id="paint4_linear_2330_1432" x1="251.319" y1="27.1191" x2="251.319" y2="64.3782" gradientUnits="userSpaceOnUse">
<stop stop-color="#FF533C"/>
<stop offset="1" stop-color="#FDB47D"/>
</linearGradient>
<linearGradient id="paint5_linear_2330_1432" x1="89.7489" y1="87.2231" x2="104.158" y2="148.926" gradientUnits="userSpaceOnUse">
<stop stop-opacity="0"/>
<stop offset="0.605667" stop-opacity="0.0781197"/>
<stop offset="1" stop-opacity="0.26"/>
</linearGradient>
<linearGradient id="paint6_linear_2330_1432" x1="89.7489" y1="87.2231" x2="104.158" y2="148.926" gradientUnits="userSpaceOnUse">
<stop stop-color="white" stop-opacity="0.26"/>
<stop offset="0.640625" stop-color="white" stop-opacity="0.0781197"/>
<stop offset="1" stop-color="white" stop-opacity="0"/>
</linearGradient>
<linearGradient id="paint7_linear_2330_1432" x1="224.543" y1="87.2231" x2="238.952" y2="148.926" gradientUnits="userSpaceOnUse">
<stop stop-opacity="0"/>
<stop offset="0.605667" stop-opacity="0.0781197"/>
<stop offset="1" stop-opacity="0.26"/>
</linearGradient>
<linearGradient id="paint8_linear_2330_1432" x1="224.543" y1="87.2231" x2="238.952" y2="148.926" gradientUnits="userSpaceOnUse">
<stop stop-color="white" stop-opacity="0.26"/>
<stop offset="0.640625" stop-color="white" stop-opacity="0.0781197"/>
<stop offset="1" stop-color="white" stop-opacity="0"/>
</linearGradient>
<linearGradient id="paint9_linear_2330_1432" x1="89.7477" y1="155.368" x2="104.156" y2="217.07" gradientUnits="userSpaceOnUse">
<stop stop-opacity="0"/>
<stop offset="0.605667" stop-opacity="0.0781197"/>
<stop offset="1" stop-opacity="0.26"/>
</linearGradient>
<linearGradient id="paint10_linear_2330_1432" x1="89.7477" y1="155.368" x2="104.156" y2="217.07" gradientUnits="userSpaceOnUse">
<stop stop-color="white" stop-opacity="0.26"/>
<stop offset="0.640625" stop-color="white" stop-opacity="0.0781197"/>
<stop offset="1" stop-color="white" stop-opacity="0"/>
</linearGradient>
<linearGradient id="paint11_linear_2330_1432" x1="22.3812" y1="87.2231" x2="36.7898" y2="148.926" gradientUnits="userSpaceOnUse">
<stop stop-opacity="0"/>
<stop offset="0.605667" stop-opacity="0.0781197"/>
<stop offset="1" stop-opacity="0.26"/>
</linearGradient>
<linearGradient id="paint12_linear_2330_1432" x1="22.3812" y1="87.2231" x2="36.7898" y2="148.926" gradientUnits="userSpaceOnUse">
<stop stop-color="white" stop-opacity="0.26"/>
<stop offset="0.640625" stop-color="white" stop-opacity="0.0781197"/>
<stop offset="1" stop-color="white" stop-opacity="0"/>
</linearGradient>
<clipPath id="clip0_2330_1432">
<rect width="300" height="200" fill="white"/>
</clipPath>
<clipPath id="clip1_2330_1432">
<rect width="52.6324" height="52.6324" fill="white" transform="translate(23.6855 155.225)"/>
</clipPath>
<clipPath id="clip2_2330_1432">
<rect width="52.6324" height="52.6324" fill="white" transform="translate(157.211 20)"/>
</clipPath>
<clipPath id="clip3_2330_1432">
<rect width="52.6324" height="52.6324" fill="white" transform="translate(159.396 155.225)"/>
</clipPath>
<clipPath id="clip4_2330_1432">
<rect width="52.6324" height="52.6324" fill="white" transform="translate(225.1 20)"/>
</clipPath>
<clipPath id="clip5_2330_1432">
<rect width="38.2009" height="38.2009" fill="white" transform="translate(232.219 27.1191)"/>
</clipPath>
<clipPath id="clip6_2330_1432">
<rect width="38.2009" height="38.2009" fill="white" transform="translate(232.219 27.1191)"/>
</clipPath>
<clipPath id="clip7_2330_1432">
<rect width="52.6324" height="52.6324" fill="white" transform="translate(22.5698 20)"/>
</clipPath>
<clipPath id="clip8_2330_1432">
<rect width="52.6324" height="52.6324" fill="white" transform="translate(90.3662 87.2231)"/>
</clipPath>
<clipPath id="clip9_2330_1432">
<rect width="52.6324" height="52.6324" fill="white" transform="translate(225.161 87.2231)"/>
</clipPath>
<clipPath id="clip10_2330_1432">
<rect width="20.3738" height="30.773" fill="white" transform="translate(241.29 98.1533)"/>
</clipPath>
<clipPath id="clip11_2330_1432">
<rect width="20.3738" height="30.773" fill="white" transform="translate(241.29 98.1533)"/>
</clipPath>
<clipPath id="clip12_2330_1432">
<rect width="20.3738" height="30.773" fill="white" transform="translate(241.29 98.1533)"/>
</clipPath>
<clipPath id="clip13_2330_1432">
<rect width="52.6324" height="52.6324" fill="white" transform="translate(90.365 155.368)"/>
</clipPath>
<clipPath id="clip14_2330_1432">
<rect width="52.6324" height="52.6324" fill="white" transform="translate(22.9985 87.2231)"/>
</clipPath>
<clipPath id="clip15_2330_1432">
<rect width="52.6324" height="52.6324" fill="white" transform="translate(157.016 86.3022)"/>
</clipPath>
</defs>
</svg>
