<svg viewBox="0 0 600 200" fill="none" xmlns="http://www.w3.org/2000/svg">
<g clip-path="url(#clip0_2320_4988)">
<g filter="url(#filter0_ii_2320_4988)">
<g opacity="0.1" clip-path="url(#clip1_2320_4988)">
<path d="M300.831 218.954C312.777 218.954 319.418 218.954 323.756 214.617C328.093 210.279 328.093 203.638 328.093 191.691C328.093 179.745 328.093 173.104 323.756 168.766C319.418 164.429 312.777 164.429 300.831 164.429C288.884 164.429 282.243 164.429 277.905 168.766C273.568 173.104 273.568 179.745 273.568 191.691C273.568 203.638 273.568 210.279 277.905 214.617C282.243 218.954 288.884 218.954 300.831 218.954Z" stroke="white" stroke-width="1.93747" stroke-linecap="round" stroke-dasharray="7.75 6.78"/>
<path d="M301.683 190.107H307.086V192.316H301.683V197.72H299.474V192.316H294.07V190.107H299.474V184.703H301.683V190.107Z" fill="white"/>
</g>
</g>
<g filter="url(#filter1_ii_2320_4988)">
<g opacity="0.1" clip-path="url(#clip2_2320_4988)">
<path d="M226.619 72.1096C238.565 72.1096 245.207 72.1096 249.544 67.772C253.882 63.4343 253.882 56.7932 253.882 44.8468C253.882 32.9004 253.882 26.2592 249.544 21.9216C245.207 17.584 238.565 17.584 226.619 17.584C214.673 17.584 208.031 17.584 203.694 21.9216C199.356 26.2592 199.356 32.9004 199.356 44.8468C199.356 56.7932 199.356 63.4343 203.694 67.772C208.031 72.1096 214.673 72.1096 226.619 72.1096Z" stroke="white" stroke-width="1.93747" stroke-linecap="round" stroke-dasharray="7.75 6.78"/>
<path d="M227.471 43.2622H232.875V45.4712H227.471V50.8755H225.262V45.4712H219.858V43.2622H225.262V37.8579H227.471V43.2622Z" fill="white"/>
</g>
</g>
<g filter="url(#filter2_ii_2320_4988)">
<g clip-path="url(#clip3_2320_4988)">
<path d="M448.162 220C460.684 220 467.646 220 472.193 215.453C476.739 210.906 476.739 203.945 476.739 191.422C476.739 178.9 476.739 171.938 472.193 167.392C467.646 162.845 460.684 162.845 448.162 162.845C435.639 162.845 428.678 162.845 424.131 167.392C419.584 171.938 419.584 178.9 419.584 191.422C419.584 203.945 419.584 210.906 424.131 215.453C428.678 220 435.639 220 448.162 220Z" fill="#151617"/>
<path d="M448.161 163.167C454.432 163.167 459.276 163.167 463.121 163.731C466.956 164.294 469.758 165.412 471.965 167.619C474.172 169.826 475.29 172.628 475.853 176.463C476.417 180.308 476.417 185.152 476.417 191.422C476.417 197.692 476.417 202.536 475.853 206.382C475.29 210.216 474.172 213.019 471.965 215.226C469.758 217.433 466.956 218.551 463.121 219.113C459.276 219.677 454.432 219.678 448.161 219.678C441.891 219.678 437.048 219.677 433.202 219.113C429.368 218.551 426.566 217.433 424.359 215.226C422.152 213.019 421.034 210.216 420.471 206.382C419.907 202.536 419.906 197.692 419.906 191.422C419.906 185.152 419.907 180.308 420.471 176.463C421.034 172.628 422.152 169.826 424.359 167.619C426.566 165.412 429.368 164.294 433.202 163.731C437.048 163.167 441.891 163.167 448.161 163.167Z" stroke="white" stroke-opacity="0.05" stroke-width="0.644237"/>
<path d="M448.162 220C460.684 220 467.646 220 472.193 215.453C476.739 210.906 476.739 203.945 476.739 191.422C476.739 178.9 476.739 171.938 472.193 167.392C467.646 162.845 460.684 162.845 448.162 162.845C435.639 162.845 428.678 162.845 424.131 167.392C419.584 171.938 419.584 178.9 419.584 191.422C419.584 203.945 419.584 210.906 424.131 215.453C428.678 220 435.639 220 448.162 220Z" fill="url(#paint0_linear_2320_4988)"/>
<path opacity="0.4" d="M448.162 220C460.684 220 467.646 220 472.193 215.453C476.739 210.906 476.739 203.945 476.739 191.422C476.739 178.9 476.739 171.938 472.193 167.392C467.646 162.845 460.684 162.845 448.162 162.845C435.639 162.845 428.678 162.845 424.131 167.392C419.584 171.938 419.584 178.9 419.584 191.422C419.584 203.945 419.584 210.906 424.131 215.453C428.678 220 435.639 220 448.162 220Z" fill="url(#paint1_linear_2320_4988)"/>
<g filter="url(#filter3_d_2320_4988)">
<path d="M448.709 173.484C453.317 176.173 457.942 178.833 462.552 181.517C463.054 181.843 463.635 182.14 463.933 182.687C464.089 183.403 464.019 184.145 464.031 184.874C464.021 189.596 464.024 194.319 464.031 199.041C464.021 199.525 464.039 200.019 463.936 200.497C463.633 200.968 463.12 201.242 462.66 201.533C458.709 203.799 454.775 206.098 450.837 208.385C449.999 208.853 449.198 209.418 448.284 209.737C447.721 209.656 447.231 209.332 446.739 209.071C442.748 206.711 438.711 204.432 434.717 202.077C433.922 201.632 433.149 201.143 432.444 200.561V182.626C433.411 181.669 434.669 181.112 435.812 180.405C439.791 178.091 443.761 175.758 447.76 173.484H448.709ZM435.552 183.061C434.989 183.05 434.425 183.052 433.863 183.116C434.535 183.775 435.444 184.076 436.222 184.575C440.17 186.92 444.184 189.156 448.11 191.539C448.315 192.683 448.224 193.851 448.236 195.008C448.241 198.968 448.227 202.931 448.234 206.891C448.234 207.336 448.279 207.78 448.353 208.218C448.5 208.019 448.644 207.817 448.781 207.61C448.85 207.507 448.917 207.403 448.981 207.298C449.046 207.192 449.108 207.086 449.168 206.978C453.417 199.586 457.674 192.202 461.896 184.796C462.209 184.277 462.449 183.719 462.633 183.142C462.244 183.111 461.855 183.092 461.466 183.08C461.076 183.069 460.687 183.065 460.297 183.064C459.518 183.064 458.739 183.078 457.96 183.073C451.055 183.068 444.147 183.068 437.239 183.073C436.678 183.092 436.115 183.071 435.552 183.061Z" fill="white"/>
</g>
</g>
</g>
<g filter="url(#filter4_ii_2320_4988)">
<g clip-path="url(#clip4_2320_4988)">
<path d="M372.578 73.1552C385.1 73.1552 392.062 73.1552 396.608 68.6084C401.155 64.0616 401.155 57.1002 401.155 44.5776C401.155 32.0551 401.155 25.0936 396.608 20.5468C392.062 16 385.1 16 372.578 16C360.055 16 353.094 16 348.547 20.5468C344 25.0936 344 32.0551 344 44.5776C344 57.1002 344 64.0616 348.547 68.6084C353.094 73.1552 360.055 73.1552 372.578 73.1552Z" fill="#151617"/>
<path d="M372.577 16.3223C378.848 16.3223 383.692 16.3226 387.537 16.8867C391.372 17.4493 394.174 18.5673 396.381 20.7744C398.588 22.9815 399.706 25.7836 400.269 29.6182C400.833 33.4635 400.833 38.307 400.833 44.5771C400.833 50.8475 400.833 55.6917 400.269 59.5371C399.706 63.3717 398.588 66.1738 396.381 68.3809C394.174 70.5879 391.372 71.706 387.537 72.2686C383.692 72.8327 378.848 72.833 372.577 72.833C366.307 72.833 361.463 72.8327 357.618 72.2686C353.784 71.706 350.981 70.5879 348.774 68.3809C346.567 66.1738 345.449 63.3717 344.887 59.5371C344.323 55.6917 344.322 50.8475 344.322 44.5771C344.322 38.307 344.323 33.4635 344.887 29.6182C345.449 25.7836 346.567 22.9815 348.774 20.7744C350.981 18.5673 353.784 17.4493 357.618 16.8867C361.463 16.3226 366.307 16.3223 372.577 16.3223Z" stroke="white" stroke-opacity="0.05" stroke-width="0.644237"/>
<path d="M372.578 73.1552C385.1 73.1552 392.062 73.1552 396.608 68.6084C401.155 64.0616 401.155 57.1002 401.155 44.5776C401.155 32.0551 401.155 25.0936 396.608 20.5468C392.062 16 385.1 16 372.578 16C360.055 16 353.094 16 348.547 20.5468C344 25.0936 344 32.0551 344 44.5776C344 57.1002 344 64.0616 348.547 68.6084C353.094 73.1552 360.055 73.1552 372.578 73.1552Z" fill="url(#paint2_linear_2320_4988)"/>
<path opacity="0.4" d="M372.578 73.1552C385.1 73.1552 392.062 73.1552 396.608 68.6084C401.155 64.0616 401.155 57.1002 401.155 44.5776C401.155 32.0551 401.155 25.0936 396.608 20.5468C392.062 16 385.1 16 372.578 16C360.055 16 353.094 16 348.547 20.5468C344 25.0936 344 32.0551 344 44.5776C344 57.1002 344 64.0616 348.547 68.6084C353.094 73.1552 360.055 73.1552 372.578 73.1552Z" fill="url(#paint3_linear_2320_4988)"/>
</g>
<g filter="url(#filter5_i_2320_4988)">
<g clip-path="url(#clip5_2320_4988)">
<g filter="url(#filter6_ii_2320_4988)">
<g clip-path="url(#clip6_2320_4988)">
<path d="M372.473 23.731C361.02 23.731 351.731 33.0181 351.731 44.4728C351.731 53.6372 357.673 61.4119 365.917 64.155C366.952 64.3469 367.287 63.7039 367.287 63.1577V59.2963C361.518 60.5511 360.316 56.8487 360.316 56.8487C359.373 54.4513 358.012 53.8135 358.012 53.8135C356.13 52.5258 358.156 52.5534 358.156 52.5534C360.239 52.6986 361.334 54.6916 361.334 54.6916C363.184 57.8616 366.186 56.9455 367.37 56.4149C367.555 55.0753 368.093 54.1592 368.687 53.6424C364.081 53.1152 359.238 51.3366 359.238 43.3907C359.238 41.1247 360.048 39.2752 361.374 37.8233C361.16 37.2996 360.449 35.1891 361.576 32.3336C361.576 32.3336 363.319 31.7771 367.282 34.4597C368.936 33.9999 370.71 33.77 372.473 33.7614C374.236 33.77 376.011 33.9999 377.669 34.4597C381.629 31.7771 383.367 32.3336 383.367 32.3336C384.496 35.1908 383.786 37.3013 383.571 37.8233C384.902 39.2752 385.706 41.1264 385.706 43.3907C385.706 51.3573 380.854 53.1117 376.236 53.6251C376.979 54.2681 377.658 55.5299 377.658 57.4658V63.1577C377.658 63.7091 377.99 64.3573 379.043 64.1533C387.279 61.4067 393.215 53.6337 393.215 44.4728C393.215 33.0181 383.927 23.731 372.473 23.731Z" fill="url(#paint4_linear_2320_4988)"/>
</g>
</g>
</g>
</g>
</g>
<g filter="url(#filter7_ii_2320_4988)">
<g clip-path="url(#clip7_2320_4988)">
<path d="M299.578 73.1552C312.1 73.1552 319.062 73.1552 323.608 68.6084C328.155 64.0616 328.155 57.1002 328.155 44.5776C328.155 32.0551 328.155 25.0936 323.608 20.5468C319.062 16 312.1 16 299.578 16C287.055 16 280.094 16 275.547 20.5468C271 25.0936 271 32.0551 271 44.5776C271 57.1002 271 64.0616 275.547 68.6084C280.094 73.1552 287.055 73.1552 299.578 73.1552Z" fill="#545555" fill-opacity="0.4"/>
</g>
</g>
<g filter="url(#filter8_ii_2320_4988)">
<g clip-path="url(#clip8_2320_4988)">
<path d="M445.578 73.1552C458.1 73.1552 465.062 73.1552 469.608 68.6084C474.155 64.0616 474.155 57.1002 474.155 44.5776C474.155 32.0551 474.155 25.0936 469.608 20.5468C465.062 16 458.1 16 445.578 16C433.055 16 426.094 16 421.547 20.5468C417 25.0936 417 32.0551 417 44.5776C417 57.1002 417 64.0616 421.547 68.6084C426.094 73.1552 433.055 73.1552 445.578 73.1552Z" fill="#E44D26"/>
<path d="M445.577 16.3223C451.848 16.3223 456.692 16.3226 460.537 16.8867C464.372 17.4493 467.174 18.5673 469.381 20.7744C471.588 22.9815 472.706 25.7836 473.269 29.6182C473.833 33.4635 473.833 38.307 473.833 44.5771C473.833 50.8475 473.833 55.6917 473.269 59.5371C472.706 63.3717 471.588 66.1738 469.381 68.3809C467.174 70.5879 464.372 71.706 460.537 72.2686C456.692 72.8327 451.848 72.833 445.577 72.833C439.307 72.833 434.463 72.8327 430.618 72.2686C426.784 71.706 423.981 70.5879 421.774 68.3809C419.567 66.1738 418.449 63.3717 417.887 59.5371C417.323 55.6917 417.322 50.8475 417.322 44.5771C417.322 38.307 417.323 33.4635 417.887 29.6182C418.449 25.7836 419.567 22.9815 421.774 20.7744C423.981 18.5673 426.784 17.4493 430.618 16.8867C434.463 16.3226 439.307 16.3223 445.577 16.3223Z" stroke="white" stroke-opacity="0.05" stroke-width="0.644237"/>
<path d="M445.578 73.1552C458.1 73.1552 465.062 73.1552 469.608 68.6084C474.155 64.0616 474.155 57.1002 474.155 44.5776C474.155 32.0551 474.155 25.0936 469.608 20.5468C465.062 16 458.1 16 445.578 16C433.055 16 426.094 16 421.547 20.5468C417 25.0936 417 32.0551 417 44.5776C417 57.1002 417 64.0616 421.547 68.6084C426.094 73.1552 433.055 73.1552 445.578 73.1552Z" fill="url(#paint5_linear_2320_4988)"/>
<path opacity="0.4" d="M445.578 73.1552C458.1 73.1552 465.062 73.1552 469.608 68.6084C474.155 64.0616 474.155 57.1002 474.155 44.5776C474.155 32.0551 474.155 25.0936 469.608 20.5468C465.062 16 458.1 16 445.578 16C433.055 16 426.094 16 421.547 20.5468C417 25.0936 417 32.0551 417 44.5776C417 57.1002 417 64.0616 421.547 68.6084C426.094 73.1552 433.055 73.1552 445.578 73.1552Z" fill="url(#paint6_linear_2320_4988)"/>
<path d="M429.241 26.3081H431.787V28.8327H434.135V26.3081H436.682V33.9484H434.135V31.4016H431.81V33.9484H429.241M440.048 28.8549H437.8V26.3081H444.853V28.8549H442.595V33.9484H440.048M445.972 26.3081H448.64L450.279 28.9988L451.918 26.3081H454.586V33.9484H452.04V30.1614L450.257 32.9075L448.474 30.1614V33.9484H445.972M455.849 26.3081H458.395V31.4238H462.005V33.9484H455.849" fill="white"/>
<path d="M432.961 36.166H445.584V41.1931H438.475L438.941 46.3419H445.584V51.3579H434.334M434.556 53.8825H439.605L439.959 57.902L445.584 59.4079V64.6564L435.264 61.7775" fill="#EBEBEB"/>
<path d="M458.163 36.166H445.562V41.1931H457.698M457.244 46.3419H445.562V51.369H451.763L451.176 57.902L445.562 59.4079V64.6343L455.86 61.7775" fill="white"/>
</g>
</g>
<g filter="url(#filter9_ii_2320_4988)">
<g opacity="0.1" clip-path="url(#clip9_2320_4988)">
<path d="M80.6187 145.11C92.5651 145.11 99.2063 145.11 103.544 140.772C107.882 136.435 107.882 129.794 107.882 117.847C107.882 105.901 107.882 99.2597 103.544 94.9221C99.2063 90.5845 92.5651 90.5845 80.6187 90.5845C68.6723 90.5845 62.0312 90.5845 57.6936 94.9221C53.356 99.2597 53.356 105.901 53.356 117.847C53.356 129.794 53.356 136.435 57.6936 140.772C62.0312 145.11 68.6723 145.11 80.6187 145.11Z" stroke="white" stroke-width="1.93747" stroke-linecap="round" stroke-dasharray="7.75 6.78"/>
<path d="M80.6187 145.11C92.5651 145.11 99.2063 145.11 103.544 140.772C107.882 136.435 107.882 129.794 107.882 117.847C107.882 105.901 107.882 99.2597 103.544 94.9221C99.2063 90.5845 92.5651 90.5845 80.6187 90.5845C68.6723 90.5845 62.0312 90.5845 57.6936 94.9221C53.356 99.2597 53.356 105.901 53.356 117.847C53.356 129.794 53.356 136.435 57.6936 140.772C62.0312 145.11 68.6723 145.11 80.6187 145.11Z" stroke="white" stroke-width="1.93747" stroke-linecap="round" stroke-dasharray="7.75 6.78"/>
<path d="M81.4714 116.262H86.8757V118.471H81.4714V123.875H79.2625V118.471H73.8582V116.262H79.2625V110.858H81.4714V116.262Z" fill="white"/>
</g>
</g>
<g filter="url(#filter10_ii_2320_4988)">
<g clip-path="url(#clip10_2320_4988)">
<path d="M153.733 146.155C166.255 146.155 173.217 146.155 177.764 141.608C182.311 137.062 182.311 130.1 182.311 117.578C182.311 105.055 182.311 98.0936 177.764 93.5468C173.217 89 166.255 89 153.733 89C141.21 89 134.249 89 129.702 93.5468C125.155 98.0936 125.155 105.055 125.155 117.578C125.155 130.1 125.155 137.062 129.702 141.608C134.249 146.155 141.21 146.155 153.733 146.155Z" fill="#00005B"/>
<path d="M153.732 89.3223C160.003 89.3223 164.847 89.3226 168.692 89.8867C172.527 90.4493 175.329 91.5673 177.536 93.7744C179.743 95.9815 180.861 98.7836 181.424 102.618C181.988 106.463 181.988 111.307 181.988 117.577C181.988 123.848 181.988 128.692 181.424 132.537C180.861 136.372 179.743 139.174 177.536 141.381C175.329 143.588 172.527 144.706 168.692 145.269C164.847 145.833 160.003 145.833 153.732 145.833C147.462 145.833 142.619 145.833 138.773 145.269C134.939 144.706 132.137 143.588 129.93 141.381C127.723 139.174 126.605 136.372 126.042 132.537C125.478 128.692 125.478 123.848 125.478 117.577C125.478 111.307 125.478 106.463 126.042 102.618C126.605 98.7836 127.723 95.9815 129.93 93.7744C132.137 91.5673 134.939 90.4493 138.773 89.8867C142.619 89.3226 147.462 89.3223 153.732 89.3223Z" stroke="white" stroke-opacity="0.05" stroke-width="0.644237"/>
<path d="M153.733 146.155C166.255 146.155 173.217 146.155 177.764 141.608C182.311 137.062 182.311 130.1 182.311 117.578C182.311 105.055 182.311 98.0936 177.764 93.5468C173.217 89 166.255 89 153.733 89C141.21 89 134.249 89 129.702 93.5468C125.155 98.0936 125.155 105.055 125.155 117.578C125.155 130.1 125.155 137.062 129.702 141.608C134.249 146.155 141.21 146.155 153.733 146.155Z" fill="url(#paint7_linear_2320_4988)"/>
<path opacity="0.4" d="M153.733 146.155C166.255 146.155 173.217 146.155 177.764 141.608C182.311 137.062 182.311 130.1 182.311 117.578C182.311 105.055 182.311 98.0936 177.764 93.5468C173.217 89 166.255 89 153.733 89C141.21 89 134.249 89 129.702 93.5468C125.155 98.0936 125.155 105.055 125.155 117.578C125.155 130.1 125.155 137.062 129.702 141.608C134.249 146.155 141.21 146.155 153.733 146.155Z" fill="url(#paint8_linear_2320_4988)"/>
<g filter="url(#filter11_d_2320_4988)">
<path d="M148.797 123.641H140.29L138.558 129.135C138.536 129.236 138.479 129.325 138.398 129.387C138.318 129.449 138.218 129.48 138.117 129.474H133.813C133.568 129.474 133.482 129.335 133.556 129.06L140.922 107.515C140.994 107.29 141.068 107.069 141.142 106.782C141.239 106.28 141.288 105.771 141.289 105.26C141.281 105.199 141.296 105.137 141.333 105.088C141.369 105.039 141.423 105.006 141.483 104.998C141.504 104.994 141.526 104.994 141.547 104.998H147.402C147.574 104.998 147.672 105.06 147.697 105.186L156.052 129.098C156.124 129.349 156.05 129.474 155.832 129.474H151.043C150.961 129.483 150.878 129.461 150.811 129.413C150.743 129.365 150.695 129.293 150.675 129.211L148.797 123.641ZM141.62 119.009H147.439C147.291 118.508 147.119 117.945 146.922 117.318C146.726 116.692 146.517 116.022 146.297 115.309L145.634 113.168C145.413 112.455 145.211 111.766 145.026 111.102C144.842 110.437 144.675 109.83 144.525 109.28H144.488C144.281 110.295 144.023 111.298 143.714 112.285C143.371 113.412 143.021 114.564 142.664 115.741C142.308 116.917 141.958 118.006 141.616 119.009H141.62Z" fill="#9999FF"/>
<path d="M169.21 121.694H161.91C161.999 122.425 162.239 123.13 162.614 123.761C163.028 124.387 163.614 124.876 164.3 125.168C165.229 125.576 166.234 125.775 167.246 125.753C168.049 125.738 168.849 125.649 169.636 125.487C170.34 125.39 171.03 125.207 171.69 124.941C171.814 124.842 171.876 124.905 171.876 125.129V128.694C171.887 128.783 171.872 128.873 171.832 128.954C171.793 129.034 171.73 129.1 171.653 129.145C170.92 129.473 170.149 129.706 169.358 129.837C168.283 130.042 167.191 130.136 166.097 130.118C164.343 130.118 162.873 129.843 161.688 129.293C160.568 128.793 159.578 128.035 158.797 127.08C158.07 126.179 157.528 125.14 157.204 124.023C156.885 122.92 156.722 121.776 156.723 120.626C156.72 119.371 156.913 118.124 157.297 116.93C157.667 115.766 158.253 114.684 159.022 113.741C159.78 112.809 160.728 112.054 161.801 111.527C162.888 110.989 164.172 110.796 165.654 110.796C166.884 110.765 168.105 111.009 169.231 111.51C170.177 111.918 171.01 112.555 171.657 113.366C172.264 114.159 172.728 115.055 173.028 116.011C173.32 116.933 173.47 117.895 173.473 118.864C173.473 119.414 173.454 119.914 173.417 120.364C173.38 120.814 173.349 121.139 173.325 121.34C173.315 121.423 173.276 121.499 173.214 121.554C173.153 121.61 173.073 121.64 172.991 121.64C172.843 121.64 172.59 121.659 172.231 121.696C171.873 121.734 171.428 121.758 170.898 121.771C170.368 121.785 169.803 121.694 169.21 121.694ZM161.91 118.275H166.76C167.353 118.275 167.791 118.269 168.075 118.257C168.266 118.237 168.45 118.176 168.614 118.077V117.851C168.606 117.557 168.556 117.267 168.465 116.988C168.266 116.348 167.864 115.792 167.321 115.405C166.779 115.019 166.126 114.823 165.464 114.849C164.84 114.811 164.219 114.958 163.677 115.271C163.134 115.584 162.693 116.05 162.407 116.613C162.155 117.136 161.987 117.698 161.91 118.275Z" fill="#9999FF"/>
</g>
</g>
</g>
<g filter="url(#filter12_ii_2320_4988)">
<g clip-path="url(#clip11_2320_4988)">
<path d="M519.578 146.155C532.1 146.155 539.062 146.155 543.608 141.608C548.155 137.062 548.155 130.1 548.155 117.578C548.155 105.055 548.155 98.0936 543.608 93.5468C539.062 89 532.1 89 519.578 89C507.055 89 500.094 89 495.547 93.5468C491 98.0936 491 105.055 491 117.578C491 130.1 491 137.062 495.547 141.608C500.094 146.155 507.055 146.155 519.578 146.155Z" fill="#151617"/>
<path d="M519.577 89.3223C525.848 89.3223 530.692 89.3226 534.537 89.8867C538.372 90.4493 541.174 91.5673 543.381 93.7744C545.588 95.9815 546.706 98.7836 547.269 102.618C547.833 106.463 547.833 111.307 547.833 117.577C547.833 123.848 547.833 128.692 547.269 132.537C546.706 136.372 545.588 139.174 543.381 141.381C541.174 143.588 538.372 144.706 534.537 145.269C530.692 145.833 525.848 145.833 519.577 145.833C513.307 145.833 508.463 145.833 504.618 145.269C500.784 144.706 497.981 143.588 495.774 141.381C493.567 139.174 492.449 136.372 491.887 132.537C491.323 128.692 491.322 123.848 491.322 117.577C491.322 111.307 491.323 106.463 491.887 102.618C492.449 98.7836 493.567 95.9815 495.774 93.7744C497.981 91.5673 500.784 90.4493 504.618 89.8867C508.463 89.3226 513.307 89.3223 519.577 89.3223Z" stroke="white" stroke-opacity="0.05" stroke-width="0.644237"/>
<path d="M519.578 146.155C532.1 146.155 539.062 146.155 543.608 141.608C548.155 137.062 548.155 130.1 548.155 117.578C548.155 105.055 548.155 98.0936 543.608 93.5468C539.062 89 532.1 89 519.578 89C507.055 89 500.094 89 495.547 93.5468C491 98.0936 491 105.055 491 117.578C491 130.1 491 137.062 495.547 141.608C500.094 146.155 507.055 146.155 519.578 146.155Z" fill="url(#paint9_linear_2320_4988)"/>
<path opacity="0.4" d="M519.578 146.155C532.1 146.155 539.062 146.155 543.608 141.608C548.155 137.062 548.155 130.1 548.155 117.578C548.155 105.055 548.155 98.0936 543.608 93.5468C539.062 89 532.1 89 519.578 89C507.055 89 500.094 89 495.547 93.5468C491 98.0936 491 105.055 491 117.578C491 130.1 491 137.062 495.547 141.608C500.094 146.155 507.055 146.155 519.578 146.155Z" fill="url(#paint10_linear_2320_4988)"/>
</g>
<g style="mix-blend-mode:screen" opacity="0.6" clip-path="url(#clip12_2320_4988)">
<g filter="url(#filter13_i_2320_4988)">
<path d="M514.048 134.286C517.1 134.286 519.578 131.791 519.578 128.717V123.147H514.048C510.995 123.147 508.518 125.642 508.518 128.717C508.518 131.791 510.995 134.286 514.048 134.286Z" fill="#40DC7F"/>
</g>
<g filter="url(#filter14_i_2320_4988)">
<path d="M508.518 117.578C508.518 114.503 510.995 112.008 514.048 112.008H519.578V123.147H514.048C510.995 123.147 508.518 120.652 508.518 117.578Z" fill="#B068FF"/>
</g>
<g filter="url(#filter15_i_2320_4988)">
<path d="M508.518 106.439C508.518 103.364 510.995 100.869 514.048 100.869H519.578V112.008H514.048C510.995 112.008 508.518 109.513 508.518 106.439Z" fill="#FF6A33"/>
</g>
<g filter="url(#filter16_i_2320_4988)">
<path d="M519.578 100.869H525.108C528.161 100.869 530.638 103.364 530.638 106.439C530.638 109.513 528.161 112.008 525.108 112.008H519.578V100.869Z" fill="#FF8570"/>
</g>
<g filter="url(#filter17_i_2320_4988)">
<path d="M530.638 117.578C530.638 120.652 528.161 123.147 525.108 123.147C522.055 123.147 519.578 120.652 519.578 117.578C519.578 114.503 522.055 112.008 525.108 112.008C528.161 112.008 530.638 114.503 530.638 117.578Z" fill="#51CDFF"/>
</g>
</g>
<g opacity="0.5" clip-path="url(#clip13_2320_4988)">
<g filter="url(#filter18_i_2320_4988)">
<path d="M514.048 134.286C517.1 134.286 519.578 131.791 519.578 128.717V123.147H514.048C510.995 123.147 508.518 125.642 508.518 128.717C508.518 131.791 510.995 134.286 514.048 134.286Z" fill="#40DC7F"/>
</g>
<g filter="url(#filter19_i_2320_4988)">
<path d="M508.518 117.578C508.518 114.503 510.995 112.008 514.048 112.008H519.578V123.147H514.048C510.995 123.147 508.518 120.652 508.518 117.578Z" fill="#B068FF"/>
</g>
<g filter="url(#filter20_i_2320_4988)">
<path d="M508.518 106.439C508.518 103.364 510.995 100.869 514.048 100.869H519.578V112.008H514.048C510.995 112.008 508.518 109.513 508.518 106.439Z" fill="#FF6A33"/>
</g>
<g filter="url(#filter21_i_2320_4988)">
<path d="M519.578 100.869H525.108C528.161 100.869 530.638 103.364 530.638 106.439C530.638 109.513 528.161 112.008 525.108 112.008H519.578V100.869Z" fill="#FF8570"/>
</g>
<g filter="url(#filter22_i_2320_4988)">
<path d="M530.638 117.578C530.638 120.652 528.161 123.147 525.108 123.147C522.055 123.147 519.578 120.652 519.578 117.578C519.578 114.503 522.055 112.008 525.108 112.008C528.161 112.008 530.638 114.503 530.638 117.578Z" fill="#51CDFF"/>
</g>
</g>
<g filter="url(#filter23_i_2320_4988)">
<g clip-path="url(#clip14_2320_4988)">
<g filter="url(#filter24_i_2320_4988)">
<path d="M514.048 134.286C517.1 134.286 519.578 131.791 519.578 128.717V123.147H514.048C510.995 123.147 508.518 125.642 508.518 128.717C508.518 131.791 510.995 134.286 514.048 134.286Z" fill="#40DC7F"/>
</g>
<g filter="url(#filter25_i_2320_4988)">
<path d="M508.518 117.578C508.518 114.503 510.995 112.008 514.048 112.008H519.578V123.147H514.048C510.995 123.147 508.518 120.652 508.518 117.578Z" fill="#B068FF"/>
</g>
<g filter="url(#filter26_i_2320_4988)">
<path d="M508.518 106.439C508.518 103.364 510.995 100.869 514.048 100.869H519.578V112.008H514.048C510.995 112.008 508.518 109.513 508.518 106.439Z" fill="#FF6A33"/>
</g>
<g filter="url(#filter27_i_2320_4988)">
<path d="M519.578 100.869H525.108C528.161 100.869 530.638 103.364 530.638 106.439C530.638 109.513 528.161 112.008 525.108 112.008H519.578V100.869Z" fill="#FF8570"/>
</g>
<g filter="url(#filter28_i_2320_4988)">
<path d="M530.638 117.578C530.638 120.652 528.161 123.147 525.108 123.147C522.055 123.147 519.578 120.652 519.578 117.578C519.578 114.503 522.055 112.008 525.108 112.008C528.161 112.008 530.638 114.503 530.638 117.578Z" fill="#51CDFF"/>
</g>
</g>
</g>
</g>
<g filter="url(#filter29_ii_2320_4988)">
<g clip-path="url(#clip15_2320_4988)">
<path d="M373.199 220.155C385.721 220.155 392.683 220.155 397.23 215.608C401.776 211.062 401.776 204.1 401.776 191.578C401.776 179.055 401.776 172.094 397.23 167.547C392.683 163 385.721 163 373.199 163C360.676 163 353.715 163 349.168 167.547C344.621 172.094 344.621 179.055 344.621 191.578C344.621 204.1 344.621 211.062 349.168 215.608C353.715 220.155 360.676 220.155 373.199 220.155Z" fill="#151617"/>
<path d="M373.198 163.322C379.469 163.322 384.313 163.323 388.158 163.887C391.993 164.449 394.795 165.567 397.002 167.774C399.209 169.981 400.327 172.784 400.89 176.618C401.454 180.463 401.454 185.307 401.454 191.577C401.454 197.848 401.454 202.692 400.89 206.537C400.327 210.372 399.209 213.174 397.002 215.381C394.795 217.588 391.993 218.706 388.158 219.269C384.313 219.833 379.469 219.833 373.198 219.833C366.928 219.833 362.085 219.833 358.239 219.269C354.405 218.706 351.603 217.588 349.396 215.381C347.188 213.174 346.07 210.372 345.508 206.537C344.944 202.692 344.943 197.848 344.943 191.577C344.943 185.307 344.944 180.463 345.508 176.618C346.07 172.784 347.188 169.981 349.396 167.774C351.603 165.567 354.405 164.449 358.239 163.887C362.085 163.323 366.928 163.322 373.198 163.322Z" stroke="white" stroke-opacity="0.05" stroke-width="0.644237"/>
<path d="M373.199 220.155C385.721 220.155 392.683 220.155 397.23 215.608C401.776 211.062 401.776 204.1 401.776 191.578C401.776 179.055 401.776 172.094 397.23 167.547C392.683 163 385.721 163 373.199 163C360.676 163 353.715 163 349.168 167.547C344.621 172.094 344.621 179.055 344.621 191.578C344.621 204.1 344.621 211.062 349.168 215.608C353.715 220.155 360.676 220.155 373.199 220.155Z" fill="url(#paint11_linear_2320_4988)"/>
<path opacity="0.4" d="M373.199 220.155C385.721 220.155 392.683 220.155 397.23 215.608C401.776 211.062 401.776 204.1 401.776 191.578C401.776 179.055 401.776 172.094 397.23 167.547C392.683 163 385.721 163 373.199 163C360.676 163 353.715 163 349.168 167.547C344.621 172.094 344.621 179.055 344.621 191.578C344.621 204.1 344.621 211.062 349.168 215.608C353.715 220.155 360.676 220.155 373.199 220.155Z" fill="url(#paint12_linear_2320_4988)"/>
<g filter="url(#filter30_d_2320_4988)">
<path d="M388.068 188.192C388.868 185.823 388.592 183.227 387.313 181.073C385.39 177.768 381.522 176.067 377.745 176.868C376.065 175 373.651 173.938 371.12 173.953C367.26 173.944 363.834 176.397 362.647 180.021C360.167 180.523 358.026 182.054 356.773 184.226C354.835 187.522 355.277 191.677 357.866 194.504C357.066 196.873 357.342 199.468 358.621 201.622C360.544 204.927 364.412 206.628 368.189 205.828C369.868 207.695 372.283 208.758 374.814 208.741C378.676 208.751 382.103 206.296 383.291 202.668C385.771 202.167 387.912 200.635 389.164 198.464C391.1 195.168 390.657 191.016 388.069 188.189L388.068 188.192ZM374.816 206.468C373.27 206.47 371.773 205.936 370.586 204.959C370.64 204.931 370.734 204.88 370.794 204.843L377.815 200.842C378.174 200.641 378.394 200.263 378.392 199.856V190.09L381.359 191.78C381.391 191.795 381.412 191.826 381.417 191.861V199.948C381.412 203.545 378.461 206.46 374.816 206.468ZM360.621 200.485C359.846 199.165 359.567 197.618 359.833 196.117C359.885 196.147 359.976 196.203 360.041 196.24L367.062 200.241C367.417 200.446 367.858 200.446 368.215 200.241L376.786 195.357V198.738C376.788 198.773 376.771 198.807 376.744 198.828L369.647 202.872C366.486 204.668 362.449 203.6 360.622 200.485H360.621ZM358.773 185.364C359.544 184.042 360.762 183.031 362.211 182.506C362.211 182.565 362.208 182.671 362.208 182.745V190.747C362.206 191.154 362.426 191.531 362.784 191.732L371.355 196.615L368.388 198.305C368.358 198.325 368.321 198.328 368.288 198.314L361.19 194.268C358.036 192.465 356.954 188.483 358.772 185.365L358.773 185.364ZM383.151 190.962L374.58 186.078L377.547 184.389C377.577 184.369 377.614 184.366 377.647 184.38L384.745 188.423C387.905 190.225 388.988 194.213 387.162 197.331C386.39 198.651 385.174 199.662 383.725 200.188V191.947C383.728 191.54 383.509 191.164 383.152 190.962H383.151ZM386.104 186.576C386.052 186.544 385.96 186.49 385.895 186.453L378.875 182.452C378.519 182.247 378.078 182.247 377.721 182.452L369.15 187.336V183.955C369.148 183.92 369.165 183.886 369.192 183.865L376.289 179.825C379.45 178.025 383.491 179.096 385.314 182.216C386.084 183.534 386.362 185.077 386.101 186.576H386.104ZM367.537 192.602L364.569 190.912C364.537 190.896 364.516 190.866 364.512 190.831V182.744C364.514 179.143 367.475 176.225 371.124 176.227C372.667 176.227 374.161 176.762 375.348 177.736C375.294 177.764 375.201 177.816 375.14 177.852L368.119 181.853C367.76 182.054 367.54 182.431 367.542 182.838L367.537 192.6V192.602ZM369.149 189.173L372.967 186.998L376.785 189.172V193.522L372.967 195.696L369.149 193.522V189.173Z" fill="white"/>
</g>
</g>
</g>
<g filter="url(#filter31_ii_2320_4988)">
<g clip-path="url(#clip16_2320_4988)">
<path d="M300.043 146.155C312.566 146.155 319.527 146.155 324.074 141.608C328.621 137.062 328.621 130.1 328.621 117.578C328.621 105.055 328.621 98.0936 324.074 93.5468C319.527 89 312.566 89 300.043 89C287.521 89 280.559 89 276.013 93.5468C271.466 98.0936 271.466 105.055 271.466 117.578C271.466 130.1 271.466 137.062 276.013 141.608C280.559 146.155 287.521 146.155 300.043 146.155Z" fill="#001E36"/>
<path d="M300.043 89.3223C306.313 89.3223 311.158 89.3226 315.003 89.8867C318.837 90.4493 321.64 91.5673 323.847 93.7744C326.054 95.9815 327.172 98.7836 327.734 102.618C328.298 106.463 328.299 111.307 328.299 117.577C328.299 123.848 328.299 128.692 327.734 132.537C327.172 136.372 326.054 139.174 323.847 141.381C321.64 143.588 318.837 144.706 315.003 145.269C311.158 145.833 306.313 145.833 300.043 145.833C293.773 145.833 288.929 145.833 285.084 145.269C281.249 144.706 278.447 143.588 276.24 141.381C274.033 139.174 272.915 136.372 272.353 132.537C271.788 128.692 271.788 123.848 271.788 117.577C271.788 111.307 271.788 106.463 272.353 102.618C272.915 98.7836 274.033 95.9815 276.24 93.7744C278.447 91.5673 281.249 90.4493 285.084 89.8867C288.929 89.3226 293.773 89.3223 300.043 89.3223Z" stroke="white" stroke-opacity="0.05" stroke-width="0.644237"/>
<path d="M300.043 146.155C312.566 146.155 319.527 146.155 324.074 141.608C328.621 137.062 328.621 130.1 328.621 117.578C328.621 105.055 328.621 98.0936 324.074 93.5468C319.527 89 312.566 89 300.043 89C287.521 89 280.559 89 276.013 93.5468C271.466 98.0936 271.466 105.055 271.466 117.578C271.466 130.1 271.466 137.062 276.013 141.608C280.559 146.155 287.521 146.155 300.043 146.155Z" fill="url(#paint13_linear_2320_4988)"/>
<path opacity="0.4" d="M300.043 146.155C312.566 146.155 319.527 146.155 324.074 141.608C328.621 137.062 328.621 130.1 328.621 117.578C328.621 105.055 328.621 98.0936 324.074 93.5468C319.527 89 312.566 89 300.043 89C287.521 89 280.559 89 276.013 93.5468C271.466 98.0936 271.466 105.055 271.466 117.578C271.466 130.1 271.466 137.062 276.013 141.608C280.559 146.155 287.521 146.155 300.043 146.155Z" fill="url(#paint14_linear_2320_4988)"/>
<g filter="url(#filter32_d_2320_4988)">
<path d="M283.707 129.315V105.371C283.707 105.197 283.779 105.109 283.926 105.109C284.314 105.109 284.671 105.109 285.203 105.09C285.735 105.072 286.317 105.065 286.938 105.053L288.911 105.015C289.605 105.003 290.293 104.997 290.975 104.997C292.825 104.997 294.386 105.234 295.657 105.708C296.799 106.105 297.841 106.758 298.707 107.619C299.441 108.366 300.008 109.268 300.369 110.262C300.71 111.229 300.883 112.251 300.879 113.28C300.879 115.28 300.428 116.929 299.527 118.227C298.62 119.53 297.345 120.518 295.874 121.056C294.339 121.643 292.634 121.842 290.759 121.842C290.227 121.842 289.846 121.836 289.626 121.823C289.407 121.81 289.078 121.805 288.64 121.805V129.28C288.645 129.318 288.643 129.358 288.634 129.396C288.625 129.434 288.608 129.47 288.585 129.501C288.562 129.532 288.533 129.559 288.5 129.579C288.467 129.599 288.431 129.612 288.393 129.617C288.366 129.621 288.338 129.621 288.311 129.617H283.962C283.787 129.614 283.707 129.514 283.707 129.315ZM288.64 109.606V117.415C288.956 117.44 289.249 117.453 289.517 117.452H290.722C291.61 117.449 292.491 117.304 293.335 117.024C294.058 116.805 294.705 116.376 295.198 115.791C295.673 115.217 295.91 114.416 295.91 113.39C295.929 112.665 295.744 111.95 295.378 111.329C294.995 110.729 294.44 110.264 293.79 109.999C292.943 109.661 292.038 109.502 291.13 109.53C290.545 109.53 290.027 109.537 289.577 109.549C289.128 109.561 288.817 109.58 288.645 109.606H288.64Z" fill="#31A8FF"/>
<path d="M315.004 115.995C314.317 115.632 313.586 115.368 312.83 115.208C311.997 115.011 311.145 114.911 310.291 114.908C309.829 114.895 309.367 114.952 308.921 115.077C308.637 115.141 308.384 115.307 308.208 115.545C308.089 115.735 308.026 115.956 308.026 116.182C308.033 116.401 308.11 116.612 308.246 116.781C308.459 117.038 308.72 117.248 309.013 117.399C309.533 117.686 310.07 117.941 310.62 118.163C311.846 118.584 313.017 119.157 314.109 119.868C314.852 120.35 315.467 121.013 315.899 121.798C316.263 122.542 316.446 123.366 316.431 124.199C316.452 125.297 316.147 126.376 315.554 127.291C314.919 128.219 314.038 128.941 313.015 129.37C311.904 129.871 310.533 130.121 308.901 130.121C307.865 130.131 306.831 130.03 305.815 129.821C305.015 129.67 304.235 129.418 303.495 129.071C303.415 129.029 303.349 128.964 303.303 128.884C303.258 128.805 303.235 128.713 303.239 128.621V124.575C303.234 124.536 303.24 124.495 303.256 124.459C303.273 124.423 303.298 124.392 303.33 124.369C303.362 124.351 303.398 124.343 303.434 124.346C303.47 124.349 303.504 124.364 303.531 124.388C304.406 124.917 305.356 125.302 306.347 125.53C307.22 125.755 308.115 125.874 309.015 125.886C309.866 125.886 310.493 125.774 310.896 125.549C311.078 125.464 311.231 125.326 311.338 125.154C311.445 124.981 311.501 124.78 311.499 124.575C311.499 124.25 311.316 123.938 310.951 123.638C310.585 123.338 309.842 122.978 308.72 122.557C307.573 122.148 306.486 121.581 305.487 120.871C304.773 120.362 304.185 119.69 303.77 118.906C303.41 118.168 303.227 117.352 303.238 116.527C303.235 115.533 303.501 114.557 304.006 113.709C304.58 112.777 305.405 112.035 306.381 111.573C307.452 111.024 308.792 110.749 310.399 110.749C311.341 110.741 312.282 110.81 313.213 110.954C313.887 111.043 314.546 111.227 315.171 111.5C315.221 111.515 315.266 111.541 315.304 111.577C315.342 111.613 315.372 111.657 315.39 111.706C315.415 111.798 315.427 111.892 315.426 111.987V115.772C315.429 115.816 315.421 115.859 315.402 115.899C315.384 115.938 315.355 115.972 315.32 115.997C315.271 116.021 315.217 116.034 315.162 116.034C315.107 116.033 315.053 116.02 315.004 115.995Z" fill="#31A8FF"/>
</g>
</g>
</g>
<g filter="url(#filter33_ii_2320_4988)">
<g clip-path="url(#clip17_2320_4988)">
<path d="M372.578 145.155C385.1 145.155 392.062 145.155 396.608 140.608C401.155 136.062 401.155 129.1 401.155 116.578C401.155 104.055 401.155 97.0936 396.608 92.5468C392.062 88 385.1 88 372.578 88C360.055 88 353.094 88 348.547 92.5468C344 97.0936 344 104.055 344 116.578C344 129.1 344 136.062 348.547 140.608C353.094 145.155 360.055 145.155 372.578 145.155Z" fill="#545555" fill-opacity="0.4"/>
</g>
</g>
<g filter="url(#filter34_ii_2320_4988)">
<g clip-path="url(#clip18_2320_4988)">
<path d="M445.578 145.155C458.1 145.155 465.062 145.155 469.608 140.608C474.155 136.062 474.155 129.1 474.155 116.578C474.155 104.055 474.155 97.0936 469.608 92.5468C465.062 88 458.1 88 445.578 88C433.055 88 426.094 88 421.547 92.5468C417 97.0936 417 104.055 417 116.578C417 129.1 417 136.062 421.547 140.608C426.094 145.155 433.055 145.155 445.578 145.155Z" fill="#545555" fill-opacity="0.4"/>
</g>
</g>
<g filter="url(#filter35_ii_2320_4988)">
<g clip-path="url(#clip19_2320_4988)">
<path d="M227.578 221.155C240.1 221.155 247.062 221.155 251.608 216.608C256.155 212.062 256.155 205.1 256.155 192.578C256.155 180.055 256.155 173.094 251.608 168.547C247.062 164 240.1 164 227.578 164C215.055 164 208.094 164 203.547 168.547C199 173.094 199 180.055 199 192.578C199 205.1 199 212.062 203.547 216.608C208.094 221.155 215.055 221.155 227.578 221.155Z" fill="#545555" fill-opacity="0.4"/>
</g>
</g>
</g>
<defs>
<filter id="filter0_ii_2320_4988" x="272.212" y="162.559" width="57.1553" height="57.727" filterUnits="userSpaceOnUse" color-interpolation-filters="sRGB">
<feFlood flood-opacity="0" result="BackgroundImageFix"/>
<feBlend mode="normal" in="SourceGraphic" in2="BackgroundImageFix" result="shape"/>
<feColorMatrix in="SourceAlpha" type="matrix" values="0 0 0 0 0 0 0 0 0 0 0 0 0 0 0 0 0 0 127 0" result="hardAlpha"/>
<feOffset dy="0.285852"/>
<feGaussianBlur stdDeviation="0.285852"/>
<feComposite in2="hardAlpha" operator="arithmetic" k2="-1" k3="1"/>
<feColorMatrix type="matrix" values="0 0 0 0 1 0 0 0 0 1 0 0 0 0 1 0 0 0 0.25 0"/>
<feBlend mode="normal" in2="shape" result="effect1_innerShadow_2320_4988"/>
<feColorMatrix in="SourceAlpha" type="matrix" values="0 0 0 0 0 0 0 0 0 0 0 0 0 0 0 0 0 0 127 0" result="hardAlpha"/>
<feOffset dy="-0.285852"/>
<feGaussianBlur stdDeviation="0.285852"/>
<feComposite in2="hardAlpha" operator="arithmetic" k2="-1" k3="1"/>
<feColorMatrix type="matrix" values="0 0 0 0 0 0 0 0 0 0 0 0 0 0 0 0 0 0 0.12 0"/>
<feBlend mode="normal" in2="effect1_innerShadow_2320_4988" result="effect2_innerShadow_2320_4988"/>
</filter>
<filter id="filter1_ii_2320_4988" x="198" y="15.7141" width="57.1553" height="57.727" filterUnits="userSpaceOnUse" color-interpolation-filters="sRGB">
<feFlood flood-opacity="0" result="BackgroundImageFix"/>
<feBlend mode="normal" in="SourceGraphic" in2="BackgroundImageFix" result="shape"/>
<feColorMatrix in="SourceAlpha" type="matrix" values="0 0 0 0 0 0 0 0 0 0 0 0 0 0 0 0 0 0 127 0" result="hardAlpha"/>
<feOffset dy="0.285852"/>
<feGaussianBlur stdDeviation="0.285852"/>
<feComposite in2="hardAlpha" operator="arithmetic" k2="-1" k3="1"/>
<feColorMatrix type="matrix" values="0 0 0 0 1 0 0 0 0 1 0 0 0 0 1 0 0 0 0.25 0"/>
<feBlend mode="normal" in2="shape" result="effect1_innerShadow_2320_4988"/>
<feColorMatrix in="SourceAlpha" type="matrix" values="0 0 0 0 0 0 0 0 0 0 0 0 0 0 0 0 0 0 127 0" result="hardAlpha"/>
<feOffset dy="-0.285852"/>
<feGaussianBlur stdDeviation="0.285852"/>
<feComposite in2="hardAlpha" operator="arithmetic" k2="-1" k3="1"/>
<feColorMatrix type="matrix" values="0 0 0 0 0 0 0 0 0 0 0 0 0 0 0 0 0 0 0.12 0"/>
<feBlend mode="normal" in2="effect1_innerShadow_2320_4988" result="effect2_innerShadow_2320_4988"/>
</filter>
<filter id="filter2_ii_2320_4988" x="419.584" y="162.559" width="57.1553" height="57.727" filterUnits="userSpaceOnUse" color-interpolation-filters="sRGB">
<feFlood flood-opacity="0" result="BackgroundImageFix"/>
<feBlend mode="normal" in="SourceGraphic" in2="BackgroundImageFix" result="shape"/>
<feColorMatrix in="SourceAlpha" type="matrix" values="0 0 0 0 0 0 0 0 0 0 0 0 0 0 0 0 0 0 127 0" result="hardAlpha"/>
<feOffset dy="0.285852"/>
<feGaussianBlur stdDeviation="0.285852"/>
<feComposite in2="hardAlpha" operator="arithmetic" k2="-1" k3="1"/>
<feColorMatrix type="matrix" values="0 0 0 0 1 0 0 0 0 1 0 0 0 0 1 0 0 0 0.25 0"/>
<feBlend mode="normal" in2="shape" result="effect1_innerShadow_2320_4988"/>
<feColorMatrix in="SourceAlpha" type="matrix" values="0 0 0 0 0 0 0 0 0 0 0 0 0 0 0 0 0 0 127 0" result="hardAlpha"/>
<feOffset dy="-0.285852"/>
<feGaussianBlur stdDeviation="0.285852"/>
<feComposite in2="hardAlpha" operator="arithmetic" k2="-1" k3="1"/>
<feColorMatrix type="matrix" values="0 0 0 0 0 0 0 0 0 0 0 0 0 0 0 0 0 0 0.12 0"/>
<feBlend mode="normal" in2="effect1_innerShadow_2320_4988" result="effect2_innerShadow_2320_4988"/>
</filter>
<filter id="filter3_d_2320_4988" x="429.867" y="170.907" width="36.7459" height="41.4068" filterUnits="userSpaceOnUse" color-interpolation-filters="sRGB">
<feFlood flood-opacity="0" result="BackgroundImageFix"/>
<feColorMatrix in="SourceAlpha" type="matrix" values="0 0 0 0 0 0 0 0 0 0 0 0 0 0 0 0 0 0 127 0" result="hardAlpha"/>
<feOffset/>
<feGaussianBlur stdDeviation="1.28847"/>
<feComposite in2="hardAlpha" operator="out"/>
<feColorMatrix type="matrix" values="0 0 0 0 1 0 0 0 0 1 0 0 0 0 1 0 0 0 0.35 0"/>
<feBlend mode="normal" in2="BackgroundImageFix" result="effect1_dropShadow_2320_4988"/>
<feBlend mode="normal" in="SourceGraphic" in2="effect1_dropShadow_2320_4988" result="shape"/>
</filter>
<filter id="filter4_ii_2320_4988" x="344" y="15.7141" width="57.1553" height="57.727" filterUnits="userSpaceOnUse" color-interpolation-filters="sRGB">
<feFlood flood-opacity="0" result="BackgroundImageFix"/>
<feBlend mode="normal" in="SourceGraphic" in2="BackgroundImageFix" result="shape"/>
<feColorMatrix in="SourceAlpha" type="matrix" values="0 0 0 0 0 0 0 0 0 0 0 0 0 0 0 0 0 0 127 0" result="hardAlpha"/>
<feOffset dy="0.285852"/>
<feGaussianBlur stdDeviation="0.285852"/>
<feComposite in2="hardAlpha" operator="arithmetic" k2="-1" k3="1"/>
<feColorMatrix type="matrix" values="0 0 0 0 1 0 0 0 0 1 0 0 0 0 1 0 0 0 0.25 0"/>
<feBlend mode="normal" in2="shape" result="effect1_innerShadow_2320_4988"/>
<feColorMatrix in="SourceAlpha" type="matrix" values="0 0 0 0 0 0 0 0 0 0 0 0 0 0 0 0 0 0 127 0" result="hardAlpha"/>
<feOffset dy="-0.285852"/>
<feGaussianBlur stdDeviation="0.285852"/>
<feComposite in2="hardAlpha" operator="arithmetic" k2="-1" k3="1"/>
<feColorMatrix type="matrix" values="0 0 0 0 0 0 0 0 0 0 0 0 0 0 0 0 0 0 0.12 0"/>
<feBlend mode="normal" in2="effect1_innerShadow_2320_4988" result="effect2_innerShadow_2320_4988"/>
</filter>
<filter id="filter5_i_2320_4988" x="351.731" y="23.731" width="41.4836" height="41.7693" filterUnits="userSpaceOnUse" color-interpolation-filters="sRGB">
<feFlood flood-opacity="0" result="BackgroundImageFix"/>
<feBlend mode="normal" in="SourceGraphic" in2="BackgroundImageFix" result="shape"/>
<feColorMatrix in="SourceAlpha" type="matrix" values="0 0 0 0 0 0 0 0 0 0 0 0 0 0 0 0 0 0 127 0" result="hardAlpha"/>
<feOffset dy="0.285852"/>
<feGaussianBlur stdDeviation="0.285852"/>
<feComposite in2="hardAlpha" operator="arithmetic" k2="-1" k3="1"/>
<feColorMatrix type="matrix" values="0 0 0 0 0 0 0 0 0 0 0 0 0 0 0 0 0 0 0.16 0"/>
<feBlend mode="normal" in2="shape" result="effect1_innerShadow_2320_4988"/>
</filter>
<filter id="filter6_ii_2320_4988" x="351.731" y="23.4451" width="41.4836" height="42.0551" filterUnits="userSpaceOnUse" color-interpolation-filters="sRGB">
<feFlood flood-opacity="0" result="BackgroundImageFix"/>
<feBlend mode="normal" in="SourceGraphic" in2="BackgroundImageFix" result="shape"/>
<feColorMatrix in="SourceAlpha" type="matrix" values="0 0 0 0 0 0 0 0 0 0 0 0 0 0 0 0 0 0 127 0" result="hardAlpha"/>
<feOffset dy="0.285852"/>
<feGaussianBlur stdDeviation="0.285852"/>
<feComposite in2="hardAlpha" operator="arithmetic" k2="-1" k3="1"/>
<feColorMatrix type="matrix" values="0 0 0 0 1 0 0 0 0 1 0 0 0 0 1 0 0 0 0.25 0"/>
<feBlend mode="normal" in2="shape" result="effect1_innerShadow_2320_4988"/>
<feColorMatrix in="SourceAlpha" type="matrix" values="0 0 0 0 0 0 0 0 0 0 0 0 0 0 0 0 0 0 127 0" result="hardAlpha"/>
<feOffset dy="-0.285852"/>
<feGaussianBlur stdDeviation="0.285852"/>
<feComposite in2="hardAlpha" operator="arithmetic" k2="-1" k3="1"/>
<feColorMatrix type="matrix" values="0 0 0 0 0 0 0 0 0 0 0 0 0 0 0 0 0 0 0.12 0"/>
<feBlend mode="normal" in2="effect1_innerShadow_2320_4988" result="effect2_innerShadow_2320_4988"/>
</filter>
<filter id="filter7_ii_2320_4988" x="271" y="15.7141" width="57.1553" height="57.727" filterUnits="userSpaceOnUse" color-interpolation-filters="sRGB">
<feFlood flood-opacity="0" result="BackgroundImageFix"/>
<feBlend mode="normal" in="SourceGraphic" in2="BackgroundImageFix" result="shape"/>
<feColorMatrix in="SourceAlpha" type="matrix" values="0 0 0 0 0 0 0 0 0 0 0 0 0 0 0 0 0 0 127 0" result="hardAlpha"/>
<feOffset dy="0.285852"/>
<feGaussianBlur stdDeviation="0.285852"/>
<feComposite in2="hardAlpha" operator="arithmetic" k2="-1" k3="1"/>
<feColorMatrix type="matrix" values="0 0 0 0 1 0 0 0 0 1 0 0 0 0 1 0 0 0 0.25 0"/>
<feBlend mode="normal" in2="shape" result="effect1_innerShadow_2320_4988"/>
<feColorMatrix in="SourceAlpha" type="matrix" values="0 0 0 0 0 0 0 0 0 0 0 0 0 0 0 0 0 0 127 0" result="hardAlpha"/>
<feOffset dy="-0.285852"/>
<feGaussianBlur stdDeviation="0.285852"/>
<feComposite in2="hardAlpha" operator="arithmetic" k2="-1" k3="1"/>
<feColorMatrix type="matrix" values="0 0 0 0 0 0 0 0 0 0 0 0 0 0 0 0 0 0 0.12 0"/>
<feBlend mode="normal" in2="effect1_innerShadow_2320_4988" result="effect2_innerShadow_2320_4988"/>
</filter>
<filter id="filter8_ii_2320_4988" x="417" y="15.7141" width="57.1553" height="57.727" filterUnits="userSpaceOnUse" color-interpolation-filters="sRGB">
<feFlood flood-opacity="0" result="BackgroundImageFix"/>
<feBlend mode="normal" in="SourceGraphic" in2="BackgroundImageFix" result="shape"/>
<feColorMatrix in="SourceAlpha" type="matrix" values="0 0 0 0 0 0 0 0 0 0 0 0 0 0 0 0 0 0 127 0" result="hardAlpha"/>
<feOffset dy="0.285852"/>
<feGaussianBlur stdDeviation="0.285852"/>
<feComposite in2="hardAlpha" operator="arithmetic" k2="-1" k3="1"/>
<feColorMatrix type="matrix" values="0 0 0 0 1 0 0 0 0 1 0 0 0 0 1 0 0 0 0.25 0"/>
<feBlend mode="normal" in2="shape" result="effect1_innerShadow_2320_4988"/>
<feColorMatrix in="SourceAlpha" type="matrix" values="0 0 0 0 0 0 0 0 0 0 0 0 0 0 0 0 0 0 127 0" result="hardAlpha"/>
<feOffset dy="-0.285852"/>
<feGaussianBlur stdDeviation="0.285852"/>
<feComposite in2="hardAlpha" operator="arithmetic" k2="-1" k3="1"/>
<feColorMatrix type="matrix" values="0 0 0 0 0 0 0 0 0 0 0 0 0 0 0 0 0 0 0.12 0"/>
<feBlend mode="normal" in2="effect1_innerShadow_2320_4988" result="effect2_innerShadow_2320_4988"/>
</filter>
<filter id="filter9_ii_2320_4988" x="52" y="88.7141" width="57.1553" height="57.727" filterUnits="userSpaceOnUse" color-interpolation-filters="sRGB">
<feFlood flood-opacity="0" result="BackgroundImageFix"/>
<feBlend mode="normal" in="SourceGraphic" in2="BackgroundImageFix" result="shape"/>
<feColorMatrix in="SourceAlpha" type="matrix" values="0 0 0 0 0 0 0 0 0 0 0 0 0 0 0 0 0 0 127 0" result="hardAlpha"/>
<feOffset dy="0.285852"/>
<feGaussianBlur stdDeviation="0.285852"/>
<feComposite in2="hardAlpha" operator="arithmetic" k2="-1" k3="1"/>
<feColorMatrix type="matrix" values="0 0 0 0 1 0 0 0 0 1 0 0 0 0 1 0 0 0 0.25 0"/>
<feBlend mode="normal" in2="shape" result="effect1_innerShadow_2320_4988"/>
<feColorMatrix in="SourceAlpha" type="matrix" values="0 0 0 0 0 0 0 0 0 0 0 0 0 0 0 0 0 0 127 0" result="hardAlpha"/>
<feOffset dy="-0.285852"/>
<feGaussianBlur stdDeviation="0.285852"/>
<feComposite in2="hardAlpha" operator="arithmetic" k2="-1" k3="1"/>
<feColorMatrix type="matrix" values="0 0 0 0 0 0 0 0 0 0 0 0 0 0 0 0 0 0 0.12 0"/>
<feBlend mode="normal" in2="effect1_innerShadow_2320_4988" result="effect2_innerShadow_2320_4988"/>
</filter>
<filter id="filter10_ii_2320_4988" x="125.155" y="88.7141" width="57.1553" height="57.727" filterUnits="userSpaceOnUse" color-interpolation-filters="sRGB">
<feFlood flood-opacity="0" result="BackgroundImageFix"/>
<feBlend mode="normal" in="SourceGraphic" in2="BackgroundImageFix" result="shape"/>
<feColorMatrix in="SourceAlpha" type="matrix" values="0 0 0 0 0 0 0 0 0 0 0 0 0 0 0 0 0 0 127 0" result="hardAlpha"/>
<feOffset dy="0.285852"/>
<feGaussianBlur stdDeviation="0.285852"/>
<feComposite in2="hardAlpha" operator="arithmetic" k2="-1" k3="1"/>
<feColorMatrix type="matrix" values="0 0 0 0 1 0 0 0 0 1 0 0 0 0 1 0 0 0 0.25 0"/>
<feBlend mode="normal" in2="shape" result="effect1_innerShadow_2320_4988"/>
<feColorMatrix in="SourceAlpha" type="matrix" values="0 0 0 0 0 0 0 0 0 0 0 0 0 0 0 0 0 0 127 0" result="hardAlpha"/>
<feOffset dy="-0.285852"/>
<feGaussianBlur stdDeviation="0.285852"/>
<feComposite in2="hardAlpha" operator="arithmetic" k2="-1" k3="1"/>
<feColorMatrix type="matrix" values="0 0 0 0 0 0 0 0 0 0 0 0 0 0 0 0 0 0 0.12 0"/>
<feBlend mode="normal" in2="effect1_innerShadow_2320_4988" result="effect2_innerShadow_2320_4988"/>
</filter>
<filter id="filter11_d_2320_4988" x="128.505" y="99.9701" width="49.9927" height="35.1756" filterUnits="userSpaceOnUse" color-interpolation-filters="sRGB">
<feFlood flood-opacity="0" result="BackgroundImageFix"/>
<feColorMatrix in="SourceAlpha" type="matrix" values="0 0 0 0 0 0 0 0 0 0 0 0 0 0 0 0 0 0 127 0" result="hardAlpha"/>
<feOffset/>
<feGaussianBlur stdDeviation="2.51253"/>
<feComposite in2="hardAlpha" operator="out"/>
<feColorMatrix type="matrix" values="0 0 0 0 0.726525 0 0 0 0 0.726525 0 0 0 0 1 0 0 0 0.37 0"/>
<feBlend mode="normal" in2="BackgroundImageFix" result="effect1_dropShadow_2320_4988"/>
<feBlend mode="normal" in="SourceGraphic" in2="effect1_dropShadow_2320_4988" result="shape"/>
</filter>
<filter id="filter12_ii_2320_4988" x="491" y="88.7141" width="57.1553" height="57.727" filterUnits="userSpaceOnUse" color-interpolation-filters="sRGB">
<feFlood flood-opacity="0" result="BackgroundImageFix"/>
<feBlend mode="normal" in="SourceGraphic" in2="BackgroundImageFix" result="shape"/>
<feColorMatrix in="SourceAlpha" type="matrix" values="0 0 0 0 0 0 0 0 0 0 0 0 0 0 0 0 0 0 127 0" result="hardAlpha"/>
<feOffset dy="0.285852"/>
<feGaussianBlur stdDeviation="0.285852"/>
<feComposite in2="hardAlpha" operator="arithmetic" k2="-1" k3="1"/>
<feColorMatrix type="matrix" values="0 0 0 0 1 0 0 0 0 1 0 0 0 0 1 0 0 0 0.25 0"/>
<feBlend mode="normal" in2="shape" result="effect1_innerShadow_2320_4988"/>
<feColorMatrix in="SourceAlpha" type="matrix" values="0 0 0 0 0 0 0 0 0 0 0 0 0 0 0 0 0 0 127 0" result="hardAlpha"/>
<feOffset dy="-0.285852"/>
<feGaussianBlur stdDeviation="0.285852"/>
<feComposite in2="hardAlpha" operator="arithmetic" k2="-1" k3="1"/>
<feColorMatrix type="matrix" values="0 0 0 0 0 0 0 0 0 0 0 0 0 0 0 0 0 0 0.12 0"/>
<feBlend mode="normal" in2="effect1_innerShadow_2320_4988" result="effect2_innerShadow_2320_4988"/>
</filter>
<filter id="filter13_i_2320_4988" x="508.518" y="122.004" width="11.0601" height="12.2826" filterUnits="userSpaceOnUse" color-interpolation-filters="sRGB">
<feFlood flood-opacity="0" result="BackgroundImageFix"/>
<feBlend mode="normal" in="SourceGraphic" in2="BackgroundImageFix" result="shape"/>
<feColorMatrix in="SourceAlpha" type="matrix" values="0 0 0 0 0 0 0 0 0 0 0 0 0 0 0 0 0 0 127 0" result="hardAlpha"/>
<feOffset dy="-1.14341"/>
<feGaussianBlur stdDeviation="2.14389"/>
<feComposite in2="hardAlpha" operator="arithmetic" k2="-1" k3="1"/>
<feColorMatrix type="matrix" values="0 0 0 0 0.227451 0 0 0 0 0.807843 0 0 0 0 0.443137 0 0 0 1 0"/>
<feBlend mode="normal" in2="shape" result="effect1_innerShadow_2320_4988"/>
</filter>
<filter id="filter14_i_2320_4988" x="508.518" y="110.865" width="11.0601" height="12.2826" filterUnits="userSpaceOnUse" color-interpolation-filters="sRGB">
<feFlood flood-opacity="0" result="BackgroundImageFix"/>
<feBlend mode="normal" in="SourceGraphic" in2="BackgroundImageFix" result="shape"/>
<feColorMatrix in="SourceAlpha" type="matrix" values="0 0 0 0 0 0 0 0 0 0 0 0 0 0 0 0 0 0 127 0" result="hardAlpha"/>
<feOffset dy="-1.14341"/>
<feGaussianBlur stdDeviation="2.14389"/>
<feComposite in2="hardAlpha" operator="arithmetic" k2="-1" k3="1"/>
<feColorMatrix type="matrix" values="0 0 0 0 0.582992 0 0 0 0 0.229167 0 0 0 0 1 0 0 0 1 0"/>
<feBlend mode="normal" in2="shape" result="effect1_innerShadow_2320_4988"/>
</filter>
<filter id="filter15_i_2320_4988" x="508.518" y="99.7257" width="13.061" height="12.2826" filterUnits="userSpaceOnUse" color-interpolation-filters="sRGB">
<feFlood flood-opacity="0" result="BackgroundImageFix"/>
<feBlend mode="normal" in="SourceGraphic" in2="BackgroundImageFix" result="shape"/>
<feColorMatrix in="SourceAlpha" type="matrix" values="0 0 0 0 0 0 0 0 0 0 0 0 0 0 0 0 0 0 127 0" result="hardAlpha"/>
<feOffset dx="2.00097" dy="-1.14341"/>
<feGaussianBlur stdDeviation="2.14389"/>
<feComposite in2="hardAlpha" operator="arithmetic" k2="-1" k3="1"/>
<feColorMatrix type="matrix" values="0 0 0 0 1 0 0 0 0 0.298039 0 0 0 0 0.0823529 0 0 0 1 0"/>
<feBlend mode="normal" in2="shape" result="effect1_innerShadow_2320_4988"/>
</filter>
<filter id="filter16_i_2320_4988" x="519.578" y="99.7257" width="11.0601" height="12.2826" filterUnits="userSpaceOnUse" color-interpolation-filters="sRGB">
<feFlood flood-opacity="0" result="BackgroundImageFix"/>
<feBlend mode="normal" in="SourceGraphic" in2="BackgroundImageFix" result="shape"/>
<feColorMatrix in="SourceAlpha" type="matrix" values="0 0 0 0 0 0 0 0 0 0 0 0 0 0 0 0 0 0 127 0" result="hardAlpha"/>
<feOffset dy="-1.14341"/>
<feGaussianBlur stdDeviation="2.14389"/>
<feComposite in2="hardAlpha" operator="arithmetic" k2="-1" k3="1"/>
<feColorMatrix type="matrix" values="0 0 0 0 1 0 0 0 0 0.411765 0 0 0 0 0.317647 0 0 0 1 0"/>
<feBlend mode="normal" in2="shape" result="effect1_innerShadow_2320_4988"/>
</filter>
<filter id="filter17_i_2320_4988" x="519.578" y="110.865" width="11.0601" height="12.2826" filterUnits="userSpaceOnUse" color-interpolation-filters="sRGB">
<feFlood flood-opacity="0" result="BackgroundImageFix"/>
<feBlend mode="normal" in="SourceGraphic" in2="BackgroundImageFix" result="shape"/>
<feColorMatrix in="SourceAlpha" type="matrix" values="0 0 0 0 0 0 0 0 0 0 0 0 0 0 0 0 0 0 127 0" result="hardAlpha"/>
<feOffset dy="-1.14341"/>
<feGaussianBlur stdDeviation="2.14389"/>
<feComposite in2="hardAlpha" operator="arithmetic" k2="-1" k3="1"/>
<feColorMatrix type="matrix" values="0 0 0 0 0.172549 0 0 0 0 0.662745 0 0 0 0 1 0 0 0 1 0"/>
<feBlend mode="normal" in2="shape" result="effect1_innerShadow_2320_4988"/>
</filter>
<filter id="filter18_i_2320_4988" x="508.518" y="122.004" width="11.0601" height="12.2826" filterUnits="userSpaceOnUse" color-interpolation-filters="sRGB">
<feFlood flood-opacity="0" result="BackgroundImageFix"/>
<feBlend mode="normal" in="SourceGraphic" in2="BackgroundImageFix" result="shape"/>
<feColorMatrix in="SourceAlpha" type="matrix" values="0 0 0 0 0 0 0 0 0 0 0 0 0 0 0 0 0 0 127 0" result="hardAlpha"/>
<feOffset dy="-1.14341"/>
<feGaussianBlur stdDeviation="2.14389"/>
<feComposite in2="hardAlpha" operator="arithmetic" k2="-1" k3="1"/>
<feColorMatrix type="matrix" values="0 0 0 0 0.227451 0 0 0 0 0.807843 0 0 0 0 0.443137 0 0 0 1 0"/>
<feBlend mode="normal" in2="shape" result="effect1_innerShadow_2320_4988"/>
</filter>
<filter id="filter19_i_2320_4988" x="508.518" y="110.865" width="11.0601" height="12.2826" filterUnits="userSpaceOnUse" color-interpolation-filters="sRGB">
<feFlood flood-opacity="0" result="BackgroundImageFix"/>
<feBlend mode="normal" in="SourceGraphic" in2="BackgroundImageFix" result="shape"/>
<feColorMatrix in="SourceAlpha" type="matrix" values="0 0 0 0 0 0 0 0 0 0 0 0 0 0 0 0 0 0 127 0" result="hardAlpha"/>
<feOffset dy="-1.14341"/>
<feGaussianBlur stdDeviation="2.14389"/>
<feComposite in2="hardAlpha" operator="arithmetic" k2="-1" k3="1"/>
<feColorMatrix type="matrix" values="0 0 0 0 0.582992 0 0 0 0 0.229167 0 0 0 0 1 0 0 0 1 0"/>
<feBlend mode="normal" in2="shape" result="effect1_innerShadow_2320_4988"/>
</filter>
<filter id="filter20_i_2320_4988" x="508.518" y="99.7257" width="13.061" height="12.2826" filterUnits="userSpaceOnUse" color-interpolation-filters="sRGB">
<feFlood flood-opacity="0" result="BackgroundImageFix"/>
<feBlend mode="normal" in="SourceGraphic" in2="BackgroundImageFix" result="shape"/>
<feColorMatrix in="SourceAlpha" type="matrix" values="0 0 0 0 0 0 0 0 0 0 0 0 0 0 0 0 0 0 127 0" result="hardAlpha"/>
<feOffset dx="2.00097" dy="-1.14341"/>
<feGaussianBlur stdDeviation="2.14389"/>
<feComposite in2="hardAlpha" operator="arithmetic" k2="-1" k3="1"/>
<feColorMatrix type="matrix" values="0 0 0 0 1 0 0 0 0 0.298039 0 0 0 0 0.0823529 0 0 0 1 0"/>
<feBlend mode="normal" in2="shape" result="effect1_innerShadow_2320_4988"/>
</filter>
<filter id="filter21_i_2320_4988" x="519.578" y="99.7257" width="11.0601" height="12.2826" filterUnits="userSpaceOnUse" color-interpolation-filters="sRGB">
<feFlood flood-opacity="0" result="BackgroundImageFix"/>
<feBlend mode="normal" in="SourceGraphic" in2="BackgroundImageFix" result="shape"/>
<feColorMatrix in="SourceAlpha" type="matrix" values="0 0 0 0 0 0 0 0 0 0 0 0 0 0 0 0 0 0 127 0" result="hardAlpha"/>
<feOffset dy="-1.14341"/>
<feGaussianBlur stdDeviation="2.14389"/>
<feComposite in2="hardAlpha" operator="arithmetic" k2="-1" k3="1"/>
<feColorMatrix type="matrix" values="0 0 0 0 1 0 0 0 0 0.411765 0 0 0 0 0.317647 0 0 0 1 0"/>
<feBlend mode="normal" in2="shape" result="effect1_innerShadow_2320_4988"/>
</filter>
<filter id="filter22_i_2320_4988" x="519.578" y="110.865" width="11.0601" height="12.2826" filterUnits="userSpaceOnUse" color-interpolation-filters="sRGB">
<feFlood flood-opacity="0" result="BackgroundImageFix"/>
<feBlend mode="normal" in="SourceGraphic" in2="BackgroundImageFix" result="shape"/>
<feColorMatrix in="SourceAlpha" type="matrix" values="0 0 0 0 0 0 0 0 0 0 0 0 0 0 0 0 0 0 127 0" result="hardAlpha"/>
<feOffset dy="-1.14341"/>
<feGaussianBlur stdDeviation="2.14389"/>
<feComposite in2="hardAlpha" operator="arithmetic" k2="-1" k3="1"/>
<feColorMatrix type="matrix" values="0 0 0 0 0.172549 0 0 0 0 0.662745 0 0 0 0 1 0 0 0 1 0"/>
<feBlend mode="normal" in2="shape" result="effect1_innerShadow_2320_4988"/>
</filter>
<filter id="filter23_i_2320_4988" x="508.516" y="100.583" width="22.1245" height="33.7033" filterUnits="userSpaceOnUse" color-interpolation-filters="sRGB">
<feFlood flood-opacity="0" result="BackgroundImageFix"/>
<feBlend mode="normal" in="SourceGraphic" in2="BackgroundImageFix" result="shape"/>
<feColorMatrix in="SourceAlpha" type="matrix" values="0 0 0 0 0 0 0 0 0 0 0 0 0 0 0 0 0 0 127 0" result="hardAlpha"/>
<feOffset dy="-0.285852"/>
<feGaussianBlur stdDeviation="0.285852"/>
<feComposite in2="hardAlpha" operator="arithmetic" k2="-1" k3="1"/>
<feColorMatrix type="matrix" values="0 0 0 0 0 0 0 0 0 0 0 0 0 0 0 0 0 0 0.12 0"/>
<feBlend mode="normal" in2="shape" result="effect1_innerShadow_2320_4988"/>
</filter>
<filter id="filter24_i_2320_4988" x="508.518" y="122.004" width="11.0601" height="12.2826" filterUnits="userSpaceOnUse" color-interpolation-filters="sRGB">
<feFlood flood-opacity="0" result="BackgroundImageFix"/>
<feBlend mode="normal" in="SourceGraphic" in2="BackgroundImageFix" result="shape"/>
<feColorMatrix in="SourceAlpha" type="matrix" values="0 0 0 0 0 0 0 0 0 0 0 0 0 0 0 0 0 0 127 0" result="hardAlpha"/>
<feOffset dy="-1.14341"/>
<feGaussianBlur stdDeviation="2.14389"/>
<feComposite in2="hardAlpha" operator="arithmetic" k2="-1" k3="1"/>
<feColorMatrix type="matrix" values="0 0 0 0 0.227451 0 0 0 0 0.807843 0 0 0 0 0.443137 0 0 0 1 0"/>
<feBlend mode="normal" in2="shape" result="effect1_innerShadow_2320_4988"/>
</filter>
<filter id="filter25_i_2320_4988" x="508.518" y="110.865" width="11.0601" height="12.2826" filterUnits="userSpaceOnUse" color-interpolation-filters="sRGB">
<feFlood flood-opacity="0" result="BackgroundImageFix"/>
<feBlend mode="normal" in="SourceGraphic" in2="BackgroundImageFix" result="shape"/>
<feColorMatrix in="SourceAlpha" type="matrix" values="0 0 0 0 0 0 0 0 0 0 0 0 0 0 0 0 0 0 127 0" result="hardAlpha"/>
<feOffset dy="-1.14341"/>
<feGaussianBlur stdDeviation="2.14389"/>
<feComposite in2="hardAlpha" operator="arithmetic" k2="-1" k3="1"/>
<feColorMatrix type="matrix" values="0 0 0 0 0.582992 0 0 0 0 0.229167 0 0 0 0 1 0 0 0 1 0"/>
<feBlend mode="normal" in2="shape" result="effect1_innerShadow_2320_4988"/>
</filter>
<filter id="filter26_i_2320_4988" x="508.518" y="99.7257" width="13.061" height="12.2826" filterUnits="userSpaceOnUse" color-interpolation-filters="sRGB">
<feFlood flood-opacity="0" result="BackgroundImageFix"/>
<feBlend mode="normal" in="SourceGraphic" in2="BackgroundImageFix" result="shape"/>
<feColorMatrix in="SourceAlpha" type="matrix" values="0 0 0 0 0 0 0 0 0 0 0 0 0 0 0 0 0 0 127 0" result="hardAlpha"/>
<feOffset dx="2.00097" dy="-1.14341"/>
<feGaussianBlur stdDeviation="2.14389"/>
<feComposite in2="hardAlpha" operator="arithmetic" k2="-1" k3="1"/>
<feColorMatrix type="matrix" values="0 0 0 0 1 0 0 0 0 0.298039 0 0 0 0 0.0823529 0 0 0 1 0"/>
<feBlend mode="normal" in2="shape" result="effect1_innerShadow_2320_4988"/>
</filter>
<filter id="filter27_i_2320_4988" x="519.578" y="99.7257" width="11.0601" height="12.2826" filterUnits="userSpaceOnUse" color-interpolation-filters="sRGB">
<feFlood flood-opacity="0" result="BackgroundImageFix"/>
<feBlend mode="normal" in="SourceGraphic" in2="BackgroundImageFix" result="shape"/>
<feColorMatrix in="SourceAlpha" type="matrix" values="0 0 0 0 0 0 0 0 0 0 0 0 0 0 0 0 0 0 127 0" result="hardAlpha"/>
<feOffset dy="-1.14341"/>
<feGaussianBlur stdDeviation="2.14389"/>
<feComposite in2="hardAlpha" operator="arithmetic" k2="-1" k3="1"/>
<feColorMatrix type="matrix" values="0 0 0 0 1 0 0 0 0 0.411765 0 0 0 0 0.317647 0 0 0 1 0"/>
<feBlend mode="normal" in2="shape" result="effect1_innerShadow_2320_4988"/>
</filter>
<filter id="filter28_i_2320_4988" x="519.578" y="110.865" width="11.0601" height="12.2826" filterUnits="userSpaceOnUse" color-interpolation-filters="sRGB">
<feFlood flood-opacity="0" result="BackgroundImageFix"/>
<feBlend mode="normal" in="SourceGraphic" in2="BackgroundImageFix" result="shape"/>
<feColorMatrix in="SourceAlpha" type="matrix" values="0 0 0 0 0 0 0 0 0 0 0 0 0 0 0 0 0 0 127 0" result="hardAlpha"/>
<feOffset dy="-1.14341"/>
<feGaussianBlur stdDeviation="2.14389"/>
<feComposite in2="hardAlpha" operator="arithmetic" k2="-1" k3="1"/>
<feColorMatrix type="matrix" values="0 0 0 0 0.172549 0 0 0 0 0.662745 0 0 0 0 1 0 0 0 1 0"/>
<feBlend mode="normal" in2="shape" result="effect1_innerShadow_2320_4988"/>
</filter>
<filter id="filter29_ii_2320_4988" x="344.621" y="162.714" width="57.1553" height="57.727" filterUnits="userSpaceOnUse" color-interpolation-filters="sRGB">
<feFlood flood-opacity="0" result="BackgroundImageFix"/>
<feBlend mode="normal" in="SourceGraphic" in2="BackgroundImageFix" result="shape"/>
<feColorMatrix in="SourceAlpha" type="matrix" values="0 0 0 0 0 0 0 0 0 0 0 0 0 0 0 0 0 0 127 0" result="hardAlpha"/>
<feOffset dy="0.285852"/>
<feGaussianBlur stdDeviation="0.285852"/>
<feComposite in2="hardAlpha" operator="arithmetic" k2="-1" k3="1"/>
<feColorMatrix type="matrix" values="0 0 0 0 1 0 0 0 0 1 0 0 0 0 1 0 0 0 0.25 0"/>
<feBlend mode="normal" in2="shape" result="effect1_innerShadow_2320_4988"/>
<feColorMatrix in="SourceAlpha" type="matrix" values="0 0 0 0 0 0 0 0 0 0 0 0 0 0 0 0 0 0 127 0" result="hardAlpha"/>
<feOffset dy="-0.285852"/>
<feGaussianBlur stdDeviation="0.285852"/>
<feComposite in2="hardAlpha" operator="arithmetic" k2="-1" k3="1"/>
<feColorMatrix type="matrix" values="0 0 0 0 0 0 0 0 0 0 0 0 0 0 0 0 0 0 0.12 0"/>
<feBlend mode="normal" in2="effect1_innerShadow_2320_4988" result="effect2_innerShadow_2320_4988"/>
</filter>
<filter id="filter30_d_2320_4988" x="351.837" y="170.216" width="42.262" height="42.2622" filterUnits="userSpaceOnUse" color-interpolation-filters="sRGB">
<feFlood flood-opacity="0" result="BackgroundImageFix"/>
<feColorMatrix in="SourceAlpha" type="matrix" values="0 0 0 0 0 0 0 0 0 0 0 0 0 0 0 0 0 0 127 0" result="hardAlpha"/>
<feOffset/>
<feGaussianBlur stdDeviation="1.86829"/>
<feComposite in2="hardAlpha" operator="out"/>
<feColorMatrix type="matrix" values="0 0 0 0 1 0 0 0 0 1 0 0 0 0 1 0 0 0 0.41 0"/>
<feBlend mode="normal" in2="BackgroundImageFix" result="effect1_dropShadow_2320_4988"/>
<feBlend mode="normal" in="SourceGraphic" in2="effect1_dropShadow_2320_4988" result="shape"/>
</filter>
<filter id="filter31_ii_2320_4988" x="271.466" y="88.7141" width="57.1553" height="57.727" filterUnits="userSpaceOnUse" color-interpolation-filters="sRGB">
<feFlood flood-opacity="0" result="BackgroundImageFix"/>
<feBlend mode="normal" in="SourceGraphic" in2="BackgroundImageFix" result="shape"/>
<feColorMatrix in="SourceAlpha" type="matrix" values="0 0 0 0 0 0 0 0 0 0 0 0 0 0 0 0 0 0 127 0" result="hardAlpha"/>
<feOffset dy="0.285852"/>
<feGaussianBlur stdDeviation="0.285852"/>
<feComposite in2="hardAlpha" operator="arithmetic" k2="-1" k3="1"/>
<feColorMatrix type="matrix" values="0 0 0 0 1 0 0 0 0 1 0 0 0 0 1 0 0 0 0.25 0"/>
<feBlend mode="normal" in2="shape" result="effect1_innerShadow_2320_4988"/>
<feColorMatrix in="SourceAlpha" type="matrix" values="0 0 0 0 0 0 0 0 0 0 0 0 0 0 0 0 0 0 127 0" result="hardAlpha"/>
<feOffset dy="-0.285852"/>
<feGaussianBlur stdDeviation="0.285852"/>
<feComposite in2="hardAlpha" operator="arithmetic" k2="-1" k3="1"/>
<feColorMatrix type="matrix" values="0 0 0 0 0 0 0 0 0 0 0 0 0 0 0 0 0 0 0.12 0"/>
<feBlend mode="normal" in2="effect1_innerShadow_2320_4988" result="effect2_innerShadow_2320_4988"/>
</filter>
<filter id="filter32_d_2320_4988" x="278.681" y="99.9715" width="42.7754" height="35.1751" filterUnits="userSpaceOnUse" color-interpolation-filters="sRGB">
<feFlood flood-opacity="0" result="BackgroundImageFix"/>
<feColorMatrix in="SourceAlpha" type="matrix" values="0 0 0 0 0 0 0 0 0 0 0 0 0 0 0 0 0 0 127 0" result="hardAlpha"/>
<feOffset/>
<feGaussianBlur stdDeviation="2.51253"/>
<feComposite in2="hardAlpha" operator="out"/>
<feColorMatrix type="matrix" values="0 0 0 0 0.192157 0 0 0 0 0.658824 0 0 0 0 1 0 0 0 0.35 0"/>
<feBlend mode="normal" in2="BackgroundImageFix" result="effect1_dropShadow_2320_4988"/>
<feBlend mode="normal" in="SourceGraphic" in2="effect1_dropShadow_2320_4988" result="shape"/>
</filter>
<filter id="filter33_ii_2320_4988" x="344" y="87.7141" width="57.1553" height="57.727" filterUnits="userSpaceOnUse" color-interpolation-filters="sRGB">
<feFlood flood-opacity="0" result="BackgroundImageFix"/>
<feBlend mode="normal" in="SourceGraphic" in2="BackgroundImageFix" result="shape"/>
<feColorMatrix in="SourceAlpha" type="matrix" values="0 0 0 0 0 0 0 0 0 0 0 0 0 0 0 0 0 0 127 0" result="hardAlpha"/>
<feOffset dy="0.285852"/>
<feGaussianBlur stdDeviation="0.285852"/>
<feComposite in2="hardAlpha" operator="arithmetic" k2="-1" k3="1"/>
<feColorMatrix type="matrix" values="0 0 0 0 1 0 0 0 0 1 0 0 0 0 1 0 0 0 0.25 0"/>
<feBlend mode="normal" in2="shape" result="effect1_innerShadow_2320_4988"/>
<feColorMatrix in="SourceAlpha" type="matrix" values="0 0 0 0 0 0 0 0 0 0 0 0 0 0 0 0 0 0 127 0" result="hardAlpha"/>
<feOffset dy="-0.285852"/>
<feGaussianBlur stdDeviation="0.285852"/>
<feComposite in2="hardAlpha" operator="arithmetic" k2="-1" k3="1"/>
<feColorMatrix type="matrix" values="0 0 0 0 0 0 0 0 0 0 0 0 0 0 0 0 0 0 0.12 0"/>
<feBlend mode="normal" in2="effect1_innerShadow_2320_4988" result="effect2_innerShadow_2320_4988"/>
</filter>
<filter id="filter34_ii_2320_4988" x="417" y="87.7141" width="57.1553" height="57.727" filterUnits="userSpaceOnUse" color-interpolation-filters="sRGB">
<feFlood flood-opacity="0" result="BackgroundImageFix"/>
<feBlend mode="normal" in="SourceGraphic" in2="BackgroundImageFix" result="shape"/>
<feColorMatrix in="SourceAlpha" type="matrix" values="0 0 0 0 0 0 0 0 0 0 0 0 0 0 0 0 0 0 127 0" result="hardAlpha"/>
<feOffset dy="0.285852"/>
<feGaussianBlur stdDeviation="0.285852"/>
<feComposite in2="hardAlpha" operator="arithmetic" k2="-1" k3="1"/>
<feColorMatrix type="matrix" values="0 0 0 0 1 0 0 0 0 1 0 0 0 0 1 0 0 0 0.25 0"/>
<feBlend mode="normal" in2="shape" result="effect1_innerShadow_2320_4988"/>
<feColorMatrix in="SourceAlpha" type="matrix" values="0 0 0 0 0 0 0 0 0 0 0 0 0 0 0 0 0 0 127 0" result="hardAlpha"/>
<feOffset dy="-0.285852"/>
<feGaussianBlur stdDeviation="0.285852"/>
<feComposite in2="hardAlpha" operator="arithmetic" k2="-1" k3="1"/>
<feColorMatrix type="matrix" values="0 0 0 0 0 0 0 0 0 0 0 0 0 0 0 0 0 0 0.12 0"/>
<feBlend mode="normal" in2="effect1_innerShadow_2320_4988" result="effect2_innerShadow_2320_4988"/>
</filter>
<filter id="filter35_ii_2320_4988" x="199" y="163.714" width="57.1553" height="57.727" filterUnits="userSpaceOnUse" color-interpolation-filters="sRGB">
<feFlood flood-opacity="0" result="BackgroundImageFix"/>
<feBlend mode="normal" in="SourceGraphic" in2="BackgroundImageFix" result="shape"/>
<feColorMatrix in="SourceAlpha" type="matrix" values="0 0 0 0 0 0 0 0 0 0 0 0 0 0 0 0 0 0 127 0" result="hardAlpha"/>
<feOffset dy="0.285852"/>
<feGaussianBlur stdDeviation="0.285852"/>
<feComposite in2="hardAlpha" operator="arithmetic" k2="-1" k3="1"/>
<feColorMatrix type="matrix" values="0 0 0 0 1 0 0 0 0 1 0 0 0 0 1 0 0 0 0.25 0"/>
<feBlend mode="normal" in2="shape" result="effect1_innerShadow_2320_4988"/>
<feColorMatrix in="SourceAlpha" type="matrix" values="0 0 0 0 0 0 0 0 0 0 0 0 0 0 0 0 0 0 127 0" result="hardAlpha"/>
<feOffset dy="-0.285852"/>
<feGaussianBlur stdDeviation="0.285852"/>
<feComposite in2="hardAlpha" operator="arithmetic" k2="-1" k3="1"/>
<feColorMatrix type="matrix" values="0 0 0 0 0 0 0 0 0 0 0 0 0 0 0 0 0 0 0.12 0"/>
<feBlend mode="normal" in2="effect1_innerShadow_2320_4988" result="effect2_innerShadow_2320_4988"/>
</filter>
<linearGradient id="paint0_linear_2320_4988" x1="418.914" y1="162.845" x2="434.561" y2="229.849" gradientUnits="userSpaceOnUse">
<stop stop-opacity="0"/>
<stop offset="0.605667" stop-opacity="0.0781197"/>
<stop offset="1" stop-opacity="0.26"/>
</linearGradient>
<linearGradient id="paint1_linear_2320_4988" x1="418.914" y1="162.845" x2="434.561" y2="229.849" gradientUnits="userSpaceOnUse">
<stop stop-color="white" stop-opacity="0.26"/>
<stop offset="0.640625" stop-color="white" stop-opacity="0.0781197"/>
<stop offset="1" stop-color="white" stop-opacity="0"/>
</linearGradient>
<linearGradient id="paint2_linear_2320_4988" x1="343.33" y1="16" x2="358.976" y2="83.0047" gradientUnits="userSpaceOnUse">
<stop stop-opacity="0"/>
<stop offset="0.605667" stop-opacity="0.0781197"/>
<stop offset="1" stop-opacity="0.26"/>
</linearGradient>
<linearGradient id="paint3_linear_2320_4988" x1="343.33" y1="16" x2="358.976" y2="83.0047" gradientUnits="userSpaceOnUse">
<stop stop-color="white" stop-opacity="0.26"/>
<stop offset="0.640625" stop-color="white" stop-opacity="0.0781197"/>
<stop offset="1" stop-color="white" stop-opacity="0"/>
</linearGradient>
<linearGradient id="paint4_linear_2320_4988" x1="372.473" y1="23.731" x2="372.473" y2="64.1917" gradientUnits="userSpaceOnUse">
<stop stop-color="#FF533C"/>
<stop offset="1" stop-color="#FDB47D"/>
</linearGradient>
<linearGradient id="paint5_linear_2320_4988" x1="416.33" y1="16" x2="431.976" y2="83.0047" gradientUnits="userSpaceOnUse">
<stop stop-opacity="0"/>
<stop offset="0.605667" stop-opacity="0.0781197"/>
<stop offset="1" stop-opacity="0.26"/>
</linearGradient>
<linearGradient id="paint6_linear_2320_4988" x1="416.33" y1="16" x2="431.976" y2="83.0047" gradientUnits="userSpaceOnUse">
<stop stop-color="white" stop-opacity="0.26"/>
<stop offset="0.640625" stop-color="white" stop-opacity="0.0781197"/>
<stop offset="1" stop-color="white" stop-opacity="0"/>
</linearGradient>
<linearGradient id="paint7_linear_2320_4988" x1="124.485" y1="89" x2="140.132" y2="156.005" gradientUnits="userSpaceOnUse">
<stop stop-opacity="0"/>
<stop offset="0.605667" stop-opacity="0.0781197"/>
<stop offset="1" stop-opacity="0.26"/>
</linearGradient>
<linearGradient id="paint8_linear_2320_4988" x1="124.485" y1="89" x2="140.132" y2="156.005" gradientUnits="userSpaceOnUse">
<stop stop-color="white" stop-opacity="0.26"/>
<stop offset="0.640625" stop-color="white" stop-opacity="0.0781197"/>
<stop offset="1" stop-color="white" stop-opacity="0"/>
</linearGradient>
<linearGradient id="paint9_linear_2320_4988" x1="490.33" y1="89" x2="505.976" y2="156.005" gradientUnits="userSpaceOnUse">
<stop stop-opacity="0"/>
<stop offset="0.605667" stop-opacity="0.0781197"/>
<stop offset="1" stop-opacity="0.26"/>
</linearGradient>
<linearGradient id="paint10_linear_2320_4988" x1="490.33" y1="89" x2="505.976" y2="156.005" gradientUnits="userSpaceOnUse">
<stop stop-color="white" stop-opacity="0.26"/>
<stop offset="0.640625" stop-color="white" stop-opacity="0.0781197"/>
<stop offset="1" stop-color="white" stop-opacity="0"/>
</linearGradient>
<linearGradient id="paint11_linear_2320_4988" x1="343.951" y1="163" x2="359.598" y2="230.005" gradientUnits="userSpaceOnUse">
<stop stop-opacity="0"/>
<stop offset="0.605667" stop-opacity="0.0781197"/>
<stop offset="1" stop-opacity="0.26"/>
</linearGradient>
<linearGradient id="paint12_linear_2320_4988" x1="343.951" y1="163" x2="359.598" y2="230.005" gradientUnits="userSpaceOnUse">
<stop stop-color="white" stop-opacity="0.26"/>
<stop offset="0.640625" stop-color="white" stop-opacity="0.0781197"/>
<stop offset="1" stop-color="white" stop-opacity="0"/>
</linearGradient>
<linearGradient id="paint13_linear_2320_4988" x1="270.795" y1="89" x2="286.442" y2="156.005" gradientUnits="userSpaceOnUse">
<stop stop-opacity="0"/>
<stop offset="0.605667" stop-opacity="0.0781197"/>
<stop offset="1" stop-opacity="0.26"/>
</linearGradient>
<linearGradient id="paint14_linear_2320_4988" x1="270.795" y1="89" x2="286.442" y2="156.005" gradientUnits="userSpaceOnUse">
<stop stop-color="white" stop-opacity="0.26"/>
<stop offset="0.640625" stop-color="white" stop-opacity="0.0781197"/>
<stop offset="1" stop-color="white" stop-opacity="0"/>
</linearGradient>
<clipPath id="clip0_2320_4988">
<rect width="600" height="200" fill="white"/>
</clipPath>
<clipPath id="clip1_2320_4988">
<rect width="57.1552" height="57.1552" fill="white" transform="translate(272.212 162.845)"/>
</clipPath>
<clipPath id="clip2_2320_4988">
<rect width="57.1552" height="57.1552" fill="white" transform="translate(198 16)"/>
</clipPath>
<clipPath id="clip3_2320_4988">
<rect width="57.1552" height="57.1552" fill="white" transform="translate(419.584 162.845)"/>
</clipPath>
<clipPath id="clip4_2320_4988">
<rect width="57.1552" height="57.1552" fill="white" transform="translate(344 16)"/>
</clipPath>
<clipPath id="clip5_2320_4988">
<rect width="41.4836" height="41.4836" fill="white" transform="translate(351.731 23.731)"/>
</clipPath>
<clipPath id="clip6_2320_4988">
<rect width="41.4836" height="41.4836" fill="white" transform="translate(351.731 23.731)"/>
</clipPath>
<clipPath id="clip7_2320_4988">
<rect width="57.1552" height="57.1552" fill="white" transform="translate(271 16)"/>
</clipPath>
<clipPath id="clip8_2320_4988">
<rect width="57.1552" height="57.1552" fill="white" transform="translate(417 16)"/>
</clipPath>
<clipPath id="clip9_2320_4988">
<rect width="57.1552" height="57.1552" fill="white" transform="translate(52 89)"/>
</clipPath>
<clipPath id="clip10_2320_4988">
<rect width="57.1552" height="57.1552" fill="white" transform="translate(125.155 89)"/>
</clipPath>
<clipPath id="clip11_2320_4988">
<rect width="57.1552" height="57.1552" fill="white" transform="translate(491 89)"/>
</clipPath>
<clipPath id="clip12_2320_4988">
<rect width="22.1246" height="33.4174" fill="white" transform="translate(508.516 100.869)"/>
</clipPath>
<clipPath id="clip13_2320_4988">
<rect width="22.1246" height="33.4174" fill="white" transform="translate(508.516 100.869)"/>
</clipPath>
<clipPath id="clip14_2320_4988">
<rect width="22.1246" height="33.4174" fill="white" transform="translate(508.516 100.869)"/>
</clipPath>
<clipPath id="clip15_2320_4988">
<rect width="57.1552" height="57.1552" fill="white" transform="translate(344.621 163)"/>
</clipPath>
<clipPath id="clip16_2320_4988">
<rect width="57.1552" height="57.1552" fill="white" transform="translate(271.466 89)"/>
</clipPath>
<clipPath id="clip17_2320_4988">
<rect width="57.1552" height="57.1552" fill="white" transform="translate(344 88)"/>
</clipPath>
<clipPath id="clip18_2320_4988">
<rect width="57.1552" height="57.1552" fill="white" transform="translate(417 88)"/>
</clipPath>
<clipPath id="clip19_2320_4988">
<rect width="57.1552" height="57.1552" fill="white" transform="translate(199 164)"/>
</clipPath>
</defs>
</svg>
