<svg width="48" height="48" viewBox="0 0 48 48" fill="none" xmlns="http://www.w3.org/2000/svg">
<path d="M16 0.5H32C40.5604 0.5 47.5 7.43959 47.5 16V32C47.5 40.5604 40.5604 47.5 32 47.5H16C7.43959 47.5 0.5 40.5604 0.5 32V16C0.5 7.43959 7.43959 0.5 16 0.5Z" fill="url(#paint0_linear_2056_326)"/>
<path d="M16 0.5H32C40.5604 0.5 47.5 7.43959 47.5 16V32C47.5 40.5604 40.5604 47.5 32 47.5H16C7.43959 47.5 0.5 40.5604 0.5 32V16C0.5 7.43959 7.43959 0.5 16 0.5Z" stroke="#6B5138"/>
<path d="M20.8 22.95L22.95 20.775L21.55 19.35L20.45 20.45L19.05 19.05L20.125 17.95L19 16.825L16.825 19L20.8 22.95ZM29 31.175L31.175 29L30.05 27.875L28.95 28.95L27.55 27.55L28.625 26.45L27.2 25.05L25.05 27.2L29 31.175ZM19.25 33H15V28.75L19.375 24.375L14 19L19 14L24.4 19.4L28.175 15.6C28.375 15.4 28.6 15.25 28.85 15.15C29.1 15.05 29.3583 15 29.625 15C29.8917 15 30.15 15.05 30.4 15.15C30.65 15.25 30.875 15.4 31.075 15.6L32.4 16.95C32.6 17.15 32.75 17.375 32.85 17.625C32.95 17.875 33 18.1333 33 18.4C33 18.6667 32.95 18.9208 32.85 19.1625C32.75 19.4042 32.6 19.625 32.4 19.825L28.625 23.625L34 29L29 34L23.625 28.625L19.25 33ZM17 31H18.4L28.2 21.225L26.775 19.8L17 29.6V31ZM27.5 20.525L26.775 19.8L28.2 21.225L27.5 20.525Z" fill="white"/>
<defs>
<linearGradient id="paint0_linear_2056_326" x1="24" y1="0" x2="24" y2="48" gradientUnits="userSpaceOnUse">
<stop stop-color="#9D7F64"/>
<stop offset="1" stop-color="#634E3B"/>
</linearGradient>
</defs>
</svg>
