<svg width="48" height="48" viewBox="0 0 48 48" fill="none" xmlns="http://www.w3.org/2000/svg">
<rect x="0.5" y="0.5" width="47" height="47" rx="15.5" fill="url(#paint0_linear_2056_364)"/>
<rect x="0.5" y="0.5" width="47" height="47" rx="15.5" stroke="#505050"/>
<path d="M19 26V32C19 32.2833 18.9042 32.5208 18.7125 32.7125C18.5208 32.9042 18.2833 33 18 33C17.7167 33 17.4792 32.9042 17.2875 32.7125C17.0958 32.5208 17 32.2833 17 32V17C17 16.7167 17.0958 16.4792 17.2875 16.2875C17.4792 16.0958 17.7167 16 18 16H25.175C25.4083 16 25.6167 16.075 25.8 16.225C25.9833 16.375 26.1 16.5667 26.15 16.8L26.4 18H31C31.2833 18 31.5208 18.0958 31.7125 18.2875C31.9042 18.4792 32 18.7167 32 19V27C32 27.2833 31.9042 27.5208 31.7125 27.7125C31.5208 27.9042 31.2833 28 31 28H25.825C25.5917 28 25.3833 27.925 25.2 27.775C25.0167 27.625 24.9 27.4333 24.85 27.2L24.6 26H19ZM26.65 26H30V20H25.575C25.3417 20 25.1333 19.925 24.95 19.775C24.7667 19.625 24.65 19.4333 24.6 19.2L24.35 18H19V24H25.425C25.6583 24 25.8667 24.075 26.05 24.225C26.2333 24.375 26.35 24.5667 26.4 24.8L26.65 26Z" fill="white"/>
<defs>
<linearGradient id="paint0_linear_2056_364" x1="24" y1="0" x2="24" y2="48" gradientUnits="userSpaceOnUse">
<stop stop-color="#6B6561"/>
<stop offset="1" stop-color="#5B5652"/>
</linearGradient>
</defs>
</svg>
